<svg xmlns="http://www.w3.org/2000/svg" width="186" viewBox="0 0 139.5 52.5" height="70" version="1.0"><defs><clipPath id="i"><path d="M22 44h1v.988h-1Zm0 0"/></clipPath><clipPath id="a"><path d="M.41 0h138.184v52.004H.41Zm0 0"/></clipPath><clipPath id="c"><path d="M25 .008h1V1h-1Zm0 0"/></clipPath><clipPath id="d"><path d="M21 .008h1V1h-1Zm0 0"/></clipPath><clipPath id="e"><path d="M22 .008h2V1h-2Zm0 0"/></clipPath><clipPath id="f"><path d="M20 .008h2V1h-2Zm0 0"/></clipPath><clipPath id="g"><path d="M19 .008h2V2h-2Zm0 0"/></clipPath><clipPath id="h"><path d="M30 43h2v1.988h-2Zm0 0"/></clipPath><clipPath id="b"><path d="M17 .008h1V1h-1Zm0 0"/></clipPath><clipPath id="j"><path d="M.41 15H1v2H.41Zm0 0"/></clipPath><clipPath id="k"><path d="M.41 16H1v1H.41Zm0 0"/></clipPath><clipPath id="l"><path d="M.41 14H2v2H.41Zm0 0"/></clipPath><clipPath id="m"><path d="M1 .008h44.105v44.98H1Zm0 0"/></clipPath><clipPath id="n"><path d="M8.48 10.57h19.032v17.012H8.48Zm0 0"/></clipPath><clipPath id="o"><path d="M54 19.61h6.879V29H54Zm0 0"/></clipPath><clipPath id="p"><path d="M38.168 44H49v7.906H38.168Zm0 0"/></clipPath><clipPath id="q"><path d="M130 23h8.594v13H130Zm0 0"/></clipPath></defs><g clip-path="url(#a)" fill="#fff"><path d="M.41 0h138.68v58.902H.41Zm0 0"/><path d="M.41 0h138.68v52.191H.41Zm0 0"/><path d="M.41 0h138.68v52.191H.41Zm0 0"/></g><g clip-path="url(#b)"><path fill="#c8a2c8" d="M17.785.625a1.16 1.16 0 0 0-.035-.184c-.086.098-.055.149.035.184Zm0 0"/></g><g clip-path="url(#c)"><path fill="#c8a2c8" d="M25.5.418c.188.004.375.004.375.004a.387.387 0 0 0 .074.012h.016c0-.028-.723-.239-.746-.016h.281Zm0 0"/></g><g clip-path="url(#d)"><path fill="#c8a2c8" d="M21.879.57a1.24 1.24 0 0 0-.281-.082c.082.028.175.055.28.082Zm0 0"/></g><g clip-path="url(#e)"><path fill="#c8a2c8" d="M23.969.8a3.323 3.323 0 0 0-.86-.124c-.14.004-.28.015-.422.043 0 0 0 .004.004.008.2.027.407.05.614.066.222.02.445.02.664.008Zm0 0"/></g><g clip-path="url(#f)"><path fill="#c8a2c8" d="M20.941.61c.172-.036.282-.063.282-.063l-.2-.27c-.097-.136-.199-.27-.199-.27-.836.013-.734.24-.648.473.043.118.082.239.004.336.05-.015.101-.027.152-.043.223-.058.445-.117.61-.164Zm0 0"/></g><g clip-path="url(#g)"><path fill="#c8a2c8" d="M20.176.816h.004c-.168.043-.328.09-.453.133l-.27.086c.219-.02.375-.055.492-.094.113-.035.188-.074.227-.125Zm0 0"/></g><path fill="#c8a2c8" d="M34.23 42.563c-.05.066-.12.144-.203.226a.975.975 0 0 0 .246-.105ZM34.113 42.25l.117.313c.098-.153.106-.27-.117-.313Zm0 0"/><g clip-path="url(#h)"><path fill="#c8a2c8" d="M31.273 43.664c-.226.234-.468.45-.468.45.21-.044.558-.15.797-.301.234-.157.355-.356.125-.602l-.454.453Zm0 0"/></g><path fill="#c8a2c8" d="m38.266 35.852-.207-.141c.015.09.062.152.207.14ZM3.3 13.91a.526.526 0 0 0-.081-.14l.082.14Zm0 0"/><g clip-path="url(#i)"><path fill="#c8a2c8" d="m22.95 44.223-.024-.035c-.004.015.008.027.023.035Zm0 0"/></g><path fill="#c8a2c8" d="m34.777 4.71.098-.097a.215.215 0 0 0-.098.098ZM43.91 27.918c-.012.004-.023.004-.039.004v.058c.012-.02.027-.039.04-.062ZM43.64 29.813c.09-.555.188-1.223.231-1.801v-.032c-.195.293-.285.54-.289.81-.008.292.04.605.059 1.023ZM41.977 34.328c.043.035.093.074.152.11-.008-.133-.066-.149-.152-.11ZM40.723 34.129s.156-.215.3-.438l.282-.449c.183.254.07.567-.067.84-.136.273-.265.527-.082.723.227.07.61-.375.82-.477-.37-.3-.261-.601-.19-.844.081-.273.1-.464-.65-.496a1.97 1.97 0 0 0-.097.203c-.113.246-.21.547-.316.938ZM41.906 30.895c-.039.402-.113.71-.199.972a4.54 4.54 0 0 1-.223.477.707.707 0 0 1 .262-.07c.238-.036.504-.075.691-.79l-.265-.297c-.133-.148-.266-.292-.266-.292ZM41.117 32.984c.004 0 .012.004.02.004.082-.16.168-.304.246-.453.035-.062.066-.129.101-.191-.023.015-.05.031-.074.054-.11.09-.195.266-.293.586ZM38.176 38.055a3.14 3.14 0 0 0 .265-.328s-.004 0-.011-.004c-.16.12-.32.25-.477.39-.172.14-.332.297-.476.461a3.464 3.464 0 0 0 .699-.52ZM39.117 37.262a1.4 1.4 0 0 0 .258-.14c-.078.038-.164.085-.258.14Zm0 0"/><path fill="#c8a2c8" d="M38.703 37.324c-.18-.039-.262-.18-.16-.472 0 0 .203-.008.406-.012l.41-.016s0-.101-.004-.254a7.92 7.92 0 0 0-.027-.554c-.027-.403-.066-.793-.066-.793a1.2 1.2 0 0 1-.23.722c-.137.203-.333.356-.489.508-.309.297-.52.54-.102.98 0 0-.16.032-.32.067l-.32.063.32.082.309.078c.246-.184.484-.34.687-.461a.739.739 0 0 1-.414.062ZM36.664 39.926c-.133.133-.27.261-.27.261-.027.02-.046.036-.058.043l-.012.016c.02.016.68-.348.54-.52a34593.614 34593.614 0 0 1-.2.2ZM40.5 35.219a2.503 2.503 0 0 0-.281.414.51.51 0 0 0-.074.25s.003 0 .003.004c.086-.153.164-.297.223-.414l.129-.254ZM40.383 36.121c-.113-.055-.223-.11-.235-.234l-.082.136c-.113.2-.23.399-.316.547-.094.145-.152.242-.152.242s.164.028.332.051c.168.028.332.051.332.051.582-.602.347-.687.12-.793Zm0 0"/><g clip-path="url(#j)"><path fill="#c8a2c8" d="M.668 16.293a1.733 1.733 0 0 1-.02-.305c-.043.078-.078.16-.101.25Zm0 0"/></g><g clip-path="url(#k)"><path fill="#c8a2c8" d="m.969 16.434-.301-.141c.035.18.117.266.3.14Zm0 0"/></g><g clip-path="url(#l)"><path fill="#c8a2c8" d="M1.617 15.074c.29-.222.403-.414-.039-.761 0 0-.137.234-.27.472-.066.117-.136.238-.183.328l-.086.149c-.41-.215-.617-.32-.262-.914-.242.062-.277.734-.328 1.09l.149-.211c.062.195.047.5.05.761.227-.433.676-.699.97-.914Zm0 0"/></g><path fill="#c8a2c8" d="M1.98 14.066s-.003-.32-.003-.64c-.004-.324.015-.649.015-.649-.12.18-.293.5-.351.774-.059.277-.004.504.34.515ZM3.21 13.133c.118-.18.243-.344.24-.551-.298.188-.29.07-.204-.137.086-.203.25-.488.25-.648-1.027.8-.031.656-.285 1.336ZM3.21 13.133a1.054 1.054 0 0 0-.136.273c.07-.105.106-.195.137-.273ZM7.465 7.148l.043.008c-.008-.011-.024-.011-.043-.008Zm0 0"/><g clip-path="url(#m)"><path fill="#c8a2c8" d="M44.945 21.309a8.062 8.062 0 0 1-.277-.852c-.07-.289-.086-.578.043-.812l-.453.082-.012-.094c-.035-.54-.062-.883-.059-1.113a2.21 2.21 0 0 1 .032-.473c.023-.11.047-.207.05-.402.004-.098 0-.223-.011-.387-.02-.16-.047-.363-.09-.617 0 0-.172-.098-.344-.2a1.552 1.552 0 0 1-.136-.078c-.032-.11-.06-.218-.09-.332l.007-.008-.062-.164a18.758 18.758 0 0 0-1.148-2.968 2.238 2.238 0 0 0-.36-.715s.004.015.012.035c-.234-.43-.48-.852-.742-1.262a.36.36 0 0 0 .078-.09 3.638 3.638 0 0 0-.594-.671 19.15 19.15 0 0 0-6.016-5.47c0-.003.004-.003.004-.007 0 .004-.004.004-.004.004a20.94 20.94 0 0 0-.574-.317c.07-.078.149-.16.227-.242.406-.422.828-.87.004-1.218.316.382.168.722-.114.921-.28.204-.68.254-.937.067.004.015.004.039.004.062-.113-.054-.227-.105-.344-.16.273-.09.324-.265.227-.441-.106-.188-.38-.387-.7-.45.133.063.239.133.32.215a.746.746 0 0 1 .169.258c.058.156.039.3-.047.406a15.003 15.003 0 0 0-.524-.222c-.035-.028-.074-.055-.109-.082a.589.589 0 0 0 .184-.133c.191-.317-.133-.672-.598-1.016-.234-.164-.496-.332-.746-.496-.246-.152-.477-.308-.63-.469-.335-.046-.515.012-.648.106-.128.098-.21.242-.351.426-.035-.215-.207-.403-.387-.57-.176-.169-.36-.34-.41-.56a2.603 2.603 0 0 1-.957.036c-.281-.05-.535-.148-.793-.223-.258-.082-.52-.168-.805-.187a2.11 2.11 0 0 0-.27.008h-.015c-.203.02-.418.066-.652.168-.059-.082-.082-.141-.078-.184-.059.004-.098.004-.098.004l.082.09c-.254.148-.558.23-.883.265-.113.012-.23.02-.351.024.105.031.207.062.304.105.07.028.133.063.2.094-.184.016-.418.047-.653.074-.332.035-.664.086-.851.117-.032-.05-.07-.12-.114-.191-.07-.121-.144-.238-.164-.273A7.746 7.746 0 0 1 21.88.57a.719.719 0 0 1 .336.246c.047.07.062.145.039.215-.05.004-.102.004-.152.008-.11.008-.22.012-.329.016-.023-.02-.046-.047-.074-.07l-.3-.278-.176.184a4.932 4.932 0 0 0-.184.195c-.371.016-.738.039-1.098.05a14.63 14.63 0 0 0-1.328.153 5.818 5.818 0 0 0-.953.274c.125-.114.297-.188.469-.243.289-.097.562-.187.57-.457-.113-.207-.695-.16-.914-.238.047.473-.242.61-.465.73-.226.125-.375.235-.02.668-.023.075-.019.133.036.172-.14.04-.273.075-.402.118-.07.019-.137.039-.207.062a.614.614 0 0 0 .09.016c.132.011.3-.043.562-.176.086.027.25.02.535-.047-.336.332-.773.445-1.25.453a4.39 4.39 0 0 1-.555-.004c.043-.02.082-.043.121-.062.176-.078.336-.133.497-.18-.094-.027-.165-.082-.239-.137-.191-.14-.406-.3-1.043.07 0 0-.008.13-.02.286-.058-.004-.12-.004-.179-.004l.078-.13c.047-.077.11-.179.172-.276l.262-.403c-1.156.395-2.48.664-3.738 1.117-1.254.446-2.434 1.063-3.184 1.946l.601.176c-.101.082-.199.164-.304.242a12.813 12.813 0 0 1-.918.68c-.402.288-.809.55-1.18.812-.363.27-.719.516-.992.781-.273.262-.496.524-.629.79.809-.247.7.027.387.405-.074.098-.16.204-.25.31a.458.458 0 0 1-.094.034l.04.031c-.259.301-.52.606-.556.778.149-.117.297-.246.446-.387.093-.09.183-.184.273-.281l.18.12c-.395.454-.633.735-.809.907-.168.172-.265.25-.36.309-.089.062-.175.113-.316.25-.074.066-.16.156-.265.281-.102.129-.223.29-.375.5l.101.383a23.317 23.317 0 0 1 .11.379c.043.062.09-.399.21-.844.114-.45.34-.86.634-.688-.02.165-.055.333-.094.504-.04.168-.078.344-.125.52-.047.176-.098.355-.149.535-.05.176-.097.363-.144.543-.043.184-.09.367-.13.555a6.523 6.523 0 0 0-.125 1.105c-.003.18.013.364.04.54 0 0-.223-.325-.426-.665-.12-.199-.242-.406-.316-.539.094.262-.125.496-.399.805a5.47 5.47 0 0 0-.515.644c-.153.25-.278.543-.325.887l.32-.531c.083-.133.157-.262.223-.36.063-.093.106-.16.106-.16.184.305.25.653.227 1.028a9.55 9.55 0 0 1-.204 1.21c-.027.106-.05.215-.074.325-.02.11-.043.219-.062.328-.04.223-.07.441-.094.66-.04.442-.008.871.121 1.254.035-.41.07-.816.402-.852.028.036.051.079.067.125 0 .153.008.18.043.16.027.165.015.36-.02.563a5.604 5.604 0 0 1-.258.996.549.549 0 0 1-.12-.035c-.048-.277-.028-.543.16-.918l-.329.055c-.164.031-.328.058-.328.058.004.063.012.125.02.188-.004 0-.004-.004-.004-.004-.125-.344-.145-.781-.172-1.203-.04-.84 0-1.613-.492-1.492a3.575 3.575 0 0 0-.008 1.304c.078.422.2.825.332 1.196.14.37.277.714.363 1.027.09.316.133.602.067.871 0 0-.176-.215-.352-.426l-.242-.297c-.067-.082-.106-.14-.106-.14s.012.054.036.137l.078.292c.062.211.12.426.12.426l.044-.254c.281.176.27.442.226.758-.043.313-.125.672-.007 1 0 0-.18-.098-.364-.191l-.36-.203.013.203c.011.12.015.281.035.441l.07.645.168-.188a42.505 42.505 0 0 1 1.156 5.645l-.02-.18c-.011-.105-.03-.246-.038-.39-.02-.286-.043-.57-.043-.57.164.042.379.597.484 1.1.172-.148.09-.519.047-.87-.035-.29-.07-.551.031-.641.09.508.2 1.012.328 1.512.008.117.012.23.016.347.004.266.023.532.055.848.015.156.039.328.074.512.039.183.086.383.152.601.121.016.211-.183.32-.379.126.328.262.657.407.985-.11.074-.281.07-.578-.102.5.45.515.715.55.942.032.222.09.406.657.64-.098-.082-.168-.258-.239-.433a.26.26 0 0 1 .059-.11c.234.461.492.914.77 1.36.007.382.082.761.394 1.254 0 0 .098.085.246.21.145.125.352.282.55.442.157.125.313.242.446.344l.317.363c-.051.043-.118.055-.118.055.188.152.368.312.547.476.188.16.368.324.543.488l.09.082c.043.043.086.082.125.122.016.093.07.18.203.253.051.028.098.047.14.063l.017.012c.16.148.324.293.48.437.352.305.703.586 1.047.828.125.082.25.16.371.23.496.344 1.004.66 1.527.95v.012c.043.023.086.043.133.062.219.121.442.238.664.348-.18.039-.332.07-.332.07 1.098.54 2.227 1.285 3.438 1.852 1.199.57 2.472.968 3.625.875l-.301-.551c.133.012.262.027.39.043.125.016.254.027.383.043.25.035.5.078.746.125.489.078.961.183 1.41.262.45.066.872.14 1.25.148.383.008.723-.02 1.004-.117-.742-.395-.472-.512.016-.559.492-.07 1.219-.07 1.422-.207a6.88 6.88 0 0 0-.586-.043 6.556 6.556 0 0 0-.617.02c-.418.035-.84.062-1.219.11-.652.066-1.176.12-1.293.062l.043.062s-.172.02-.426.028c-.258.011-.605.03-.953.039-.347 0-.695-.004-.957-.004a6.381 6.381 0 0 1-.433-.016l.085-.336c2.258.215 4.547.027 6.754-.559v.004-.004c.211-.058.422-.117.633-.183.004.11.008.219.008.336.012.582.031 1.2.86.863-.497-.05-.63-.394-.575-.73.059-.344.305-.66.621-.711a.156.156 0 0 1-.047-.043l.352-.13c-.129.259-.04.415.156.47.16.046.399.023.621-.075.266.075.18.145-.011.223-.207.082-.528.172-.637.281 1.117.14.668-.289.95-.601.198.035.448.02.722-.024.281-.047.59-.117.879-.175.238-.055.465-.098.66-.11-.074.082-.106.234-.074.492 0 0 .261-.074.527-.144.129-.04.262-.074.36-.102l.163-.047c.141.442.211.664-.46.832.214.125.718-.324 1.003-.543l-.254.047c.094-.183.32-.386.504-.574-.468.148-.972.016-1.332-.039-.082-.008-.152-.016-.218-.008.191-.168.257-.312.28-.449.024-.16-.023-.324-.05-.55.176.128.43.136.676.132.246-.008.496-.02.683.102a2.59 2.59 0 0 1 .657-.7c.23-.164.48-.273.718-.402.239-.125.485-.25.7-.438.062-.058.125-.124.183-.195l.012-.012a2.06 2.06 0 0 0 .344-.578c.097.016.156.04.183.075l.067-.07-.121-.009c.074-.285.23-.558.437-.812.07-.09.149-.176.23-.266a2.85 2.85 0 0 1-.288.145 5.663 5.663 0 0 1-1.45.36l-.824.097c.23-.207.453-.418.672-.637a61 61 0 0 0 .262.184c.207-.239.382-.485.543-.735.152-.246.28-.507.41-.773a19.44 19.44 0 0 0 1.176-1.563l.082.059c-.008-.062.117-.223.316-.48.102-.125.227-.27.367-.43l.453-.555c.004-.008.012-.012.016-.02a19.072 19.072 0 0 0 3.437-5.175c.008-.004.012-.012.02-.016.098-.066.195-.14.258-.125.062.016.094.121.023.399.008.164.102-.25.114-.73a4.312 4.312 0 0 0-.008-.505c.054-.144.11-.289.16-.437.097.203.289.316.66.289.02-.54-.004-.98-.148-1.149l.128.098s-.078-.254-.21-.598c.082-.308.16-.617.226-.93.16.282.352.454.629.31 0 0-.121-.25-.238-.5a6.25 6.25 0 0 0-.172-.333l-.078-.152c.558.34.406-.953.824-.715 0 0-.004-.039-.02-.113l-.066-.305c-.059-.254-.117-.59-.207-.922-.086-.312-.164-.625-.234-.867.004-.16.007-.32.007-.48l.395-.106s-.043.168-.09.34c-.02.086-.043.168-.059.23l-.03.106c.327.156.476.156.523.047.047-.106-.016-.317-.11-.574ZM6.105 13.28c.063-.18.125-.355.168-.531.008-.04.02-.078.028-.117.152-.102.293-.059.41.3l-.445.415c-.121.117-.235.234-.317.316.059-.125.114-.254.156-.383Zm.313-1.176c.031-.125.059-.25.09-.37.023-.09.05-.18.078-.266.047.297-.027.492-.168.636Zm1.05.262a.672.672 0 0 1 .305.055c-.113.125-.218.25-.324.379 0-.078.004-.156.008-.239l.012-.195ZM4.814 16.68a4 4 0 0 0 .011-.754c-.008-.336-.039-.688-.05-1.004v-.113c.046-.106.097-.196.152-.258a.994.994 0 0 0-.149.062c.012-.183.032-.343.075-.465.035.106.183-.105.367-.34.18.063.367-.195.554-.495.079.011.122.132.102.425l-.04.043c.013-.004.024-.004.036-.004 0 .016 0 .032-.004.051.012-.02.016-.035.028-.05.312-.02.515-.133.671-.282.168-.16.27-.371.368-.57.086-.176.175-.344.293-.446a.139.139 0 0 0-.016.036c-.05.156-.098.324-.149.488l-.132.445c-.078.106-.16.207-.235.313-.023.008-.043.015-.058.015 0 .02.004.04.008.059-.676.93-1.258 1.91-1.743 2.922-.035-.024-.062-.051-.09-.078Zm39.113.316c.222.375.351.79.101.914a21.04 21.04 0 0 0-.238-1.14c.047.074.094.148.137.226ZM32.359 3.54l-.035-.012c.004-.004.008-.004.016-.004.008.004.012.012.02.016Zm-.472-.39-.07-.055s.027.023.074.058a.68.68 0 0 1 .043.07c.05.075.097.153.152.212a19.87 19.87 0 0 0-.676-.247c.215-.312.352-.214.477-.039Zm-8.989-1.946c-.054.012-.09.016-.09.016a.153.153 0 0 1-.03-.098c.042.031.085.059.12.082ZM22.48.926l.122.082-.13.012c.005-.032.005-.06.008-.094ZM12.238 3.53c-.043.035-.082.07-.125.106-.011-.012-.015-.02-.027-.032a.91.91 0 0 1 .152-.074Zm-1.215.93c.122-.04.247-.07.364-.102-.11.141-.18.27-.188.371l-.023-.16s-.133.246-.285.602a5.317 5.317 0 0 0-.36 1.266c.098-.282.301-.547.528-.79.234-.23.496-.445.703-.648.332-.305.547-.59.379-.914.129-.094.16-.211.043-.371.195-.059.351-.145.488-.258a.739.739 0 0 1 .512.258 3.704 3.704 0 0 0-.239.21c-.355.317-.687.74-.61.91.165-.03.313-.308.509-.495.187-.195.402-.324.636-.094.512-.289.313-.32.075-.367.02-.012.035-.02.05-.035.172-.106.395-.25.622-.39.226-.15.457-.282.632-.38l.297-.164c.305.195.09.985-.148 1.012-.195.055-.403.168-.617.297a34.63 34.63 0 0 1-.676.39c-.461.258-.942.43-1.442.293-.21.328.016.426.13.547.12.121.128.242-.458.645-.84.129-1.629.508-2.343.976.023-.27.18-.625.316-.976.207-.504.375-.98-.059-1.117 0 0-.093.257-.183.52-.02.046-.035.097-.051.148-.219-.614.613-.965 1.398-1.184Zm-2.027.984c.094-.093.172-.168.23-.218l.09-.082.301.515c-.023.07-.043.137-.058.192-.032.097-.051.164-.051.164-.149-.606-.887.293-1.067-.028l.555-.543ZM7.391 7.137s.105-.133.28-.32c.161-.176.372-.41.59-.645-.023.039-.05.078-.077.125-.141.219-.336.496-.504.797-.172.293-.348.586-.47.808l-.194.38-.383-.22c.062-.082.125-.156.183-.226l.02-.012c.074-.043.148-.09.207-.12l.094-.052c-.016-.05-.035-.097-.051-.136.176-.204.312-.344.379-.368ZM3.695 17.488c.344-1.05.254.375.66-.015a.71.71 0 0 0 .235-.192c.004.047.004.098.004.149-.145.332-.278.672-.403 1.011-.128.059-.242.012-.328-.113a.897.897 0 0 1-.14-.348 1.81 1.81 0 0 1-.028-.492ZM16.91 43.363c.09.024.18.047.266.075v.027a1.396 1.396 0 0 1-.266-.102Zm2.012.453c.414.07.832.125 1.254.168-.293.2-.774.063-1.254-.168Zm10.742-.62c-.055.007-.105.015-.156.015a.797.797 0 0 1-.305-.063c-.152-.07-.238-.187-.25-.32.23-.09.461-.18.688-.277-.04.054-.063.14-.067.27a.391.391 0 0 0 .25.273.648.648 0 0 0-.16.101Zm.465-.704c-.086-.02-.176-.043-.254-.043.219-.097.438-.199.652-.304.078.425-.148.402-.398.347Zm0 0"/></g><path fill="#c8a2c8" d="M27.066 43.445v.137a.204.204 0 0 0 0-.137Zm0 0"/><g clip-path="url(#n)"><path fill="#fff" d="M25.246 10.574h-14.5c-.3 0-.59.055-.867.168a2.217 2.217 0 0 0-.734.488 2.216 2.216 0 0 0-.664 1.578v8.954a2.216 2.216 0 0 0 .664 1.582c.21.21.457.37.734.484.277.113.566.172.867.172h4.305l2.582 3.402a.468.468 0 0 0 .16.13c.062.034.129.05.203.05.07 0 .137-.016.203-.05a.468.468 0 0 0 .16-.13L20.941 24h4.305c.3 0 .59-.059.867-.172a2.225 2.225 0 0 0 1.223-1.21 2.15 2.15 0 0 0 .176-.856v-8.953a2.15 2.15 0 0 0-.176-.856 2.258 2.258 0 0 0-2.09-1.379Zm1.36 11.188c0 .18-.036.347-.106.515-.07.164-.168.309-.293.434a1.451 1.451 0 0 1-.441.293c-.168.066-.34.101-.52.101h-4.531a.427.427 0 0 0-.363.18l-2.356 3.102-2.355-3.102a.437.437 0 0 0-.364-.18h-4.53a1.362 1.362 0 0 1-.96-.395 1.32 1.32 0 0 1-.299-.433 1.378 1.378 0 0 1-.101-.515v-8.953c0-.176.035-.348.101-.512.07-.164.168-.309.297-.438a1.383 1.383 0 0 1 .96-.39h14.501a1.372 1.372 0 0 1 .96.39c.126.13.224.274.294.438.07.164.105.336.105.512Zm-6.344-6.266c-.004.754-.313 1.356-.926 1.805-.559.367-.856.879-.887 1.539v.238a.447.447 0 0 1-.453.445.439.439 0 0 1-.32-.128.431.431 0 0 1-.133-.317v-.238c.012-.453.129-.88.352-1.277.222-.399.523-.727.902-.985a1.312 1.312 0 0 0 .539-.851c.02-.11.023-.227.016-.34a1.364 1.364 0 0 0-.075-.332c-.035-.11-.09-.211-.152-.309a1.405 1.405 0 0 0-.516-.45 1.33 1.33 0 0 0-.324-.112 1.463 1.463 0 0 0-.344-.032 1.71 1.71 0 0 0-.343.059 1.5 1.5 0 0 0-.313.14 1.208 1.208 0 0 0-.27.215 1.292 1.292 0 0 0-.335.59 1.447 1.447 0 0 0-.043.34.445.445 0 0 1-.453.445.439.439 0 0 1-.32-.128.419.419 0 0 1-.134-.317c0-.297.055-.582.172-.855.114-.278.278-.516.493-.727.21-.21.457-.371.734-.484a2.274 2.274 0 0 1 2.96 1.21c.114.274.173.56.173.856Zm-1.813 5.816c0 .125-.047.231-.133.317a.434.434 0 0 1-.32.133.428.428 0 0 1-.32-.133.419.419 0 0 1-.133-.317c0-.12.043-.226.133-.316a.439.439 0 0 1 .32-.129.445.445 0 0 1 .453.445Zm0 0"/></g><g clip-path="url(#o)"><path fill="#c8a2c8" d="M60.758 19.668a.743.743 0 0 0-.278-.05c-.128-.005-.253-.009-.378.003a4.776 4.776 0 0 0-.778.18c-.715.219-1.406.508-2.094.808-.843.375-1.675.782-2.492 1.207-.203.11-.41.215-.605.332a126.43 126.43 0 0 1 2.101-.918c.578-.246 1.16-.484 1.75-.707.582-.218 1.164-.433 1.77-.574.226-.05.457-.094.687-.074-.367.2-.738.39-1.066.652-.445.352-.816.813-.973 1.364a192.563 192.563 0 0 0-1.441 5.547c-.047.187-.094.375-.133.566.567-1.754 1.098-3.52 1.61-5.293.078-.258.148-.52.226-.777.145-.457.457-.844.824-1.141.278-.227.586-.414.903-.582.12-.066.246-.125.359-.203.059-.043.121-.106.117-.184.004-.07-.047-.129-.11-.156Zm0 0"/></g><path fill="#c8a2c8" d="M56.273 21.625c.016-.012.016-.027.004-.047A51.67 51.67 0 0 0 52.895 24c-.485.383-.958.781-1.418 1.191-.477.426-.942.872-1.36 1.352-.199.234-.394.477-.558.738-.149.235-.293.477-.45.707-.488.719-1.047 1.38-1.554 2.078a11.6 11.6 0 0 0-1.032 1.68 7.97 7.97 0 0 0-.836 3.41l.032.004c.113-.758.293-1.504.57-2.215a9.828 9.828 0 0 1 .973-1.863c.699-1.074 1.535-2.05 2.207-3.145.12-.19.226-.394.347-.585.36-.555.809-1.043 1.27-1.512.48-.48.984-.938 1.504-1.375a49.907 49.907 0 0 1 3.683-2.84ZM52.984 26.91l-.152-.105a197.041 197.041 0 0 0-3.598 5.355 94.628 94.628 0 0 0-2.066 3.336c-.332.57-.652 1.14-.95 1.73a33.848 33.848 0 0 0-.898 1.997c-.53 1.273-1.015 2.566-1.504 3.855-.027.063-.007.137-.05.192-.063.07-.078.16-.118.242-.109.289-.218.578-.332.863a8.02 8.02 0 0 1-.687-.035c.156-.336.3-.676.457-1.012.027-.055.02-.117.047-.168.02-.039.058-.062.074-.101.469-1.02.953-2.032 1.438-3.043.117-.239.23-.48.359-.715 1.277-2.364 2.559-4.73 3.836-7.098l-.164-.082-3.961 7.332c-.457.938-.903 1.875-1.344 2.817-.14.296-.273.593-.414.89-.45.02-.895.067-1.336.145-.285.058-.574.125-.84.246-.105.054-.215.12-.273.226.097-.14.262-.21.418-.265.304-.11.625-.16.941-.207.352-.04.707-.07 1.063-.075-.172.364-.332.727-.492 1.094a6.754 6.754 0 0 1-1.25-.219 1.906 1.906 0 0 1-.415-.164c-.046-.03-.101-.062-.117-.117-.047.004-.097.008-.144.016 0-.028 0-.059-.004-.086v.086a2.231 2.231 0 0 0-.168.015c.008.106.066.2.144.266.133.11.297.172.457.227.446.14.914.199 1.383.238-.125.309-.265.613-.351.934a4.04 4.04 0 0 0-.07.613c.003.11.011.242.1.324.083.078.208.066.31.027.113-.043.234-.097.312-.199.105-.137.188-.293.266-.445.191-.399.363-.805.523-1.219.77-.02 1.547-.066 2.297-.266.184-.05.363-.113.527-.207.094-.058.188-.132.219-.238.031-.101-.02-.207-.094-.273-.12-.114-.285-.172-.441-.227-.402-.129-.824-.183-1.242-.222-.23-.02-.461-.04-.696-.04.532-1.394 1.055-2.793 1.641-4.168.258-.605.523-1.21.824-1.8.317-.614.66-1.22 1.012-1.817a100.259 100.259 0 0 1 2.309-3.687 188.244 188.244 0 0 1 3.214-4.766m-8 16.434c.325.05.653.113.961.23.117.051.246.102.332.203a.09.09 0 0 1 0 .121.634.634 0 0 1-.234.157 3.335 3.335 0 0 1-.613.175c-.387.07-.778.114-1.168.13l-.012.007c-.246.004-.492.016-.738.008.148-.375.293-.754.437-1.133.348.016.692.051 1.035.102M43.22 44.62c-.188.457-.371.922-.61 1.356-.07.109-.132.242-.261.293-.067.027-.149.082-.223.05-.05-.09-.04-.195-.035-.293.012-.12.023-.246.043-.367.012-.12.058-.23.094-.344.082-.222.175-.437.265-.656.012-.023.016-.05.035-.062.23.02.461.02.692.023ZM56.75 27.91c-.035 0-.074 0-.11.008-.745.156-1.484.367-2.19.656-.298.13-.595.262-.845.469-.093.082-.203.187-.175.324.03.125.16.18.273.203.29.059.586.04.875.024a12.354 12.354 0 0 0 1.848-.285c-.742.03-1.485.101-2.227.09-.18-.016-.37-.004-.543-.083.106-.12.242-.207.38-.289.241-.14.5-.257.757-.367.594-.258 1.203-.476 1.809-.707a.647.647 0 0 1 .148-.043Zm0 0"/><path fill="#c8a2c8" d="M56.145 29.574c-.43.961-.758 1.965-1.149 2.942-.117.273-.23.55-.394.8-.02.043-.075.032-.114.043a8.18 8.18 0 0 0-1.64.489c-.223.097-.446.203-.625.367-.07.062-.145.148-.133.25.004.094.09.16.176.191.172.059.355.059.535.059.422-.008.844-.074 1.258-.145-.227.282-.45.567-.688.836a15.83 15.83 0 0 1-1.469 1.516 9.185 9.185 0 0 1-.87.683 8.264 8.264 0 0 1-.954.551c-.656.328-1.34.602-2.027.852a37.36 37.36 0 0 1-1.54.512c-.09.027-.179.058-.269.074.09.004.176-.02.266-.032.785-.14 1.558-.343 2.316-.601a11.384 11.384 0 0 0 1.883-.828 7.414 7.414 0 0 0 1.637-1.297c.668-.684 1.25-1.45 1.73-2.273.11-.02.211-.047.317-.067-.223-.012-.446.008-.668.008-.348.008-.696.02-1.043 0-.114-.012-.227-.02-.336-.059a.039.039 0 0 1 .015-.043c.145-.136.325-.23.5-.32.524-.254 1.075-.457 1.614-.676.05-.02.105-.027.148-.058a2.52 2.52 0 0 0 .465-.57c.324-.536.55-1.122.734-1.712.133-.437.242-.878.309-1.328.008-.054.016-.11.016-.164ZM44.445 32.191c-.078-.027-.156.055-.156.133-.047.473-.066.95-.074 1.426 0 .46-.004.922.023 1.383.024.422.063.844.149 1.262.05.199.097.41.218.582-.082-.192-.105-.399-.128-.606-.04-.441-.032-.887-.032-1.328.008-.309.016-.613.02-.918l.008-.012c0-.234.015-.468.027-.699.254.613.625 1.172 1.031 1.695.098.13.2.254.313.371-.383-.617-.754-1.246-1.035-1.917-.114-.29-.22-.586-.246-.899-.012-.121 0-.242-.004-.363-.016-.047-.063-.086-.114-.11Zm0 0"/><path fill="#c8a2c8" d="M43.781 34.824a.242.242 0 0 0-.113-.094c-.066-.02-.125.036-.148.094-.012.078-.02.16-.024.239l-.004.011c-.05.832-.074 1.668-.031 2.5.02.438.059.875.14 1.305.032.148.067.297.126.441a.693.693 0 0 0 .109.196c-.07-.137-.09-.29-.113-.438-.063-.504-.055-1.012-.051-1.516.004-.386.016-.773.035-1.156.004-.156.004-.308.02-.46.043.132.109.257.171.382.164.324.36.633.567.93.187.265.383.523.601.762-.367-.598-.722-1.204-1-1.844-.14-.348-.277-.703-.285-1.082-.008-.09.02-.18 0-.27ZM42.656 37.828c-.027-.105-.203-.117-.246-.012-.043.141 0 .286.028.422.058.774.124 1.547.308 2.297.063.223.113.457.254.649a2.55 2.55 0 0 1-.105-.563c-.043-.437-.07-.875-.102-1.312a18.253 18.253 0 0 1-.031-.461c.203.285.441.547.707.78-.274-.417-.567-.831-.746-1.3-.032-.164-.024-.336-.067-.5ZM48.48 39.898c.004-.062-.011-.128-.062-.164-.055-.02-.11.004-.152.036-.262.19-.575.304-.88.421-.609.223-1.23.41-1.85.602-.13.035-.255.086-.384.113.18 0 .356-.047.532-.074a14.238 14.238 0 0 0 1.84-.46c-.524.398-1.044.8-1.583 1.171-.093.066-.195.125-.289.195.348-.144.676-.332.996-.531.54-.328 1.055-.691 1.555-1.074.094-.078.192-.149.277-.235ZM47.602 41.145c-.067-.032-.137.015-.192.054-.273.192-.59.301-.898.418-.602.219-1.215.399-1.828.59-.121.035-.235.082-.36.105.094.008.184-.015.278-.03a15.72 15.72 0 0 0 1.796-.407c.102-.027.2-.074.301-.09a.509.509 0 0 0-.043.024c-.508.394-1.02.78-1.547 1.148-.093.059-.183.129-.285.176.137-.031.258-.106.383-.164.602-.317 1.168-.7 1.723-1.094.246-.184.504-.363.73-.57.004-.059-.012-.125-.058-.16Zm0 0"/><g clip-path="url(#p)"><path fill="#c8a2c8" d="M41.602 44.672c-.399.473-.774.957-1.141 1.453a27.181 27.181 0 0 0-1.152 1.68c-.282.449-.547.91-.774 1.386-.168.364-.324.739-.398 1.133-.028.137-.016.278-.02.414a.716.716 0 0 0 .438.66c.246.106.508.157.77.207.546.098 1.1.153 1.655.196.75.054 1.504.094 2.258.09.719-.004 1.442.015 2.16-.032.418-.015.84-.05 1.258-.097.383-.051.766-.106 1.137-.219.172-.055.355-.117.477-.258.097-.105.093-.258.101-.39-.004-.372-.121-.727-.246-1.07-.254-.66-.59-1.29-.945-1.9a28.297 28.297 0 0 0-1.047-1.663c-.301-.446-.613-.887-.942-1.32.73 1.136 1.434 2.285 2.051 3.484.176.347.344.699.492 1.058.13.313.246.625.317.953.043.204.074.418.035.626-.012.054-.07.085-.113.113a2.016 2.016 0 0 1-.493.16c-.46.098-.93.14-1.398.176-.73.05-1.46.074-2.195.07a43.95 43.95 0 0 1-2.38-.059 27.16 27.16 0 0 1-1.773-.156 6.454 6.454 0 0 1-.941-.18c-.094-.035-.195-.062-.262-.136a.463.463 0 0 1-.14-.293c-.04-.281.035-.559.113-.828.164-.508.402-.989.652-1.461.32-.602.676-1.18 1.043-1.75a48.58 48.58 0 0 1 1.403-2.047Zm0 0"/></g><path fill="#c8a2c8" d="M43.027 47.89c-.25 0-.5-.035-.746.008a5.66 5.66 0 0 0-.992.243c-.152.058-.312.117-.434.23-.062.05-.062.137-.058.211 0 .383-.004.77 0 1.156 0 .102.02.207.07.297.098.18.301.297.504.293 1.422-.004 2.844 0 4.262-.004.285 0 .543-.25.547-.535v-1.293c.004-.082-.067-.137-.13-.176-.152-.093-.323-.144-.495-.195a6.938 6.938 0 0 0-1.067-.2c-.484-.015-.972-.023-1.46-.034Zm0 0"/><path d="m16.937 31.189-.828 2.766c-.012.054.008.078.062.078h1.547c.051 0 .07-.024.063-.078l-.828-2.766h-.016Zm-1.14 3.86-.297 1a.842.842 0 0 1-.25.343.639.639 0 0 1-.391.125h-.281a.353.353 0 0 1-.297-.14.332.332 0 0 1-.047-.329l1.906-5.468a.604.604 0 0 1 .25-.329.686.686 0 0 1 .422-.14h.313c.144 0 .28.047.406.14a.623.623 0 0 1 .25.329l1.906 5.468a.352.352 0 0 1-.047.328.344.344 0 0 1-.281.141h-.328a.623.623 0 0 1-.39-.125.777.777 0 0 1-.25-.344l-.298-1c-.011-.05-.043-.078-.093-.078h-2.11c-.054 0-.086.028-.094.078ZM21.858 33.673v1.844c0 .043.024.074.079.094.207.023.398.031.578.031.488 0 .843-.086 1.062-.266.227-.175.344-.445.344-.812 0-.332-.133-.578-.39-.734-.25-.157-.68-.235-1.282-.235h-.312c-.055 0-.079.028-.079.078Zm0-2.562v1.5c0 .055.024.078.079.078h.25c.539 0 .93-.07 1.171-.219a.746.746 0 0 0 .375-.672c0-.28-.101-.488-.296-.625-.2-.132-.524-.203-.97-.203-.179 0-.359.016-.546.047-.043.012-.063.043-.063.094Zm3.235 3.562c0 .649-.215 1.133-.64 1.453-.419.325-1.075.485-1.97.485-.437 0-.886-.028-1.343-.078a.549.549 0 0 1-.36-.172.593.593 0 0 1-.14-.39v-5.313c0-.145.047-.27.14-.375a.496.496 0 0 1 .36-.188c.437-.05.86-.078 1.265-.078 1.633 0 2.453.54 2.453 1.61 0 .355-.12.667-.359.937a1.65 1.65 0 0 1-.953.5v.031c.477.074.852.258 1.125.547.281.281.422.625.422 1.031ZM28.993 36.61c-1 0-1.805-.296-2.407-.89-.605-.594-.906-1.394-.906-2.406 0-1.008.297-1.813.89-2.406.595-.594 1.4-.89 2.423-.89.582 0 1.125.116 1.625.343a.485.485 0 0 1 .25.297.581.581 0 0 1-.016.39.367.367 0 0 1-.25.235.458.458 0 0 1-.36-.016 2.688 2.688 0 0 0-1.14-.25c-.656 0-1.183.211-1.578.625-.398.406-.594.965-.594 1.672 0 .7.203 1.258.61 1.672.406.418.925.625 1.562.625a2.63 2.63 0 0 0 1.14-.25.495.495 0 0 1 .36-.016.384.384 0 0 1 .25.235c.05.125.055.257.016.39a.475.475 0 0 1-.25.297c-.5.23-1.043.344-1.625.344Zm0 0" fill="#fff"/><path d="M36.907 31.72h-.86c-.261 0-.495-.078-.703-.234a1.065 1.065 0 0 1-.375-.625l-2.25-9.734a.665.665 0 0 1 .125-.594.678.678 0 0 1 .563-.281h.469c.258 0 .484.09.672.265.195.168.32.375.375.625l1.562 8.25c0 .012.004.016.016.016.008 0 .015-.004.015-.016l1.532-8.25c.05-.25.171-.457.359-.625a.999.999 0 0 1 .687-.265h.954c.257 0 .484.09.671.265.196.168.32.375.375.625l1.516 8.25c0 .012.004.016.016.016.008 0 .015-.004.015-.016l1.578-8.25c.051-.25.172-.457.36-.625a.999.999 0 0 1 .687-.265h.391c.227 0 .414.094.562.281a.66.66 0 0 1 .141.594l-2.25 9.734c-.055.25-.183.461-.39.625-.2.156-.434.235-.704.235h-.843c-.262 0-.493-.082-.688-.25a1.104 1.104 0 0 1-.36-.625l-1.577-8.266a.017.017 0 0 0-.016-.016c-.012 0-.016.008-.016.016l-1.562 8.266c-.055.25-.18.46-.375.625a.976.976 0 0 1-.672.25ZM51.558 24.955c-.625 0-1.117.23-1.468.687-.356.45-.532 1.118-.532 2 0 .875.176 1.543.532 2 .351.461.843.688 1.468.688.645 0 1.145-.227 1.5-.688.352-.457.532-1.125.532-2 0-.882-.18-1.55-.532-2-.355-.457-.855-.687-1.5-.687Zm2.97 5.781c-.731.762-1.72 1.14-2.97 1.14-1.242 0-2.226-.378-2.953-1.14-.73-.77-1.093-1.8-1.093-3.094 0-1.3.363-2.332 1.093-3.093.727-.77 1.711-1.157 2.953-1.157 1.25 0 2.239.387 2.97 1.157.737.761 1.109 1.793 1.109 3.093 0 1.293-.372 2.325-1.11 3.094ZM59.322 28.158v2.672c0 .242-.09.45-.265.625a.851.851 0 0 1-.625.266h-.297a.892.892 0 0 1-.64-.266.84.84 0 0 1-.266-.625v-6.375c0-.238.086-.445.265-.625a.878.878 0 0 1 .64-.281h.173a.79.79 0 0 1 .61.281c.175.18.269.387.28.625l.016.656c0 .012.004.016.016.016.007 0 .02-.004.03-.016a4.512 4.512 0 0 1 2.907-1.656.66.66 0 0 1 .578.203.815.815 0 0 1 0 1.172 1.017 1.017 0 0 1-.594.297c-.917.137-1.62.469-2.109 1-.48.523-.719 1.2-.719 2.031ZM68.204 25.002c-.594 0-1.059.219-1.391.656-.324.438-.484 1.102-.484 1.984 0 .844.171 1.497.515 1.954.352.46.805.687 1.36.687a1.59 1.59 0 0 0 1.343-.672c.344-.445.516-1.078.516-1.89v-.157c0-.8-.172-1.425-.516-1.875-.336-.457-.78-.687-1.343-.687Zm-.579 6.875c-.968 0-1.757-.367-2.359-1.11-.605-.738-.906-1.78-.906-3.125 0-1.382.289-2.437.875-3.156.582-.726 1.379-1.094 2.39-1.094.977 0 1.774.399 2.391 1.188 0 .023.008.031.031.031.008 0 .016-.004.016-.015v-3.75c0-.25.086-.461.266-.641a.854.854 0 0 1 .625-.266h.265c.238 0 .446.09.625.266.176.18.266.39.266.64v9.985c0 .242-.09.45-.266.625a.851.851 0 0 1-.625.266h-.14a.894.894 0 0 1-.641-.25.942.942 0 0 1-.266-.641l-.015-.234a.017.017 0 0 0-.016-.016c-.023 0-.031.008-.031.016-.625.855-1.453 1.28-2.485 1.28ZM82.211 31.72h-.78c-.263 0-.497-.078-.704-.234a1.152 1.152 0 0 1-.39-.625l-1.672-6.437a.665.665 0 0 1 .125-.594.636.636 0 0 1 .546-.281h.391c.258 0 .484.09.672.265.195.168.32.375.375.625l1.062 5.532c0 .011.004.015.016.015.02 0 .031-.004.031-.015l1.078-5.532c.051-.25.172-.457.36-.625a.999.999 0 0 1 .687-.265h.782c.257 0 .484.09.671.265.196.168.32.375.375.625l1.079 5.532c0 .011.007.015.03.015.009 0 .016-.004.016-.015l1.063-5.532c.05-.25.172-.457.36-.625.195-.175.429-.265.702-.265h.313c.227 0 .41.093.547.281.133.18.176.375.125.594l-1.672 6.437c-.063.25-.2.461-.406.625-.2.156-.43.235-.688.235h-.781c-.262 0-.496-.082-.703-.25a1.065 1.065 0 0 1-.375-.625l-1.063-5.391a.017.017 0 0 0-.015-.016c-.012 0-.016.008-.016.016l-1.062 5.39c-.055.25-.184.462-.391.626-.2.168-.43.25-.688.25ZM95.852 27.814c-.836 0-1.469.141-1.906.422-.438.274-.657.633-.657 1.078 0 .336.098.602.297.797.196.188.469.281.813.281.593 0 1.093-.19 1.5-.578.414-.394.625-.882.625-1.468v-.391c0-.094-.043-.14-.125-.14Zm-1.969 4.063c-.762 0-1.371-.207-1.828-.625-.461-.426-.688-1.02-.688-1.781 0-.907.383-1.633 1.157-2.188.77-.55 1.879-.828 3.328-.828h.547c.082 0 .125-.04.125-.125-.012-.52-.125-.883-.344-1.094-.219-.207-.61-.312-1.172-.312-.73 0-1.453.133-2.172.39a.7.7 0 0 1-.547-.03.596.596 0 0 1-.328-.423.917.917 0 0 1 .094-.625.892.892 0 0 1 .484-.422 7.711 7.711 0 0 1 2.516-.422c1.25 0 2.145.247 2.687.735.551.492.829 1.277.829 2.36v3.03c0 .438.03.875.093 1.313a.775.775 0 0 1-.187.625.695.695 0 0 1-.563.266h-.156c-.262 0-.492-.082-.687-.25a.872.872 0 0 1-.329-.625 1.986 1.986 0 0 1-.015-.297c0-.02-.008-.032-.016-.032-.023 0-.031.008-.031.016a2.982 2.982 0 0 1-1.188.984c-.5.239-1.039.36-1.609.36ZM102.755 28.158v2.672c0 .242-.09.45-.266.625a.851.851 0 0 1-.625.266h-.296a.892.892 0 0 1-.641-.266.84.84 0 0 1-.266-.625v-6.375c0-.238.086-.445.266-.625a.878.878 0 0 1 .64-.281h.172a.79.79 0 0 1 .61.281c.176.18.27.387.281.625l.016.656c0 .012.004.016.015.016.008 0 .02-.004.032-.016a4.512 4.512 0 0 1 2.906-1.656.66.66 0 0 1 .578.203.815.815 0 0 1 0 1.172 1.017 1.017 0 0 1-.594.297c-.918.137-1.62.469-2.11 1-.48.523-.718 1.2-.718 2.031ZM110.277 27.064v3.766c0 .242-.09.45-.266.625a.8.8 0 0 1-.61.266h-.233a.892.892 0 0 1-.641-.266.84.84 0 0 1-.266-.625v-6.375c0-.238.086-.445.266-.625a.878.878 0 0 1 .64-.281h.094c.25 0 .461.09.64.265.177.18.27.391.282.641l.016.187c0 .012.004.016.015.016.02 0 .032-.004.032-.016.601-.832 1.297-1.25 2.078-1.25.5 0 .914.106 1.25.313.332.21.617.547.86 1.016 0 .011.007.015.03.015.008 0 .02-.004.032-.015.687-.883 1.484-1.329 2.39-1.329.883 0 1.524.247 1.922.735.406.492.61 1.308.61 2.453v4.25c0 .242-.09.45-.266.625a.851.851 0 0 1-.625.266h-.188a.861.861 0 0 1-.64-.266.84.84 0 0 1-.266-.625v-3.766c0-.82-.09-1.375-.265-1.656-.168-.281-.47-.422-.907-.422-.375 0-.71.2-1 .594-.281.398-.422.89-.422 1.484v3.766c0 .242-.09.45-.265.625a.851.851 0 0 1-.625.266h-.188a.84.84 0 0 1-.625-.266.84.84 0 0 1-.265-.625v-3.766c0-.82-.09-1.375-.266-1.656-.168-.281-.477-.422-.922-.422-.375 0-.703.2-.984.594-.281.398-.422.89-.422 1.484ZM123.998 31.877c-.886 0-1.543-.25-1.968-.75-.418-.508-.625-1.344-.625-2.5v-4.172c0-.238.085-.445.265-.625a.847.847 0 0 1 .64-.281h.22c.238 0 .445.093.625.281.175.18.265.387.265.625v3.969c0 .699.094 1.18.281 1.437.196.262.532.39 1 .39.47 0 .891-.234 1.266-.702a2.52 2.52 0 0 0 .578-1.64v-3.454c0-.238.082-.445.25-.625a.827.827 0 0 1 .625-.281h.266c.238 0 .445.093.625.281.187.18.281.387.281.625v6.375c0 .242-.094.45-.281.625a.851.851 0 0 1-.625.266h-.125a.907.907 0 0 1-.922-.89l-.016-.235a.017.017 0 0 0-.015-.016c-.024 0-.032.008-.032.016-.312.398-.699.71-1.156.937a3.19 3.19 0 0 1-1.422.344Zm0 0"/><g clip-path="url(#q)"><path d="M132.778 27.564v.157c0 .812.164 1.445.5 1.89.344.45.79.672 1.344.672.562 0 1.016-.226 1.36-.687.35-.457.53-1.11.53-1.954 0-.882-.167-1.546-.5-1.984-.324-.437-.78-.656-1.374-.656-.563 0-1.016.23-1.36.687-.336.45-.5 1.075-.5 1.875Zm0 3.188v3.531c0 .238-.09.445-.265.625a.867.867 0 0 1-.625.266h-.25a.909.909 0 0 1-.641-.266.851.851 0 0 1-.266-.625v-9.828c0-.238.086-.445.266-.625a.878.878 0 0 1 .64-.281h.126c.25 0 .46.09.64.265.176.18.27.391.281.641v.234c0 .012.004.016.016.016.02 0 .031-.004.031-.016.633-.863 1.457-1.297 2.47-1.297 1.019 0 1.82.368 2.405 1.094.582.719.875 1.774.875 3.156 0 1.344-.304 2.387-.906 3.125-.605.743-1.39 1.11-2.36 1.11-1 0-1.796-.375-2.39-1.125 0-.008-.012-.016-.031-.016-.012 0-.016.008-.016.016Zm0 0"/></g></svg>