<svg xmlns="http://www.w3.org/2000/svg" width="186" viewBox="0 0 139.5 52.5" height="70" version="1.0"><defs><clipPath id="a"><path d="M.41 0h138.184v52.004H.41Zm0 0"/></clipPath><clipPath id="b"><path d="M18 .938h2V2h-2Zm0 0"/></clipPath><clipPath id="c"><path d="M.41 15H1v1H.41Zm0 0"/></clipPath><clipPath id="d"><path d="M.41 14H2v2H.41Zm0 0"/></clipPath><clipPath id="e"><path d="M1 1h40.484v41H1Zm0 0"/></clipPath><clipPath id="f"><path d="M8.219 11.16h20.535v15.402H8.219Zm0 0"/></clipPath><clipPath id="g"><path d="M52 19.906h5.484V28H52Zm0 0"/></clipPath><clipPath id="h"><path d="M38.39 43H48v7.71h-9.61Zm0 0"/></clipPath><clipPath id="i"><path d="M131 25h7.594v12H131Zm0 0"/></clipPath></defs><g clip-path="url(#a)" fill="#fff"><path d="M.41 0h138.68v58.902H.41Zm0 0"/><path d="M.41 0h138.68v52.191H.41Zm0 0"/><path d="M.41 0h138.68v52.191H.41Zm0 0"/></g><path fill="#c8a2c8" d="M16.375 1.5a.898.898 0 0 0-.027-.164c-.082.09-.055.137.027.164ZM23.469 1.316h.343a.388.388 0 0 0 .067.012h.016c0-.023-.665-.215-.684-.016h.02c.062 0 .148 0 .238.004ZM20.14 1.453a1.094 1.094 0 0 0-.257-.074c.074.023.16.047.258.074ZM22.063 1.664a3.604 3.604 0 0 0-.418-.09 3.846 3.846 0 0 0-.375-.027c-.125.004-.258.02-.387.039 0 0 0 .004.004.012.183.023.37.047.562.058.207.016.41.02.613.008Zm0 0"/><g clip-path="url(#b)"><path fill="#c8a2c8" d="M19.281 1.488c.153-.031.258-.054.258-.054s-.094-.125-.184-.25l-.187-.246c-.766.011-.672.218-.594.433.04.11.074.219.004.305.047-.012.094-.024.14-.04.204-.05.41-.105.563-.148Zm0 0"/></g><path fill="#c8a2c8" d="M18.574 1.68s0-.004.004-.004c-.156.043-.3.082-.414.12-.152.052-.25.083-.25.083.2-.02.348-.05.453-.086.106-.031.172-.07.207-.113ZM31.492 39.797a2.089 2.089 0 0 1-.187.207.969.969 0 0 0 .226-.098ZM31.387 39.512l.105.285c.09-.14.098-.246-.105-.285ZM28.777 40.805c-.21.21-.433.406-.433.406.191-.04.511-.133.73-.273.219-.141.332-.325.117-.551 0 0-.207.207-.414.418ZM35.203 33.668l-.191-.129c.011.082.058.137.191.129ZM3.063 13.637a.51.51 0 0 0-.075-.133l.075.133ZM21.125 41.313l-.023-.032c0 .012.007.024.023.032ZM31.996 5.234l.09-.09a.182.182 0 0 0-.09.09ZM40.39 26.426c-.011 0-.023 0-.035.004 0 .015 0 .035-.003.05.015-.015.027-.035.039-.054ZM40.14 28.152c.087-.504.176-1.117.212-1.64v-.032c-.18.27-.258.493-.266.743-.008.261.035.55.055.93ZM38.613 32.277c.04.035.086.067.137.098-.004-.121-.059-.133-.137-.098ZM37.46 32.094s.142-.196.278-.399l.258-.41c.168.235.063.516-.062.766s-.243.484-.075.66c.207.062.559-.344.754-.434-.34-.273-.242-.547-.175-.77.074-.25.093-.425-.598-.452a2.006 2.006 0 0 0-.09.183c-.102.227-.191.5-.29.856ZM38.547 29.14a3.73 3.73 0 0 1-.184.887 3.829 3.829 0 0 1-.203.438.68.68 0 0 1 .242-.067c.215-.03.461-.066.633-.718l-.242-.27c-.125-.133-.246-.27-.246-.27ZM37.82 31.05c.008 0 .012 0 .02.005.078-.149.156-.282.226-.414l.094-.176a.265.265 0 0 0-.07.05c-.098.083-.176.243-.27.536ZM35.117 35.68c.086-.09.172-.192.246-.301h-.008c-.148.11-.296.226-.44.355a4.444 4.444 0 0 0-.438.418 3.88 3.88 0 0 0 .355-.226c.098-.074.195-.156.285-.246ZM35.984 34.957c.078-.031.16-.078.235-.129-.067.035-.149.078-.235.129Zm0 0"/><path fill="#c8a2c8" d="M35.605 35.012c-.167-.032-.242-.16-.148-.43 0 0 .184-.008.371-.012l.379-.015s0-.09-.004-.23c0-.138-.012-.321-.023-.509-.028-.367-.063-.722-.063-.722a1.07 1.07 0 0 1-.215.66c-.125.184-.304.324-.445.46-.281.274-.477.493-.094.9 0 0-.148.027-.297.058-.144.031-.293.058-.293.058l.297.079c.125.03.25.058.285.07.223-.168.442-.313.63-.422a.68.68 0 0 1-.38.055ZM33.73 37.387c-.125.12-.246.242-.246.242-.027.02-.047.031-.054.039a64.74 64.74 0 0 0-.012.012c.016.015.625-.317.492-.473-.004.008-.008.012-.012.016-.046.043-.105.105-.168.164ZM37.258 33.09c-.13.156-.211.281-.262.379a.453.453 0 0 0-.066.226v.004a6.89 6.89 0 0 0 .207-.375c.07-.14.12-.234.12-.234ZM37.148 33.914c-.105-.047-.207-.102-.218-.215a54.874 54.874 0 0 0-.363.625c-.087.133-.141.223-.141.223l.304.047c.153.023.31.043.31.043.534-.547.32-.63.108-.723Zm0 0"/><g clip-path="url(#c)" fill="#c8a2c8"><path d="M.645 15.809a1.443 1.443 0 0 1-.02-.278c-.04.074-.07.149-.09.227ZM.922 15.938l-.277-.13c.03.165.105.243.277.13Zm0 0"/></g><g clip-path="url(#d)"><path fill="#c8a2c8" d="M1.516 14.695c.265-.203.37-.379-.036-.695l-.25.434c-.062.105-.12.214-.167.296l-.079.137c-.379-.195-.566-.293-.238-.836-.223.059-.258.672-.3 1l.132-.195c.059.176.047.457.047.695.21-.398.621-.636.89-.836Zm0 0"/></g><path fill="#c8a2c8" d="M1.848 13.777s0-.293-.004-.586c-.004-.296.015-.59.015-.59-.109.16-.265.454-.32.704-.055.254-.004.46.309.472ZM2.98 12.922c.11-.164.223-.313.22-.5-.274.168-.266.062-.188-.125.082-.184.234-.45.23-.594-.945.73-.027.602-.262 1.219ZM2.98 12.922a.999.999 0 0 0-.125.25c.063-.098.098-.176.125-.25ZM6.89 7.46l.04.009c-.008-.012-.02-.016-.04-.008Zm0 0"/><g clip-path="url(#e)"><path fill="#c8a2c8" d="M41.34 20.39a7.887 7.887 0 0 1-.254-.777c-.066-.265-.078-.527.039-.746l-.418.078c0-.027-.004-.054-.008-.086-.035-.492-.058-.804-.054-1.02a1.668 1.668 0 0 1 .03-.429c.02-.098.04-.187.044-.367.004-.09 0-.203-.012-.352a6.99 6.99 0 0 0-.082-.562s-.156-.094-.313-.184a1.919 1.919 0 0 1-.128-.07l-.082-.305c.003 0 .003-.004.007-.008-.02-.05-.039-.097-.054-.148a17.157 17.157 0 0 0-1.059-2.715 1.994 1.994 0 0 0-.328-.648s.004.011.008.031a16.25 16.25 0 0 0-.684-1.152.306.306 0 0 0 .074-.082 3.429 3.429 0 0 0-.546-.614 17.64 17.64 0 0 0-5.528-4.996l.004-.004c-.004 0-.004.004-.004.004a13.97 13.97 0 0 0-.531-.289c.066-.074.14-.148.21-.222.376-.383.763-.793.005-1.114.289.352.152.66-.102.844-.262.184-.625.23-.863.059.004.015.004.035.004.058-.106-.05-.211-.097-.317-.144.25-.086.297-.242.207-.407-.097-.171-.347-.351-.64-.406.117.055.219.121.293.196a.703.703 0 0 1 .156.234c.055.14.035.273-.047.367-.156-.07-.316-.137-.476-.203-.036-.024-.07-.047-.106-.074a.56.56 0 0 0 .172-.117c.176-.293-.121-.618-.55-.93-.216-.149-.458-.305-.684-.453-.23-.14-.438-.282-.582-.43-.305-.039-.473.012-.594.098-.117.09-.195.222-.324.39-.032-.199-.188-.367-.352-.523-.164-.152-.336-.309-.379-.508-.34.07-.62.07-.879.031-.258-.043-.492-.136-.73-.203-.238-.074-.477-.152-.738-.172-.082-.004-.165 0-.25.008h-.016a1.952 1.952 0 0 0-.598.152c-.054-.074-.074-.125-.07-.167-.055.003-.09.003-.09.003l.074.082c-.234.137-.515.211-.812.243-.106.011-.211.02-.32.023.093.027.187.059.277.094.066.027.125.058.187.086-.172.015-.386.043-.605.07-.305.031-.606.078-.781.106-.028-.047-.067-.11-.102-.172-.066-.114-.133-.22-.152-.25a7.71 7.71 0 0 1-.746-.145.66.66 0 0 1 .308.223.233.233 0 0 1 .035.199c-.047 0-.093.004-.14.008-.102.004-.2.008-.301.015-.02-.023-.043-.043-.066-.066-.141-.125-.278-.254-.278-.254l-.164.168c-.05.05-.105.11-.168.18-.34.012-.68.031-1.008.047-.425.027-.84.07-1.218.136-.32.067-.614.145-.875.246a1.19 1.19 0 0 1 .425-.218c.27-.09.52-.168.524-.414-.102-.192-.637-.149-.84-.223.047.434-.223.559-.426.668-.207.113-.344.215-.015.61-.024.07-.02.124.03.156-.128.039-.25.07-.37.109l-.192.059c.028.003.055.011.086.011.121.012.274-.039.516-.16.082.027.23.02.492-.039-.308.3-.71.406-1.148.41-.168.012-.34.008-.508 0 .035-.02.074-.043.11-.058.16-.07.308-.121.452-.164a.814.814 0 0 1-.218-.125c-.172-.13-.371-.278-.957.062l-.016.262c-.055-.004-.113-.004-.168-.004 0 0 .031-.047.07-.117.043-.07.102-.164.16-.254l.243-.367c-1.063.359-2.282.605-3.438 1.02-1.152.405-2.238.968-2.926 1.776l.551.16c-.09.075-.183.15-.277.223-.094.074-.184.149-.278.219-.187.14-.375.273-.566.398-.371.266-.746.504-1.086.743-.336.246-.66.472-.91.715-.254.238-.457.476-.578.718.742-.222.64.028.355.375-.07.086-.148.184-.23.281a.76.76 0 0 1-.086.032l.035.027c-.234.274-.48.555-.508.711.133-.11.27-.227.406-.355.086-.079.168-.168.25-.258l.168.113c-.363.414-.582.668-.746.824a1.68 1.68 0 0 1-.328.285c-.082.059-.16.102-.293.227a3.427 3.427 0 0 0-.242.258c-.094.117-.207.265-.344.457l.094.347.066.239c.02.066.036.11.036.11.035.058.082-.364.191-.77.106-.41.313-.786.582-.63-.02.153-.05.305-.086.462-.035.156-.074.316-.117.476-.043.16-.09.32-.137.485-.047.164-.086.332-.129.5-.043.168-.082.335-.12.503a5.7 5.7 0 0 0-.079.508c-.02.168-.031.336-.035.5-.004.168.012.332.035.492 0 0-.203-.296-.394-.601-.11-.188-.22-.371-.29-.492.09.238-.113.449-.363.734a4.534 4.534 0 0 0-.476.586c-.141.227-.254.496-.297.809 0 0 .144-.243.293-.485.074-.12.144-.238.207-.328l.097-.144c.168.273.227.593.204.933a7.803 7.803 0 0 1-.184 1.11l-.07.293a6.86 6.86 0 0 1-.055.3 8.356 8.356 0 0 0-.086.606c-.035.402-.008.793.11 1.144.03-.375.066-.746.37-.78a.826.826 0 0 1 .063.116c-.004.14.008.164.04.149.022.148.01.324-.02.511-.051.317-.141.657-.239.91a.63.63 0 0 1-.113-.035c-.04-.25-.02-.496.152-.836 0 0-.152.028-.3.051-.153.028-.305.051-.305.051.004.059.012.117.015.172-.113-.317-.132-.719-.16-1.102-.035-.765 0-1.472-.449-1.363a3.306 3.306 0 0 0-.012 1.191c.075.387.188.754.309 1.09.129.34.254.653.332.942.082.285.125.55.063.793 0 0-.165-.192-.325-.387-.082-.098-.16-.2-.222-.273l-.098-.125.031.12c.024.075.051.172.078.27l.11.387.039-.23c.258.16.246.406.207.69-.04.286-.113.614-.008.915l-.332-.176c-.164-.094-.332-.183-.332-.183l.012.183c.007.11.011.258.03.406.036.293.067.586.067.586l.153-.172c.511 1.84.816 3.403 1.062 5.157 0 0-.004-.067-.015-.164-.012-.098-.032-.227-.04-.356-.015-.262-.035-.523-.035-.523.149.043.348.547.442 1.008.156-.137.082-.477.047-.797-.036-.266-.067-.504.027-.582.082.46.184.921.3 1.375.009.109.012.214.016.32a8.257 8.257 0 0 0 .118 1.242c.035.164.082.348.14.547.11.016.192-.168.293-.344.117.301.242.598.375.895-.101.07-.258.066-.531-.09.46.41.473.652.504.86.031.202.086.37.605.585-.09-.078-.152-.238-.218-.398a.322.322 0 0 1 .05-.098c.219.422.453.836.711 1.242.004.348.074.696.364 1.145l.222.191c.137.117.324.258.508.403.14.113.285.222.41.312.094.113.192.227.293.336-.05.04-.113.05-.113.05.176.138.34.286.508.434.168.145.336.293.496.446.027.027.054.05.082.074l.117.113c.012.082.066.164.184.227a.73.73 0 0 0 .132.058l.012.012c.149.137.297.266.441.399.325.277.649.539.965.757.114.078.227.145.34.211.457.313.926.602 1.402.867v.012c.04.02.083.035.122.055.203.11.406.215.613.32-.164.031-.305.063-.305.063 1.008.488 2.047 1.172 3.156 1.691 1.106.52 2.274.883 3.336.797l-.277-.5c.121.008.238.023.355.039.118.012.239.023.352.04.234.03.461.07.688.112.449.07.886.168 1.296.239.41.058.801.129 1.153.132.347.008.664-.015.922-.101-.684-.363-.434-.469.011-.516.453-.062 1.121-.058 1.309-.187a5.858 5.858 0 0 0-1.11-.02c-.382.032-.769.055-1.117.102-.601.058-1.082.105-1.191.054l.043.06s-.156.015-.395.023c-.238.011-.554.027-.87.035-.321 0-.641 0-.883-.004-.118 0-.22-.004-.29-.008-.07-.004-.109-.004-.109-.004l.078-.309c2.078.196 4.18.028 6.207-.511v.008-.008c.196-.051.39-.106.582-.164.008.097.008.199.008.304.008.532.027 1.094.793.79-.457-.047-.582-.364-.527-.669.05-.312.277-.601.566-.648-.012-.008-.027-.023-.043-.039.11-.04.219-.078.324-.117-.117.234-.035.379.145.43.148.039.367.019.57-.07.242.066.164.132-.012.202-.187.075-.48.157-.585.258 1.027.129.617-.266.875-.55.18.03.414.015.664-.02.257-.047.539-.11.804-.16.22-.051.43-.09.61-.102-.07.074-.098.211-.067.45l.48-.134c.122-.035.243-.066.333-.093.09-.024.152-.043.152-.043.129.406.192.605-.426.761.2.114.66-.296.926-.496l-.234.043c.082-.164.293-.355.46-.523-.429.133-.89.016-1.222-.035-.074-.008-.14-.016-.2-.012.173-.152.235-.285.259-.406.02-.149-.024-.297-.047-.504.16.117.394.125.62.121.224-.008.454-.016.63.094.191-.285.386-.489.601-.64.211-.15.442-.25.66-.368.22-.113.446-.227.645-.399a2.398 2.398 0 0 0 .18-.187c.117-.145.226-.316.312-.527.09.011.145.035.168.066.04-.039.063-.066.063-.066l-.11-.004c.067-.262.211-.512.403-.742.066-.083.136-.165.21-.243-.09.047-.175.094-.265.13-.445.175-.89.28-1.332.327-.27.036-.52.063-.758.09.211-.187.414-.379.617-.578l.239.164c.191-.215.355-.437.5-.668.14-.226.257-.465.378-.707.387-.46.747-.937 1.079-1.426l.078.055c-.008-.059.105-.207.289-.441.094-.114.207-.246.34-.395l.418-.504.011-.02a17.324 17.324 0 0 0 3.16-4.726l.02-.012c.09-.062.176-.128.234-.113.059.012.086.11.024.363.008.149.094-.23.101-.668a2.959 2.959 0 0 0-.007-.457c.054-.132.101-.27.152-.402.086.184.262.285.601.262.02-.492-.003-.895-.136-1.047l.12.09s-.07-.235-.194-.547c.078-.281.148-.563.21-.848.145.258.32.414.575.281 0 0-.11-.226-.215-.453a5.378 5.378 0 0 0-.16-.308 4.705 4.705 0 0 0-.075-.137c.516.309.375-.871.762-.652 0 0-.004-.04-.02-.106-.015-.066-.035-.164-.058-.277-.055-.23-.11-.54-.191-.84-.078-.289-.153-.574-.215-.793.004-.144.004-.293.004-.437l.363-.098-.082.308-.055.215-.027.094c.3.14.437.14.48.043.043-.098-.015-.289-.101-.523ZM5.645 13.063c.054-.167.109-.328.152-.488.008-.035.016-.07.023-.11.14-.093.274-.05.38.278 0 0-.208.188-.41.375l-.294.293c.055-.117.106-.234.149-.348Zm.285-1.078c.027-.113.054-.226.082-.336.023-.085.047-.164.07-.246.043.274-.027.45-.152.582Zm.965.243a.508.508 0 0 1 .277.05c-.098.114-.2.227-.297.344 0-.07.004-.144.008-.215l.012-.18ZM4.453 16.16a3.93 3.93 0 0 0 .012-.683c-.008-.309-.035-.63-.047-.918v-.106a1.16 1.16 0 0 1 .137-.234.573.573 0 0 0-.133.058c.008-.168.027-.316.066-.425.032.097.172-.098.34-.313.164.059.336-.176.508-.453.07.012.11.125.094.39l-.04.04c.016 0 .024-.004.036-.004 0 .015 0 .031-.004.047.012-.016.016-.032.023-.047a.907.907 0 0 0 .621-.258c.153-.145.247-.336.336-.52.082-.16.16-.312.27-.406l-.012.031c-.05.145-.094.297-.14.45l-.122.406a7.768 7.768 0 0 0-.214.285.172.172 0 0 1-.055.012c0 .02.004.035.008.05a17.156 17.156 0 0 0-1.602 2.672.502.502 0 0 1-.082-.074Zm35.953.293c.203.34.32.719.09.832-.062-.351-.137-.7-.219-1.039.043.067.086.133.13.207ZM29.773 4.164l-.035-.012c.008 0 .012-.004.016-.004.008.004.012.012.02.016Zm-.437-.36c-.02-.015-.043-.03-.063-.046 0 0 .028.02.067.054.015.02.027.04.043.063.043.066.09.137.14.191a29.441 29.441 0 0 0-.625-.226c.2-.285.325-.195.438-.035Zm-8.258-1.773c-.055.008-.086.016-.086.016a.126.126 0 0 1-.023-.09l.11.074Zm-.387-.254.114.075-.117.011c0-.027.003-.054.003-.086Zm-9.414 2.38a2.52 2.52 0 0 0-.113.097.091.091 0 0 0-.027-.027c.05-.032.097-.051.14-.07Zm-1.117.847.336-.094c-.101.133-.164.246-.172.34l-.02-.145s-.124.223-.261.547c-.14.32-.277.762-.336 1.157.094-.258.277-.497.488-.72.215-.21.453-.405.645-.593.305-.273.504-.539.348-.832.117-.086.148-.195.039-.34.183-.054.324-.133.453-.238.199.02.36.113.465.238-.067.055-.141.121-.215.192-.328.289-.633.675-.563.832.153-.032.29-.282.469-.453.172-.176.367-.297.582-.086.473-.262.289-.293.07-.332l.047-.036.57-.355a9.41 9.41 0 0 1 .582-.348l.27-.148c.285.176.086.898-.133.922-.18.05-.367.156-.566.273-.2.117-.41.238-.621.356-.422.234-.867.39-1.328.265-.192.301.015.395.12.5.11.11.118.223-.417.59-.774.117-1.496.465-2.16.89.027-.245.171-.57.293-.89.19-.457.347-.894-.051-1.02l-.172.473-.047.137c-.2-.563.566-.883 1.285-1.082Zm-1.863.898a6.224 6.224 0 0 1 .297-.27l.277.47c-.023.062-.039.125-.055.175l-.046.149c-.137-.551-.817.265-.98-.024.187-.183.366-.359.507-.5ZM6.82 7.45s.102-.12.262-.293c.148-.16.34-.375.543-.59-.023.036-.047.075-.074.114-.125.199-.309.457-.461.726-.16.274-.32.54-.43.742l-.183.344-.352-.199.172-.207c.004-.004.008-.008.016-.008.066-.043.136-.082.19-.113l.087-.047a1.324 1.324 0 0 0-.047-.121c.16-.188.285-.317.348-.336ZM3.426 16.9c.316-.958.234.347.61-.012a.668.668 0 0 0 .21-.176c.004.043.008.09.008.137-.133.304-.258.613-.371.925-.117.051-.223.008-.301-.105a.87.87 0 0 1-.133-.32 1.827 1.827 0 0 1-.023-.45Zm12.148 23.628c.082.02.16.043.242.067v.027a1.16 1.16 0 0 1-.242-.094Zm1.848.414c.383.063.765.114 1.152.153-.27.18-.71.058-1.152-.153Zm9.875-.566c-.05.008-.102.012-.149.016a.744.744 0 0 1-.277-.059c-.137-.062-.219-.172-.23-.293.214-.082.422-.164.632-.254a.462.462 0 0 0-.058.246.354.354 0 0 0 .23.25.594.594 0 0 0-.148.094Zm.426-.645c-.078-.015-.16-.035-.235-.039.203-.09.403-.18.602-.277.07.387-.137.367-.367.316Zm0 0"/></g><path fill="#c8a2c8" d="M24.906 40.602v.128a.182.182 0 0 0 0-.128Zm0 0"/><g clip-path="url(#f)"><path fill="#fff" d="M26.3 11.16H10.677c-.324 0-.637.05-.934.156-.3.102-.562.246-.793.438-.23.191-.406.41-.531.656-.121.25-.184.508-.184.777v8.106c0 .27.063.527.184.777.125.246.3.465.531.657.23.187.492.335.793.437.297.106.61.156.934.156h4.636l2.786 3.078a.418.418 0 0 0 .172.122.575.575 0 0 0 .437 0 .445.445 0 0 0 .172-.122l2.781-3.078h4.64c.325 0 .634-.05.934-.156.297-.102.563-.25.793-.437.227-.192.403-.41.528-.657.125-.25.187-.508.187-.777v-8.105c0-.27-.062-.528-.187-.778a2.103 2.103 0 0 0-.528-.656 2.49 2.49 0 0 0-.793-.438c-.3-.105-.609-.156-.933-.156Zm1.466 10.133c0 .16-.04.316-.114.465-.074.148-.18.281-.316.394a1.532 1.532 0 0 1-.477.266c-.18.059-.367.09-.558.09h-4.883a.496.496 0 0 0-.39.164l-2.54 2.808-2.539-2.808a.502.502 0 0 0-.39-.164h-4.883c-.196 0-.383-.031-.563-.09a1.512 1.512 0 0 1-.472-.266 1.181 1.181 0 0 1-.32-.394 1.028 1.028 0 0 1-.11-.465v-8.105c0-.16.035-.317.11-.465.074-.149.179-.282.32-.395.136-.113.293-.203.472-.265.18-.063.367-.09.563-.09H26.3c.191 0 .379.027.558.09.18.062.34.152.477.265.137.113.242.246.316.395.075.148.114.304.114.464Zm-6.836-5.676c-.004.688-.336 1.23-1 1.637-.602.332-.918.797-.953 1.394v.215c0 .11-.047.207-.145.285a.524.524 0 0 1-.344.118.535.535 0 0 1-.347-.118.362.362 0 0 1-.141-.285v-.215c.012-.41.14-.796.379-1.16.238-.36.562-.656.973-.886a1.33 1.33 0 0 0 .27-.215c.081-.078.148-.168.198-.262.051-.094.09-.191.11-.297a1.02 1.02 0 0 0 .02-.308 1.178 1.178 0 0 0-.079-.301 1.195 1.195 0 0 0-.168-.278 1.406 1.406 0 0 0-.55-.406 1.823 1.823 0 0 0-.352-.105 1.634 1.634 0 0 0-.738.027c-.122.027-.235.07-.34.125a1.418 1.418 0 0 0-.516.441 1.22 1.22 0 0 0-.137.29 1.031 1.031 0 0 0-.047.304c0 .113-.05.211-.144.29a.524.524 0 0 1-.344.116.535.535 0 0 1-.348-.117.364.364 0 0 1-.14-.289c0-.265.062-.527.183-.773.125-.25.301-.469.532-.656.226-.192.492-.34.793-.442a2.87 2.87 0 0 1 .933-.152c.325 0 .633.05.934.152.297.102.562.25.793.441.226.188.402.407.527.657.125.246.188.508.188.773Zm-1.953 5.27a.362.362 0 0 1-.145.289.524.524 0 0 1-.344.117.535.535 0 0 1-.347-.117.362.362 0 0 1 0-.574.535.535 0 0 1 .347-.118c.133 0 .25.04.344.118a.355.355 0 0 1 .145.285Zm0 0"/></g><g clip-path="url(#g)"><path fill="#c8a2c8" d="M58.797 19.96a.677.677 0 0 0-.25-.046 2.467 2.467 0 0 0-.34.004 4.35 4.35 0 0 0-.7.172c-.644.207-1.265.484-1.882.77-.758.359-1.508.745-2.242 1.156-.184.101-.367.199-.547.312.629-.297 1.258-.59 1.89-.875a46.72 46.72 0 0 1 1.579-.676c.52-.207 1.047-.41 1.59-.547.203-.046.41-.09.617-.07-.328.188-.664.375-.957.625-.399.332-.739.774-.875 1.297-.453 1.758-.89 3.52-1.297 5.29-.043.183-.082.362-.121.542.511-1.672.988-3.36 1.449-5.047.066-.25.133-.496.203-.746.129-.433.41-.8.742-1.086.25-.215.528-.394.813-.555.11-.062.218-.12.32-.195.055-.039.11-.098.11-.172a.172.172 0 0 0-.102-.152Zm0 0"/></g><path fill="#c8a2c8" d="M54.762 21.832c.015-.012.015-.027.004-.047a45.532 45.532 0 0 0-3.043 2.313 26.99 26.99 0 0 0-1.278 1.132c-.43.407-.843.832-1.222 1.293-.18.223-.352.454-.504.7-.133.226-.262.457-.403.675-.437.684-.941 1.317-1.398 1.985a11.25 11.25 0 0 0-.93 1.601 8.1 8.1 0 0 0-.754 3.254h.032a10.06 10.06 0 0 1 .515-2.113 9.828 9.828 0 0 1 .871-1.773c.63-1.024 1.383-1.957 1.989-3 .105-.184.203-.375.312-.559.324-.527.727-.996 1.14-1.441.434-.461.887-.895 1.356-1.317a45.64 45.64 0 0 1 3.313-2.703ZM51.805 26.871c-.047-.035-.094-.066-.137-.101a181.784 181.784 0 0 0-3.238 5.109 89.035 89.035 0 0 0-1.86 3.183c-.297.543-.59 1.09-.855 1.649-.29.625-.555 1.262-.809 1.906-.476 1.215-.914 2.446-1.355 3.676-.02.059-.004.133-.043.184-.059.066-.07.152-.106.23-.097.273-.195.55-.297.824-.207-.008-.414-.011-.62-.035.14-.32.269-.644.41-.965.027-.05.02-.11.042-.16.02-.039.051-.059.07-.098.423-.968.856-1.937 1.294-2.902.105-.226.203-.457.324-.68 1.148-2.257 2.3-4.511 3.45-6.77-.052-.026-.098-.054-.15-.081l-3.562 6.996c-.41.89-.812 1.789-1.21 2.684-.126.285-.247.57-.372.851a7.833 7.833 0 0 0-1.203.14 3.185 3.185 0 0 0-.754.235.547.547 0 0 0-.246.215c.086-.137.234-.203.375-.254.274-.102.563-.152.848-.195.316-.04.636-.07.953-.075-.152.348-.297.696-.441 1.043a5.82 5.82 0 0 1-1.126-.207 1.557 1.557 0 0 1-.37-.156c-.044-.031-.09-.058-.106-.113a1.741 1.741 0 0 0-.133.016v-.083c0 .028-.004.055-.004.083-.047.003-.097.007-.148.015a.37.37 0 0 0 .133.254c.117.106.261.164.406.215.402.133.828.187 1.246.226-.113.293-.238.586-.316.891a4.97 4.97 0 0 0-.063.586c.004.105.012.23.09.309.074.074.187.062.277.027.106-.043.215-.094.281-.191.098-.13.168-.278.239-.426.176-.38.328-.766.472-1.16.696-.02 1.395-.067 2.067-.254.164-.051.328-.106.476-.2.082-.054.168-.124.196-.226.027-.098-.016-.195-.082-.262a1.13 1.13 0 0 0-.399-.215c-.363-.12-.742-.172-1.12-.214a11.027 11.027 0 0 0-.622-.036c.477-1.332.95-2.664 1.473-3.976a30.26 30.26 0 0 1 .742-1.715c.285-.586.594-1.164.91-1.73a99.17 99.17 0 0 1 2.078-3.524 189.919 189.919 0 0 1 2.895-4.543m-7.2 15.676c.293.047.586.105.864.219.11.047.222.097.3.191a.1.1 0 0 1 0 .121.537.537 0 0 1-.214.145 2.524 2.524 0 0 1-.547.168c-.348.07-.703.109-1.055.125l-.012.007c-.218.004-.441.016-.66.008.133-.36.262-.718.395-1.082.312.016.62.047.93.098m-1.59 1.219c-.168.437-.332.879-.547 1.293-.063.105-.121.23-.235.277-.062.027-.132.078-.203.05-.047-.085-.031-.187-.031-.28.012-.118.023-.235.04-.352.01-.113.05-.219.085-.324.074-.211.156-.418.238-.625.008-.024.012-.051.032-.063.207.016.414.02.62.024ZM55.191 27.824c-.03 0-.066 0-.097.008-.672.148-1.336.348-1.973.625-.266.121-.535.25-.758.445-.086.078-.183.184-.16.313.027.117.145.172.246.195.258.055.528.04.79.02a10.891 10.891 0 0 0 1.66-.27c-.669.027-1.333.098-2 .086-.165-.016-.337-.008-.489-.078.09-.117.215-.2.336-.277.223-.133.453-.246.684-.352.535-.242 1.082-.453 1.629-.672a.754.754 0 0 1 .132-.043Zm0 0"/><path fill="#c8a2c8" d="M54.645 29.414c-.387.914-.68 1.871-1.032 2.8-.105.263-.207.528-.355.766-.02.043-.067.032-.102.043a7.046 7.046 0 0 0-1.476.465c-.2.094-.399.196-.563.348-.062.062-.129.144-.117.242.004.09.082.152.156.18.157.054.32.058.48.054a6.503 6.503 0 0 0 1.134-.136c-.204.27-.403.539-.618.8-.414.508-.851.997-1.324 1.446a8.86 8.86 0 0 1-.781.652 7.418 7.418 0 0 1-.86.524c-.59.316-1.203.574-1.824.812a29.17 29.17 0 0 1-1.386.488c-.079.024-.157.055-.243.07.082.009.16-.019.243-.03a12.94 12.94 0 0 0 2.082-.57 10.287 10.287 0 0 0 1.695-.794 6.723 6.723 0 0 0 1.473-1.234 11.15 11.15 0 0 0 1.558-2.168c.098-.02.192-.047.285-.067-.199-.007-.402.008-.601.012-.313.004-.625.016-.942-.004-.101-.011-.203-.02-.3-.054-.004-.016 0-.032.015-.04.13-.132.293-.218.45-.308.472-.242.964-.434 1.449-.64.047-.02.093-.028.136-.06.164-.156.301-.343.418-.546.29-.508.496-1.067.66-1.63.122-.413.22-.839.278-1.265.008-.054.015-.105.012-.156ZM44.121 31.91c-.074-.027-.14.05-.144.125-.04.453-.055.906-.063 1.36-.004.44-.004.878.02 1.316.023.406.058.809.136 1.207.043.191.082.39.196.555-.078-.18-.098-.38-.118-.578-.035-.418-.027-.844-.027-1.266.004-.293.012-.586.016-.879l.008-.012c0-.218.015-.441.023-.664.23.586.562 1.121.93 1.621.09.117.18.239.277.352-.34-.59-.676-1.192-.926-1.832a3.218 3.218 0 0 1-.226-.856c-.008-.113.004-.23 0-.343a.192.192 0 0 0-.102-.106Zm0 0"/><path fill="#c8a2c8" d="M43.52 34.422a.198.198 0 0 0-.098-.09c-.059-.02-.117.035-.133.09-.016.074-.02.148-.023.226l-.004.008a22.127 22.127 0 0 0-.028 2.387c.02.418.051.832.125 1.242.032.145.063.285.114.422a.777.777 0 0 0 .097.188c-.062-.13-.082-.278-.101-.418-.055-.48-.047-.965-.043-1.446.004-.367.011-.738.027-1.105.008-.145.004-.29.02-.434.039.125.101.242.156.363.148.31.32.602.508.887.172.25.343.5.543.723-.332-.567-.653-1.145-.903-1.758-.125-.328-.246-.668-.254-1.027-.007-.086.016-.176-.003-.258ZM42.512 37.285c-.028-.101-.188-.113-.223-.012-.039.133 0 .274.023.407.051.734.114 1.472.278 2.187.055.215.105.438.226.617a3.069 3.069 0 0 1-.093-.535 67.19 67.19 0 0 1-.09-1.25c-.008-.148-.02-.293-.028-.441.184.273.399.523.633.746-.242-.402-.508-.797-.668-1.242-.027-.157-.02-.32-.058-.477ZM47.75 39.258c.004-.055-.008-.121-.055-.153-.047-.02-.097.004-.136.032-.239.183-.516.293-.79.402-.55.211-1.109.39-1.667.574-.118.035-.227.082-.348.11.164-.004.32-.047.48-.07.559-.114 1.114-.25 1.653-.442-.469.379-.934.762-1.422 1.117-.086.067-.176.121-.258.188.313-.141.605-.317.895-.504.484-.317.949-.664 1.398-1.028.086-.074.176-.14.25-.226ZM46.96 40.45c-.062-.032-.124.015-.17.05-.247.184-.532.29-.81.398-.542.207-1.093.383-1.644.567-.11.031-.215.078-.324.097.086.008.168-.015.25-.027a13.476 13.476 0 0 0 1.613-.39c.094-.024.18-.07.273-.086a.13.13 0 0 1-.039.023c-.457.375-.918.746-1.39 1.094-.086.058-.164.125-.258.168.121-.028.23-.102.344-.157.543-.3 1.05-.664 1.55-1.042.223-.176.454-.344.657-.543.004-.055-.008-.118-.051-.153Zm0 0"/><g clip-path="url(#h)"><path fill="#c8a2c8" d="M41.563 43.813c-.36.449-.696.914-1.028 1.386a26.693 26.693 0 0 0-1.039 1.602c-.25.43-.492.867-.695 1.324-.153.348-.29.703-.356 1.082-.027.129-.015.262-.02.395a.69.69 0 0 0 .395.628c.22.102.457.149.692.196.492.094.992.148 1.488.187.68.051 1.355.09 2.035.086.649-.004 1.297.012 1.942-.027.378-.02.757-.05 1.132-.098.344-.047.692-.097 1.024-.203.152-.055.316-.117.43-.246.085-.102.085-.25.09-.375-.005-.355-.11-.695-.223-1.023-.227-.63-.532-1.227-.848-1.813a30.67 30.67 0 0 0-1.789-2.844c.656 1.082 1.289 2.18 1.844 3.325.16.332.308.667.445 1.011.113.293.219.594.281.907.04.195.07.398.032.593-.008.055-.063.086-.102.11-.137.078-.293.117-.441.156-.414.094-.84.133-1.262.168a25.53 25.53 0 0 1-1.973.066c-.71.004-1.426-.02-2.14-.054a24.154 24.154 0 0 1-1.594-.149c-.285-.043-.574-.086-.848-.176-.086-.03-.176-.058-.238-.129a.465.465 0 0 1-.125-.28c-.035-.266.031-.532.101-.79.149-.484.364-.945.586-1.394.29-.57.61-1.121.942-1.668.402-.664.824-1.313 1.261-1.953Zm0 0"/></g><path fill="#c8a2c8" d="M42.844 46.883c-.223 0-.45-.031-.672.008-.305.05-.602.125-.89.23-.141.055-.282.113-.395.219-.051.05-.055.133-.051.203v1.102c0 .097.02.199.066.285.086.172.27.28.453.277h3.833c.257-.004.488-.242.492-.512v-1.234c.004-.078-.059-.129-.114-.168a1.846 1.846 0 0 0-.445-.184 5.812 5.812 0 0 0-.96-.191c-.438-.016-.88-.023-1.317-.035Zm0 0"/><path d="m16.405 31.127-.813 2.672c-.011.043.008.063.063.063h1.5c.05 0 .07-.02.062-.063l-.796-2.672a.017.017 0 0 0-.016-.015v.015Zm-1.11 3.72-.296.968a.626.626 0 0 1-.235.328.618.618 0 0 1-.375.125h-.281a.334.334 0 0 1-.281-.14.326.326 0 0 1-.031-.313l1.828-5.281a.614.614 0 0 1 .234-.329.722.722 0 0 1 .406-.125h.313c.144 0 .273.043.39.125a.623.623 0 0 1 .25.329l1.829 5.28a.319.319 0 0 1-.047.313.302.302 0 0 1-.266.14h-.312a.602.602 0 0 1-.375-.124.586.586 0 0 1-.235-.328l-.297-.969c-.011-.05-.043-.078-.093-.078h-2.032c-.054 0-.086.027-.093.078ZM21.164 33.518v1.781c0 .043.023.074.078.094.195.023.383.031.563.031.468 0 .804-.082 1.015-.25.219-.176.328-.441.328-.797 0-.312-.125-.539-.375-.687-.242-.156-.652-.235-1.234-.235h-.297c-.055 0-.078.024-.078.063Zm0-2.469v1.438c0 .054.023.078.078.078h.235c.52 0 .894-.067 1.125-.203a.718.718 0 0 0 .359-.657c0-.27-.094-.468-.281-.593-.188-.133-.5-.203-.938-.203-.156 0-.328.015-.515.046-.043.012-.063.043-.063.094Zm3.125 3.438c0 .625-.203 1.093-.61 1.406-.406.305-1.042.453-1.906.453-.43 0-.859-.023-1.296-.062a.497.497 0 0 1-.344-.172.532.532 0 0 1-.14-.375v-5.14c0-.134.038-.255.124-.36a.525.525 0 0 1 .36-.172c.414-.051.816-.078 1.203-.078 1.593 0 2.39.523 2.39 1.562 0 .344-.12.649-.36.906-.23.25-.53.415-.905.485h-.016c0 .012.004.015.016.015.457.075.816.25 1.078.532.27.273.406.605.406 1ZM28.06 36.346c-.969 0-1.746-.285-2.328-.86-.586-.57-.875-1.343-.875-2.312 0-.976.285-1.754.86-2.328.57-.57 1.351-.86 2.343-.86.563 0 1.086.11 1.578.329a.501.501 0 0 1 .235.297.54.54 0 0 1-.016.375.367.367 0 0 1-.25.234.432.432 0 0 1-.328-.031 2.733 2.733 0 0 0-1.11-.235c-.636 0-1.148.2-1.53.594-.376.399-.563.938-.563 1.625 0 .68.191 1.219.578 1.625.394.399.898.594 1.516.594a2.57 2.57 0 0 0 1.109-.25.414.414 0 0 1 .328-.016.384.384 0 0 1 .25.235c.05.125.055.258.016.39a.43.43 0 0 1-.235.266 3.833 3.833 0 0 1-1.578.328Zm0 0" fill="#fff"/><path d="M38.021 33.266h-.812a1.05 1.05 0 0 1-.672-.234.991.991 0 0 1-.375-.594l-2.172-9.422a.627.627 0 0 1 .125-.578.651.651 0 0 1 .547-.265h.438a.97.97 0 0 1 .656.25c.187.168.304.37.36.609l1.515 7.984c0 .012.004.016.015.016.008 0 .016-.004.016-.016l1.469-7.984c.05-.238.172-.441.36-.61a.987.987 0 0 1 .671-.25h.906a.97.97 0 0 1 .657.25c.187.169.304.372.359.61l1.469 7.984c0 .012.004.016.015.016.008 0 .016-.004.016-.016l1.516-7.984c.05-.238.171-.441.359-.61a.987.987 0 0 1 .672-.25h.375c.219 0 .394.09.531.266.133.168.18.36.14.578l-2.171 9.422c-.055.242-.18.438-.375.594-.2.156-.422.234-.672.234h-.828a.994.994 0 0 1-.656-.234 1.09 1.09 0 0 1-.36-.61l-1.515-8a.017.017 0 0 0-.016-.015c-.012 0-.016.008-.016.016l-1.515 8a1.112 1.112 0 0 1-.36.609 1.02 1.02 0 0 1-.672.234ZM52.223 26.72c-.606 0-1.086.226-1.438.671-.343.438-.515 1.086-.515 1.938 0 .844.172 1.484.515 1.922.352.437.832.656 1.438.656.613 0 1.094-.219 1.437-.656.344-.438.516-1.078.516-1.922 0-.852-.172-1.5-.516-1.938-.343-.445-.824-.672-1.437-.672Zm2.86 5.593c-.712.742-1.669 1.11-2.876 1.11-1.2 0-2.152-.368-2.86-1.11-.698-.738-1.046-1.734-1.046-2.984 0-1.258.348-2.258 1.047-3 .707-.738 1.66-1.11 2.86-1.11 1.206 0 2.163.372 2.874 1.11.719.742 1.078 1.742 1.078 3 0 1.25-.36 2.246-1.078 2.984ZM59.721 29.813v2.594c0 .23-.09.434-.265.61a.812.812 0 0 1-.594.25h-.297a.854.854 0 0 1-.86-.86v-6.172c0-.227.083-.426.25-.594a.839.839 0 0 1 .61-.265h.172c.238 0 .441.09.61.265a.896.896 0 0 1 .265.594l.016.64v.016c.007 0 .02-.004.03-.015.74-.895 1.677-1.426 2.813-1.594a.63.63 0 0 1 .563.187.73.73 0 0 1 .25.563.8.8 0 0 1-.25.578.99.99 0 0 1-.578.281c-.875.125-1.555.45-2.031.969-.47.512-.704 1.164-.704 1.953ZM68.326 26.766c-.575 0-1.024.215-1.344.64-.324.43-.485 1.063-.485 1.907 0 .824.172 1.461.516 1.906.344.438.781.657 1.313.657.539 0 .972-.211 1.296-.641.332-.437.5-1.05.5-1.844v-.156c0-.758-.168-1.36-.5-1.797-.324-.445-.757-.672-1.296-.672Zm-.563 6.657c-.937 0-1.7-.352-2.281-1.063-.586-.719-.875-1.734-.875-3.047 0-1.332.281-2.347.844-3.047.562-.695 1.332-1.047 2.312-1.047.938 0 1.707.383 2.313 1.141 0 .023.007.031.03.031.009 0 .016-.004.016-.015v-3.641c0-.227.082-.426.25-.594a.839.839 0 0 1 .61-.265h.265a.8.8 0 0 1 .594.265c.164.168.25.367.25.594v9.672a.87.87 0 0 1-.25.61.812.812 0 0 1-.594.25h-.14a.816.816 0 0 1-.61-.25.86.86 0 0 1-.265-.61l-.016-.234a.017.017 0 0 0-.015-.016c-.024 0-.032.008-.032.016-.617.835-1.418 1.25-2.406 1.25ZM82.48 33.266h-.812a1.05 1.05 0 0 1-.672-.234.991.991 0 0 1-.375-.594l-2.171-9.422a.627.627 0 0 1 .125-.578.651.651 0 0 1 .546-.265h.438a.97.97 0 0 1 .656.25c.188.168.305.37.36.609l1.515 7.984c0 .012.004.016.016.016.008 0 .015-.004.015-.016l1.47-7.984c.05-.238.171-.441.359-.61a.987.987 0 0 1 .671-.25h.907a.97.97 0 0 1 .656.25c.187.169.305.372.36.61l1.468 7.984c0 .012.004.016.016.016.007 0 .015-.004.015-.016l1.516-7.984c.05-.238.172-.441.36-.61a.987.987 0 0 1 .671-.25h.375c.219 0 .395.09.531.266.133.168.18.36.141.578l-2.172 9.422c-.055.242-.18.438-.375.594-.2.156-.422.234-.672.234h-.828a.994.994 0 0 1-.656-.234 1.09 1.09 0 0 1-.36-.61l-1.515-8a.017.017 0 0 0-.016-.015c-.011 0-.015.008-.015.016l-1.516 8a1.112 1.112 0 0 1-.36.609 1.02 1.02 0 0 1-.671.234ZM97.245 29.485c-.805 0-1.418.137-1.844.406-.43.262-.64.61-.64 1.047 0 .324.093.578.28.766.196.18.461.265.797.265.582 0 1.07-.187 1.47-.562.394-.375.593-.844.593-1.406v-.375c0-.094-.043-.141-.125-.141Zm-1.907 3.938c-.742 0-1.328-.204-1.765-.61-.438-.414-.657-.988-.657-1.719 0-.882.368-1.593 1.11-2.125.75-.53 1.82-.796 3.219-.796h.53c.083 0 .126-.036.126-.11-.012-.508-.125-.863-.344-1.062-.21-.207-.586-.313-1.125-.313-.71 0-1.414.125-2.11.375a.624.624 0 0 1-.515-.031.557.557 0 0 1-.312-.406.892.892 0 0 1 .078-.594.817.817 0 0 1 .468-.406 7.492 7.492 0 0 1 2.438-.407c1.207 0 2.07.235 2.594.704.531.468.797 1.23.797 2.28v2.938c0 .418.03.84.093 1.266a.738.738 0 0 1-.172.594.676.676 0 0 1-.546.265h-.157a1.05 1.05 0 0 1-.672-.234.88.88 0 0 1-.312-.61 1.986 1.986 0 0 1-.016-.296c0-.02-.007-.032-.015-.032-.024 0-.032.008-.032.016a2.98 2.98 0 0 1-1.14.969c-.48.226-1 .344-1.563.344ZM103.922 29.813v2.594c0 .23-.09.434-.265.61a.812.812 0 0 1-.594.25h-.297a.854.854 0 0 1-.86-.86v-6.172c0-.227.083-.426.25-.594a.839.839 0 0 1 .61-.265h.172c.238 0 .441.09.61.265a.896.896 0 0 1 .265.594l.016.64v.016c.007 0 .02-.004.03-.015.74-.895 1.677-1.426 2.813-1.594a.63.63 0 0 1 .563.187.73.73 0 0 1 .25.563.8.8 0 0 1-.25.578.99.99 0 0 1-.578.281c-.875.125-1.555.45-2.031.969-.47.512-.704 1.164-.704 1.953ZM111.198 28.75v3.657a.87.87 0 0 1-.25.61.812.812 0 0 1-.593.25h-.235a.854.854 0 0 1-.859-.86v-6.172c0-.227.082-.426.25-.594a.839.839 0 0 1 .61-.265h.093a.86.86 0 0 1 .625.25c.176.168.27.37.281.609l.016.188c0 .011.004.015.016.015.02 0 .03-.004.03-.015.583-.801 1.25-1.204 2-1.204.49 0 .895.102 1.22.297.32.2.597.524.828.969 0 .012.008.016.031.016.008 0 .02-.004.031-.016.656-.844 1.426-1.266 2.313-1.266.843 0 1.457.235 1.843.704.395.468.594 1.261.594 2.375v4.109c0 .23-.09.434-.265.61a.812.812 0 0 1-.594.25h-.188a.854.854 0 0 1-.859-.86V28.75c0-.79-.086-1.32-.25-1.594-.168-.27-.465-.406-.89-.406-.368 0-.688.195-.97.578-.273.387-.406.86-.406 1.422v3.656c0 .23-.09.434-.265.61a.812.812 0 0 1-.594.25h-.188a.854.854 0 0 1-.859-.86V28.75c0-.79-.086-1.32-.25-1.594-.168-.27-.465-.406-.89-.406-.368 0-.688.195-.97.578-.273.387-.406.86-.406 1.422ZM124.492 33.423c-.867 0-1.5-.243-1.906-.735-.406-.5-.61-1.3-.61-2.406v-4.047c0-.227.083-.426.25-.594a.854.854 0 0 1 .626-.265h.203c.238 0 .441.09.61.265a.8.8 0 0 1 .265.594v3.844c0 .68.094 1.14.281 1.39.188.25.504.375.953.375.446 0 .852-.222 1.219-.671.375-.457.562-.989.562-1.594v-3.344c0-.227.082-.426.25-.594a.787.787 0 0 1 .594-.265h.266a.8.8 0 0 1 .594.265.8.8 0 0 1 .265.594v6.172c0 .23-.09.434-.265.61a.812.812 0 0 1-.594.25h-.125a.87.87 0 0 1-.625-.25.86.86 0 0 1-.266-.61l-.015-.234a.017.017 0 0 0-.016-.016c-.023 0-.031.008-.031.016a3.35 3.35 0 0 1-1.125.921c-.438.22-.89.329-1.36.329Zm0 0"/><g clip-path="url(#i)"><path d="M132.973 29.235v.156c0 .793.164 1.407.5 1.844.332.43.766.64 1.297.64.54 0 .977-.218 1.313-.656.343-.445.515-1.082.515-1.906 0-.844-.164-1.476-.484-1.906-.313-.426-.762-.64-1.344-.64-.531 0-.965.226-1.297.671-.336.438-.5 1.04-.5 1.797Zm0 3.094v3.406c0 .238-.09.441-.265.61a.8.8 0 0 1-.594.265h-.25a.839.839 0 0 1-.61-.266.828.828 0 0 1-.25-.609v-9.5c0-.227.082-.426.25-.594a.839.839 0 0 1 .61-.265h.125a.86.86 0 0 1 .625.25c.176.168.27.37.281.609v.234c0 .012.004.016.016.016.02 0 .03-.004.03-.016.614-.832 1.411-1.25 2.392-1.25.976 0 1.75.352 2.312 1.047.563.7.844 1.715.844 3.047 0 1.313-.293 2.328-.875 3.047-.586.711-1.344 1.063-2.281 1.063-.961 0-1.73-.364-2.313-1.094 0-.008-.012-.016-.031-.016-.012 0-.016.008-.016.016Zm0 0"/></g></svg>