<svg xmlns="http://www.w3.org/2000/svg" width="186" viewBox="0 0 139.5 52.5" height="70" version="1.0"><defs><clipPath id="a"><path d="M4 35h45.055v14.848H4Zm0 0"/></clipPath><clipPath id="b"><path d="M1.93 2.25H31v47.598H1.93Zm0 0"/></clipPath></defs><g clip-path="url(#a)"><path fill="#444" d="M47.566 36.238a7.399 7.399 0 0 0-2.668-.883l-.03-.003h-.016l-.012-.004-.063-.004a1.204 1.204 0 0 0-.117-.016l-.12-.012-.06-.004c-.011 0-.02 0-.03-.003h-.032c-.04-.004-.078-.004-.117-.008-.024 0-.043-.004-.063-.004l-.058-.004c-.043 0-.082 0-.121-.004h-.121c-.165-.004-.325 0-.489.004-.039.004-.078.008-.12.008l-.06.004h-.03l-.032.004c-.039.004-.082.004-.121.007-.02.004-.043.004-.063.004l-.058.008-.125.012c-.04.004-.078.008-.121.015l-.059.004-.062.008c-.04.008-.082.012-.121.02a.342.342 0 0 0-.063.008l-.059.007c-.042.008-.082.016-.12.02l-.122.023-.062.008-.063.012c-.32.062-.644.137-.965.226l-.062.016-.059.016-.12.035-.118.035c-.043.016-.082.027-.121.039-.078.023-.16.05-.238.078-.04.012-.078.024-.121.04-.04.01-.079.027-.118.042-.16.055-.316.113-.472.172l-.117.047-.118.047c-.039.02-.078.035-.117.05l-.117.047c-.313.133-.621.274-.93.422-.304.153-.61.309-.91.477l-.058.031-.055.031c-.04.02-.074.04-.113.063-.04.02-.075.043-.114.062a1.052 1.052 0 0 1-.113.063 1.635 1.635 0 0 1-.11.066c-.038.024-.074.043-.113.067-.074.043-.148.09-.222.133-.04.02-.075.042-.114.066-.035.023-.07.043-.109.066-.039.024-.074.047-.113.067-.035.023-.07.047-.11.07-.074.047-.148.09-.222.137-.074.047-.149.094-.219.136l-.059.036-.054.035-.11.07c-.035.024-.074.047-.109.07l-.113.07c-.07.052-.145.098-.22.145-.073.047-.148.098-.218.145-1.176.77-2.34 1.594-3.512 2.433-1.171.84-2.355 1.7-3.566 2.543-.3.207-.605.418-.914.625-.309.207-.617.414-.93.618-.074.05-.156.101-.234.152-.078.05-.156.101-.234.148l-.235.153c-.082.047-.16.097-.238.148-.32.195-.64.39-.965.582-.324.188-.648.375-.98.559-.332.18-.664.355-1.004.527a24.615 24.615 0 0 1-1.547.723c-.086.039-.176.078-.262.113-.043.02-.09.035-.133.055-.043.02-.086.035-.133.054-.039.016-.074.032-.113.047-.039.016-.078.032-.117.043-.04.016-.074.032-.113.047l-.059.024a.344.344 0 0 1-.058.02c-.153.058-.31.116-.465.171-.04.016-.078.027-.117.043l-.055.02-.059.019-.234.082c-.02.004-.04.012-.059.02l-.058.015c-.04.016-.078.028-.118.04-.039.011-.078.027-.117.038l-.031.008-.027.008-.059.02-.238.07c-.02.008-.04.011-.059.02l-.058.015-.118.035c-.039.012-.078.02-.117.031-.039.012-.078.024-.12.032-.079.023-.157.043-.235.066a8.087 8.087 0 0 1-.946.188 3.768 3.768 0 0 1-.468.023 2.592 2.592 0 0 1-.516-.05l-.027-.005-.016-.004-.012-.004c-.035-.007-.074-.015-.109-.027a3.01 3.01 0 0 0-.102-.035c-.035-.016-.066-.027-.101-.043-.031-.016-.063-.035-.094-.05l-.047-.032c-.015-.008-.031-.02-.043-.027a.082.082 0 0 0-.023-.016l-.02-.016-.02-.02-.01-.007c0-.004-.005-.004-.009-.008a.597.597 0 0 1-.07-.07.534.534 0 0 1-.105-.164.557.557 0 0 1-.032-.086l-.011-.09a.516.516 0 0 1 .023-.187.732.732 0 0 1 .078-.192 1.93 1.93 0 0 1 .117-.191l.07-.094.036-.047.035-.047c.047-.062.098-.12.148-.18.051-.062.106-.12.157-.18.109-.112.218-.23.332-.343.113-.11.226-.223.34-.336.23-.222.464-.441.69-.668.231-.222.458-.453.673-.691a9.248 9.248 0 0 0 .39-.461l.04-.047.035-.05c.027-.032.05-.067.074-.098l.035-.051.035-.047.035-.05c.012-.02.024-.036.032-.052.023-.035.046-.07.066-.105a2.73 2.73 0 0 0 .125-.211c.02-.035.039-.07.055-.11a.357.357 0 0 0 .027-.054l.016-.028.011-.027.028-.058.023-.059a.766.766 0 0 0 .024-.055l.007-.031.012-.027.02-.059c.003-.012.007-.02.011-.031l.008-.028.012-.03.008-.032c.004-.02.011-.04.015-.059.024-.082.04-.164.051-.246.012-.082.02-.168.023-.254 0-.082-.003-.168-.011-.254-.02-.167-.07-.34-.149-.492a1.127 1.127 0 0 0-.132-.218 2.01 2.01 0 0 0-.168-.196 1.85 1.85 0 0 0-.407-.293 2.159 2.159 0 0 0-.449-.191c-.078-.027-.156-.047-.234-.067l-.117-.023-.06-.012c-.019-.004-.038-.004-.058-.008a4.97 4.97 0 0 0-.238-.03 4.854 4.854 0 0 0-.477-.005c-.078.004-.16.008-.238.02-.156.02-.312.047-.469.094l-.054.015c-.02.004-.04.012-.059.02-.012 0-.02.004-.027.008l-.027.007-.055.02-.055.023-.055.02c-.02.004-.035.012-.054.02l-.055.019a13.91 13.91 0 0 0-.426.18c-.136.066-.277.132-.41.203-.035.015-.07.035-.101.05-.036.02-.07.036-.102.055l-.102.055c-.03.02-.066.035-.097.055-.133.074-.266.152-.395.226-.129.078-.258.156-.383.238-.257.157-.507.32-.757.48l-.375.24-.188.116c-.062.04-.121.079-.187.118-.121.078-.246.156-.371.238-.125.078-.25.156-.372.234-.496.317-.98.64-1.457.965l-.355.246-.176.125c-.058.04-.12.078-.176.121-.117.082-.234.168-.351.25a57.924 57.924 0 0 0-3 2.297 62.646 62.646 0 0 1 6.23-4.277l.211-.13c.07-.038.14-.081.211-.124.14-.09.281-.176.422-.262.281-.176.566-.351.852-.523a20.9 20.9 0 0 1 .87-.492c.298-.157.598-.297.91-.422.079-.032.157-.063.235-.09l.063-.024a.344.344 0 0 0 .058-.02l.059-.019.031-.011a2.892 2.892 0 0 1 1.008-.137c.168.008.336.023.5.05.164.032.324.075.48.133.153.06.301.133.438.227.133.094.254.203.348.332a1.243 1.243 0 0 1 .234.672 1.68 1.68 0 0 1-.043.488 2.47 2.47 0 0 1-.164.477l-.055.117c-.008.02-.02.035-.031.055l-.012.027a4.068 4.068 0 0 1-.297.465 7.758 7.758 0 0 1-.675.805c-.246.257-.5.507-.762.753-.262.25-.524.497-.785.754-.067.063-.13.13-.196.192-.062.066-.128.133-.191.203-.062.066-.125.137-.187.207-.06.07-.122.14-.176.219-.059.07-.114.148-.168.23a1.442 1.442 0 0 0-.145.266.871.871 0 0 0-.05.152c-.008.024-.012.05-.02.078a.583.583 0 0 0-.008.082c-.004.028-.004.055-.004.086v.04l.004.042a.72.72 0 0 0 .04.164l.007.024c0 .004.004.011.008.02l.015.038.016.035a1.127 1.127 0 0 0 .113.172c.035.043.075.082.114.118.039.035.078.07.12.097.044.031.087.059.13.086.043.024.09.047.136.07.094.04.188.075.286.102.023.004.046.012.074.016l.07.015.074.012.035.008.02.004h.016a3.577 3.577 0 0 0 .871.008c.191-.016.379-.051.566-.086.094-.02.184-.04.277-.063.094-.023.184-.043.274-.07l.273-.07c.09-.028.184-.051.274-.079l.066-.02a.472.472 0 0 0 .07-.019c.043-.011.09-.027.133-.039.047-.015.09-.027.137-.043.047-.011.09-.027.137-.043.043-.011.09-.027.133-.043.046-.011.09-.027.136-.043.09-.03.18-.058.27-.09l.066-.023.067-.023.132-.047c.09-.032.18-.067.27-.098.043-.02.086-.035.133-.05a.476.476 0 0 0 .066-.028l.067-.023c.043-.02.085-.036.132-.055l.067-.024.031-.015.035-.012.266-.105.031-.016.031-.012.067-.031a1.35 1.35 0 0 0 .133-.055l.066-.027.031-.016.035-.011.13-.059c.042-.02.09-.039.132-.059l.031-.011.035-.016.063-.031.133-.059.062-.031.067-.027c.086-.043.172-.082.261-.125.344-.164.688-.336 1.028-.516.086-.043.172-.09.254-.133l.129-.07c.043-.024.082-.047.125-.066l.128-.07c.043-.024.082-.048.125-.071.086-.047.168-.094.254-.14.07-.044.145-.087.215-.126.074-.043.149-.086.219-.129l.11-.062.105-.063c.074-.043.144-.086.215-.129a15.5 15.5 0 0 0 .425-.261c.075-.043.145-.086.215-.13.07-.046.14-.089.211-.132.07-.043.14-.09.211-.133l.102-.066.054-.035.051-.036c.07-.042.14-.09.207-.132l.106-.07c.035-.02.07-.044.105-.067.137-.09.274-.184.41-.273.07-.047.137-.094.207-.137l.203-.14c.067-.048.137-.095.204-.138a9.15 9.15 0 0 0 .203-.14l.406-.281c.266-.188.535-.375.8-.563a274.87 274.87 0 0 0 1.575-1.14c1.043-.758 2.074-1.516 3.102-2.247a66.35 66.35 0 0 1 3.101-2.09c.066-.039.133-.082.195-.12a.831.831 0 0 0 .098-.063c.035-.02.066-.04.102-.059.062-.039.129-.078.195-.12.066-.04.133-.079.195-.118a23.005 23.005 0 0 1 2.418-1.238c.551-.239 1.11-.442 1.676-.61a11.946 11.946 0 0 1 1.71-.37c.29-.036.579-.063.864-.075h.028l.027-.004h.055c.035 0 .074-.004.109-.004h.32l.055.004h.055c.035.004.07.004.105.004.035.004.07.004.11.008a7.487 7.487 0 0 1 2.464.566c.258.11.508.23.75.367.485.27.938.594 1.352.95a8.113 8.113 0 0 0-1.48-1.067"/></g><g clip-path="url(#b)"><path fill="#444" d="M17.156 23.55c-.047.032-.09.06-.136.087a1.31 1.31 0 0 1-.141.082 5.057 5.057 0 0 1-.285.152 7.105 7.105 0 0 1-1.157.442c-.367.109-.69.183-.93.23-.234.047-.378.066-.378.066.312-.109.601-.21.867-.312.133-.047.262-.098.383-.14.125-.048.242-.095.355-.137.223-.086.426-.168.61-.247l.258-.109.226-.102c.285-.125.492-.226.629-.296.137-.07.203-.11.203-.11a3.3 3.3 0 0 1-.504.395ZM3.461 48.606a.18.18 0 0 1-.195.153.177.177 0 0 1-.153-.196.175.175 0 0 1 .196-.152.178.178 0 0 1 .152.195ZM30.496 2.496l-.074-.035c-.035-.012-.078-.031-.129-.047a.553.553 0 0 0-.086-.027.635.635 0 0 0-.102-.028 2.56 2.56 0 0 0-.253-.054c-.047-.008-.098-.012-.157-.02-.011 0-.023-.004-.039-.004-.015-.004-.027-.004-.043-.004a5.669 5.669 0 0 0-.977 0 8.58 8.58 0 0 0-1.21.203 11.23 11.23 0 0 0-1.535.48c-.567.22-1.184.505-1.852.864-.664.36-1.375.797-2.125 1.328-.066.043-.129.09-.195.133-.067.047-.137.09-.203.137-.137.086-.278.172-.414.262-.137.09-.274.18-.41.273-.07.043-.137.09-.204.137l-.191.144c-.067.051-.129.102-.188.153l-.093.074a4.259 4.259 0 0 0-.406.41c-.051.059-.098.121-.141.18a2.285 2.285 0 0 0-.309.598l-.008.019s.028-.156.086-.438c.055-.28.157-.683.297-1.18a33.948 33.948 0 0 0-2.152 1.66c-.188.157-.375.321-.559.49-.047.042-.09.085-.137.128-.042.043-.09.086-.132.129a9.21 9.21 0 0 0-1.184 1.375c-.133.195-.254.39-.36.594-.015.023-.027.047-.042.074-.012.023-.024.05-.035.074-.024.05-.051.102-.07.152a4.28 4.28 0 0 0-.13.31c-.035.1-.07.202-.101.308-.016.05-.028.101-.04.156-.015.05-.023.105-.034.156-.04.211-.059.422-.063.637v.031s-.012-.058-.027-.172a7.876 7.876 0 0 1-.07-.496c-.012-.105-.028-.226-.04-.355-.011-.13-.023-.27-.03-.418-.013-.149-.02-.309-.028-.477 0-.086-.004-.172-.008-.262v-.132c0-.047 0-.094-.004-.141a2.35 2.35 0 0 1-.098.102c-.03.035-.062.066-.093.101-.067.067-.13.137-.196.203-.129.137-.257.274-.386.414-.032.035-.063.07-.098.106l-.094.105-.191.215-.383.43c-.25.293-.5.594-.75.894-.242.305-.488.614-.734.93a5.937 5.937 0 0 0-.536.836 4.136 4.136 0 0 0-.21.441c-.063.153-.122.301-.172.453a4.6 4.6 0 0 0-.21.906c-.044.302-.056.598-.036.884v.02s-.036-.145-.094-.407a17.18 17.18 0 0 1-.192-1.121c-.05.074-.097.148-.148.218-.121.188-.238.38-.348.575-.027.05-.054.097-.082.144-.011.028-.027.051-.039.074a.445.445 0 0 1-.039.075c-.047.101-.094.199-.14.3a8.932 8.932 0 0 0-.301.758c-.008.028-.02.051-.028.078l-.023.075c-.031.105-.063.207-.09.308-.055.203-.101.41-.137.613-.02.102-.035.207-.05.31l-.012.073c0 .024-.004.051-.008.078-.004.051-.008.098-.016.149-.03.406-.03.8.008 1.183l.004.028s-.058-.192-.144-.535c-.04-.172-.09-.383-.137-.625-.027-.121-.05-.254-.078-.391-.004-.035-.012-.07-.016-.105-.008-.036-.012-.07-.02-.106l-.035-.227c-.027.055-.058.106-.085.157l-.047.082-.043.078c-.055.105-.114.21-.168.32l-.024.04c-.09.167-.175.34-.261.507l-.122.258-.117.258c-.148.343-.289.691-.414 1.043l-.047.129c-.011.046-.027.09-.043.132-.027.086-.054.176-.082.262-.054.176-.105.352-.152.527-.027.09-.047.18-.07.266-.024.09-.043.176-.063.266-.039.175-.078.351-.11.527-.03.176-.062.352-.089.523l-.035.262c-.004.043-.012.09-.016.133-.004.043-.008.086-.015.129a13.369 13.369 0 0 0-.063 1.547 11.49 11.49 0 0 0 .133 1.484c.031.184.062.375.098.57l-.028-.074c-.015-.047-.043-.113-.074-.203-.059-.18-.145-.445-.234-.777-.094-.332-.196-.73-.293-1.192a18.62 18.62 0 0 1-.246-1.523c-.051.125-.098.254-.145.379-.11.281-.191.57-.254.867a9.101 9.101 0 0 0-.14 1.367c0 .153 0 .309.003.465.012.309.036.617.07.926.016.152.036.308.055.46.024.153.043.305.07.454.051.305.11.602.169.89.058.29.117.57.175.844.028.137.06.274.086.407a8.65 8.65 0 0 1 .09.425s-.093-.222-.23-.62c-.016-.052-.035-.102-.055-.157a4.27 4.27 0 0 0-.055-.172 18.118 18.118 0 0 1-.363-1.34c-.062.254-.117.504-.172.758l-.082.375-.02.098-.015.093-.039.192a43.625 43.625 0 0 0-.195 1.14c-.008.063-.02.126-.028.192-.007.062-.02.125-.027.191-.07.508-.129 1.024-.176 1.54l-.015.19a3.287 3.287 0 0 0-.016.196c-.012.129-.02.258-.027.39-.016.259-.028.52-.04.782l.126.594c.046.207.093.418.148.636 0 0-.031-.066-.082-.187a10 10 0 0 1-.207-.531c-.008.39-.008.785-.004 1.18l.012.593.011.297a32.091 32.091 0 0 0 .102 1.512c.008.101.016.203.027.304.008.102.02.204.028.305.023.207.047.414.074.617a186.135 186.135 0 0 1 2.93-6.726l.187-.418c.067-.137.133-.278.195-.414l.391-.832.145-.309.05-.105.2-.41.398-.829.047-.101.05-.106.102-.203.203-.41.204-.414.152-.305.055-.105.414-.817.207-.406.632-1.219c.07-.136.145-.27.215-.406l.219-.402.215-.406.11-.2.109-.203.441-.8.11-.2.113-.203.453-.797.11-.199.116-.195.461-.793c.075-.133.153-.262.23-.395l.235-.39.235-.395c.039-.066.082-.129.12-.195l.118-.196.242-.39.117-.196c.043-.062.082-.128.121-.19l.489-.774c.039-.067.082-.13.12-.196l.376-.574a79.036 79.036 0 0 1 2.058-3.02 81.24 81.24 0 0 0-2.066 3.282l-.25.414-.492.836-.121.21-.118.212-.48.84-.469.851-.113.211c-.024.035-.04.07-.059.105l-.058.11-.23.426c-.153.285-.305.57-.454.855l-.445.86c-.149.289-.293.578-.442.867l-.218.43-.211.437-.43.867-.418.875-.21.438-.204.441-.41.879c-.031.07-.067.144-.098.219l-.101.222-.399.883-.101.219-.098.223-.387.886-.097.223-.051.11-.047.113-.191.445-.38.89c-.035.075-.062.149-.093.223l-.094.227-.187.445-.188.45c-.059.148-.125.296-.184.445a207.916 207.916 0 0 0-2.789 7.238l.012-.012c-.101.274-2.433 6.738-2.433 6.738-.047.125.093.235.207.16l1.675-1.113-.464-.648s1.898-4.95 2-5.23l.105-.274c.035-.094.066-.184.102-.274.07-.183.136-.363.203-.539h.004l.007.02s.008-.016.02-.047a47.826 47.826 0 0 0 5.45-5.566c-.598.242-1.114.418-1.477.535-.36.113-.575.168-.575.168l.032-.016c.109-.05.218-.105.332-.164l.172-.082c.058-.027.117-.055.175-.086.239-.113.48-.234.727-.355a27.659 27.659 0 0 0 .926-.496c.062-.036.125-.07.183-.106.125-.074.25-.144.371-.219.243-.152.485-.308.715-.472.117-.082.23-.168.34-.254.027-.024.055-.043.082-.067l.082-.066c.055-.043.11-.09.164-.133.215-.183.414-.375.602-.578.187-.2.36-.414.515-.637a62.18 62.18 0 0 0 1.762-2.715c-.172.13-.344.254-.508.372a24.15 24.15 0 0 1-1.258.852c-.113.07-.214.132-.304.19-.09.051-.164.098-.227.137l-.195.114c.015-.012.027-.024.043-.036a14.256 14.256 0 0 0 .555-.476 16.632 16.632 0 0 0 1.066-1.016c.059-.058.117-.117.176-.18.113-.117.222-.238.336-.363.109-.12.218-.246.328-.37.054-.063.105-.126.16-.192.055-.063.105-.125.16-.192.211-.254.418-.515.613-.785l.153-.2c.047-.07.097-.136.144-.202.098-.137.196-.274.29-.414.042-.07.09-.14.136-.211.047-.07.094-.14.137-.211.093-.14.183-.281.27-.426.09-.14.175-.285.257-.433l.125-.22c.043-.07.086-.144.125-.218.07-.125.14-.254.211-.379-.148.094-.293.184-.434.266-.07.043-.136.086-.203.12a.92.92 0 0 1-.097.06c-.032.019-.067.038-.098.058-.246.148-.469.273-.656.375-.371.203-.594.309-.594.309a9.43 9.43 0 0 0 .617-.477c.098-.078.192-.16.285-.242.09-.086.184-.168.274-.254.183-.172.363-.348.535-.531.086-.094.168-.184.25-.282a9.774 9.774 0 0 0 .719-.879l.058-.078.055-.078c.039-.05.074-.101.113-.152.07-.106.145-.207.215-.316.067-.106.137-.211.203-.32a3.62 3.62 0 0 0 .098-.165c.035-.055.066-.11.101-.164.13-.219.25-.445.364-.672l.21-.41c.067-.137.137-.273.204-.41a21.93 21.93 0 0 1-1.016.57c-.308.168-.586.313-.816.426-.117.059-.223.11-.317.156l-.234.11-.2.09a11.005 11.005 0 0 0 .387-.266c.055-.043.114-.082.168-.125.059-.043.114-.086.172-.13.223-.17.442-.355.653-.542a13.035 13.035 0 0 0 3.054-4.102c.059-.117.114-.23.168-.347a32.79 32.79 0 0 1-1.5.62c-.058.02-.113.044-.156.06l-.129.046.024-.015c.039-.02.078-.043.117-.067l.113-.07c.078-.047.156-.094.23-.145a7.03 7.03 0 0 0 .438-.324c.035-.031.07-.058.105-.09.036-.027.07-.054.106-.086.066-.058.137-.12.203-.183.067-.063.129-.125.195-.192.032-.03.063-.066.094-.097l.094-.102c.125-.133.242-.273.355-.414.059-.074.114-.148.168-.223.051-.074.106-.148.157-.222a7.185 7.185 0 0 0 .593-1.078c.02-.04.035-.082.051-.121.035-.082.063-.168.09-.254.027-.086.055-.172.078-.262.012-.047.02-.09.031-.137a8.078 8.078 0 0 0 .14-.684l.048-.28a5.89 5.89 0 0 1 .043-.278c.015-.094.031-.187.043-.281l.047-.274c.03-.183.066-.359.105-.535.012-.043.02-.086.031-.129a3.673 3.673 0 0 1 .105-.371c.028-.082.056-.156.083-.234l.047-.11c.015-.039.035-.074.05-.109-.039.016-.081.027-.12.04-.04.01-.079.023-.118.034-.078.028-.156.051-.23.075l-.43.125c-.27.082-.508.152-.707.203-.027.008-.05.015-.074.02-.024.007-.047.015-.07.019a5.317 5.317 0 0 0-.125.035c-.075.02-.141.039-.196.05-.11.032-.168.044-.168.044l.032-.012c.093-.043.187-.086.28-.133.048-.02.095-.047.141-.07.043-.024.09-.047.137-.074.184-.098.363-.207.535-.325.176-.113.344-.234.508-.367.164-.129.324-.265.473-.41l.031-.027.027-.024.059-.054.11-.11c.073-.074.144-.152.214-.23a5.8 5.8 0 0 0 .207-.23c.067-.083.133-.165.195-.247l.188-.246c.027-.043.059-.086.086-.129.031-.043.058-.086.086-.129.058-.086.113-.176.164-.265a2.35 2.35 0 0 0 .078-.133c.027-.047.05-.09.078-.137.055-.105.113-.207.168-.312a20.91 20.91 0 0 1 .246-.45c.031-.05.055-.097.082-.144l.164-.29c.055-.09.106-.183.16-.273.012-.023.024-.047.04-.07.003-.012.011-.023.02-.035a.36.36 0 0 1 .019-.031c.027-.043.05-.09.078-.133.027-.043.05-.086.078-.13.023-.046.05-.089.074-.128a27.07 27.07 0 0 1 1.246-1.902 17 17 0 0 1 .445-.586 9.356 9.356 0 0 1 .45-.532c0-.003.004-.007.008-.011l.007-.008c.004-.004.008-.012.016-.016a.75.75 0 0 0 .055-.058.265.265 0 0 0 .047-.047l.082-.082-.024-.012"/></g><g fill="#444"><path d="M31.205 20.135v-.5c.144 0 .351.008.625.016.27.011.508.023.719.03h.609c1.125 0 1.879-.015 2.266-.046v.5c-.899 0-1.344.156-1.344.469a.69.69 0 0 0 .031.218l2.578 7.875 2.235-6.875-.36-1.125c-.086-.257-.219-.414-.406-.468-.18-.063-.523-.094-1.031-.094v-.5c.144 0 .351.008.625.016.27.011.508.023.718.03h.61c1.125 0 1.879-.015 2.265-.046v.5c-.898 0-1.343.156-1.343.469 0 .03.015.117.047.25l2.562 7.843 2.406-7.406c.051-.156.078-.258.078-.312 0-.196-.117-.383-.343-.563-.219-.176-.57-.27-1.047-.281v-.5c.832.031 1.469.047 1.906.047.488 0 .973-.016 1.453-.047v.5c-.844 0-1.375.355-1.594 1.062l-3.062 9.407a1.476 1.476 0 0 1-.063.187.166.166 0 0 1-.078.094.289.289 0 0 1-.172.047c-.148 0-.25-.106-.312-.313l-2.656-8.156-2.64 8.14a1.476 1.476 0 0 1-.063.188.27.27 0 0 1-.094.094.289.289 0 0 1-.172.047c-.137 0-.234-.106-.297-.313l-3.203-9.812c-.094-.313-.215-.5-.36-.563-.148-.07-.511-.11-1.093-.11ZM48.86 29.713c-.698-.695-1.046-1.55-1.046-2.562 0-1.02.344-1.899 1.031-2.641.688-.738 1.524-1.11 2.516-1.11.968 0 1.8.372 2.5 1.11.695.73 1.047 1.61 1.047 2.64 0 1-.356 1.856-1.063 2.563-.7.7-1.531 1.047-2.5 1.047-.95 0-1.777-.348-2.484-1.047Zm.282-2.703c0 1.043.133 1.797.406 2.266.414.71 1.02 1.062 1.813 1.062.394 0 .758-.102 1.093-.312.333-.22.586-.504.766-.86.238-.469.36-1.187.36-2.156 0-1.02-.141-1.758-.422-2.219-.418-.687-1.024-1.031-1.813-1.031-.344 0-.683.09-1.016.266-.335.18-.605.445-.812.796-.25.47-.375 1.2-.375 2.188ZM55.825 30.572v-.5c.563 0 .91-.03 1.047-.093.133-.07.203-.282.203-.625v-4.297c0-.395-.074-.64-.219-.735-.136-.101-.48-.156-1.03-.156v-.5l2.218-.172v1.766a3.58 3.58 0 0 1 .703-1.219c.32-.363.742-.547 1.266-.547.343 0 .625.102.843.297.227.188.344.418.344.688 0 .23-.074.406-.219.53a.74.74 0 0 1-.468.173.703.703 0 0 1-.5-.188.672.672 0 0 1-.188-.5c0-.133.024-.25.078-.343a.773.773 0 0 1 .156-.204.553.553 0 0 1 .125-.078.641.641 0 0 0-.171-.015c-.586 0-1.047.293-1.391.875-.336.586-.5 1.293-.5 2.125v2.468c0 .305.062.508.187.61.133.094.477.14 1.032.14h.343v.5a31.167 31.167 0 0 0-2.03-.046c-.138 0-.31.007-.516.015-.2 0-.434.008-.704.016-.261.012-.464.015-.609.015ZM62.178 27.135c0-1.02.351-1.879 1.062-2.578.707-.707 1.54-1.063 2.5-1.063.813 0 1.484.336 2.016 1v-3.468c0-.395-.07-.641-.203-.735-.137-.101-.48-.156-1.032-.156v-.5l2.297-.172v9.719c0 .398.067.648.203.75.145.094.493.14 1.047.14v.5l-2.36.188v-1.078c-.554.71-1.265 1.066-2.14 1.078-.918 0-1.715-.352-2.39-1.063-.668-.707-1-1.562-1-2.562Zm1.328.016c0 .992.156 1.73.468 2.218.426.68.985 1.016 1.672 1.016.79 0 1.422-.367 1.891-1.11a.975.975 0 0 0 .172-.593V25.4c0-.22-.059-.415-.172-.594-.438-.633-1.012-.953-1.719-.953-.75 0-1.355.34-1.812 1.015-.336.512-.5 1.274-.5 2.282ZM76.143 20.135v-.5c.144 0 .351.008.625.016.27.011.508.023.719.03h.609c1.125 0 1.879-.015 2.266-.046v.5c-.899 0-1.344.156-1.344.469a.69.69 0 0 0 .031.218l2.578 7.875 2.235-6.875-.36-1.125c-.086-.257-.219-.414-.406-.468-.18-.063-.523-.094-1.031-.094v-.5c.144 0 .351.008.625.016.27.011.508.023.718.03h.61c1.125 0 1.879-.015 2.265-.046v.5c-.898 0-1.343.156-1.343.469 0 .03.015.117.047.25l2.562 7.843 2.406-7.406c.051-.156.078-.258.078-.312 0-.196-.117-.383-.343-.563-.22-.176-.57-.27-1.047-.281v-.5c.832.031 1.469.047 1.906.047.488 0 .973-.016 1.453-.047v.5c-.844 0-1.375.355-1.594 1.062l-3.062 9.407a1.476 1.476 0 0 1-.063.187.166.166 0 0 1-.078.094.289.289 0 0 1-.172.047c-.148 0-.25-.106-.312-.313l-2.656-8.156-2.64 8.14a1.476 1.476 0 0 1-.063.188.27.27 0 0 1-.094.094.289.289 0 0 1-.172.047c-.137 0-.234-.106-.297-.313l-3.203-9.812c-.094-.313-.215-.5-.36-.563-.148-.07-.511-.11-1.093-.11ZM92.97 29.041c0-.906.536-1.597 1.61-2.078.633-.3 1.613-.492 2.937-.578v-.578c0-.664-.171-1.172-.515-1.516-.344-.351-.735-.531-1.172-.531-.781 0-1.36.246-1.734.734.312.012.523.094.64.25.113.157.172.32.172.485 0 .21-.07.386-.203.53-.125.138-.305.204-.531.204a.74.74 0 0 1-.532-.203c-.136-.133-.203-.316-.203-.547 0-.52.235-.953.703-1.297.47-.344 1.04-.515 1.72-.515.874 0 1.6.293 2.187.875.175.187.312.402.406.64.094.23.144.422.156.578.008.149.016.371.016.672v3.203c0 .063.008.149.031.25.02.106.078.227.172.36a.46.46 0 0 0 .39.187c.383 0 .57-.336.563-1.015v-.907h.406v.907c0 .562-.152.96-.453 1.187-.293.219-.578.328-.86.328-.355 0-.648-.129-.874-.39a1.608 1.608 0 0 1-.375-.922 2.196 2.196 0 0 1-2.094 1.406c-.387 0-.762-.055-1.125-.156a2.335 2.335 0 0 1-.984-.547 1.297 1.297 0 0 1-.453-1.016Zm1.235-.015c0 .398.14.726.422.984.281.25.617.375 1.015.375.446 0 .868-.172 1.266-.516.406-.343.61-.86.61-1.547V26.73c-1.18.043-2.028.297-2.547.765-.512.469-.766.98-.766 1.532ZM100.763 30.572v-.5c.563 0 .91-.03 1.047-.093.133-.07.203-.282.203-.625v-4.297c0-.395-.074-.64-.219-.735-.136-.101-.48-.156-1.031-.156v-.5l2.219-.172v1.766a3.58 3.58 0 0 1 .703-1.219c.32-.363.742-.547 1.266-.547.343 0 .625.102.843.297.227.188.344.418.344.688 0 .23-.074.406-.219.53a.74.74 0 0 1-.468.173.703.703 0 0 1-.5-.188.672.672 0 0 1-.188-.5c0-.133.023-.25.078-.343a.773.773 0 0 1 .156-.204.553.553 0 0 1 .125-.078.641.641 0 0 0-.171-.015c-.586 0-1.047.293-1.391.875-.336.586-.5 1.293-.5 2.125v2.468c0 .305.062.508.187.61.133.094.477.14 1.032.14h.343v.5a31.167 31.167 0 0 0-2.03-.046c-.138 0-.31.007-.516.015-.2 0-.434.008-.704.016-.261.012-.464.015-.609.015ZM107.084 30.572v-.5c.57 0 .922-.03 1.047-.093.133-.07.203-.282.203-.625v-4.297c0-.395-.074-.64-.218-.735-.137-.101-.48-.156-1.032-.156v-.5l2.25-.172v1.688c.5-1.125 1.29-1.688 2.375-1.688 1.25 0 1.957.524 2.125 1.563.188-.406.473-.766.86-1.078.382-.32.875-.485 1.468-.485.801 0 1.364.2 1.688.594.226.273.363.559.406.86.051.292.078.824.078 1.593v3.047c.008.23.098.371.266.422.176.043.504.062.984.062v.5c-1.086-.03-1.68-.046-1.78-.046-.087 0-.688.015-1.813.046v-.5c.562 0 .91-.03 1.046-.093.133-.07.204-.282.204-.625v-3.735c0-.539-.086-.968-.25-1.281-.168-.32-.48-.484-.938-.484-.555 0-1.055.234-1.5.703-.45.46-.672 1.078-.672 1.86v2.937c0 .343.067.554.203.625.133.062.489.093 1.063.093v.5c-1.094-.03-1.7-.046-1.813-.046-.086 0-.683.015-1.797.046v-.5c.563 0 .91-.03 1.047-.093.133-.07.203-.282.203-.625v-3.735c0-.539-.086-.968-.25-1.281-.168-.32-.48-.484-.937-.484-.555 0-1.055.234-1.5.703-.438.46-.656 1.078-.656 1.86v2.937c0 .343.062.554.187.625.133.062.485.093 1.047.093v.5c-1.086-.03-1.68-.046-1.781-.046-.086 0-.688.015-1.813.046ZM120.423 24.166v-.5l2.36-.172v5.313c0 .262.007.465.03.61.02.148.071.308.157.484a.773.773 0 0 0 .422.375c.207.074.473.109.797.109.57 0 1.035-.234 1.39-.703.364-.477.547-1.067.547-1.766v-2.86c0-.394-.074-.64-.218-.734-.137-.101-.48-.156-1.032-.156v-.5l2.344-.172v5.688c0 .398.067.648.203.75.145.094.5.14 1.063.14v.5l-2.313.188v-1.453c-.449.96-1.136 1.441-2.062 1.453-.469 0-.867-.063-1.188-.188-.324-.125-.57-.257-.734-.406-.156-.144-.277-.36-.36-.64a3.067 3.067 0 0 1-.14-.704 13.154 13.154 0 0 1-.016-.78v-2.407c0-.719-.054-1.14-.156-1.266-.105-.133-.469-.203-1.094-.203ZM129.248 33.182c.563 0 .91-.04 1.047-.11.133-.062.203-.265.203-.609v-7.5c0-.352-.07-.57-.203-.656-.137-.094-.484-.14-1.047-.14v-.5l2.297-.173v1.063c.645-.707 1.395-1.063 2.25-1.063.906 0 1.688.356 2.344 1.063.664.699 1 1.554 1 2.562 0 1.012-.356 1.871-1.063 2.578-.699.711-1.539 1.063-2.515 1.063-.531 0-.977-.137-1.328-.406-.356-.282-.57-.524-.641-.735v2.844c0 .344.066.547.203.61.133.07.485.109 1.047.109v.5a206.36 206.36 0 0 0-1.797-.047c-.105 0-.703.016-1.797.047Zm2.344-4.438c0 .168.008.282.031.344.032.055.098.164.203.328.414.649.97.969 1.657.969h.015c.614 0 1.149-.305 1.61-.922.468-.625.703-1.406.703-2.344 0-.894-.215-1.656-.64-2.281-.419-.625-.919-.937-1.5-.937a2.18 2.18 0 0 0-1.173.343 2.582 2.582 0 0 0-.906.938Zm0 0"/></g></svg>