<svg xmlns="http://www.w3.org/2000/svg" width="300" height="230" version="1.0" viewBox="0 0 224.88 172.5"><defs><clipPath id="a"><path d="M.266 0h224.23v172H.266Zm0 0"/></clipPath><clipPath id="b"><path d="M97 13.2h3V15h-3Zm0 0"/></clipPath><clipPath id="c"><path d="M86 13.2h3V16h-3Zm0 0"/></clipPath><clipPath id="d"><path d="M40.707 46H45v5h-4.293Zm0 0"/></clipPath><clipPath id="e"><path d="M43 14h100.906v103.148H43Zm0 0"/></clipPath><clipPath id="f"><path d="M59.43 37.715h44.12v39.633H59.43Zm0 0"/></clipPath><clipPath id="g"><path d="M165 58.691h15.668V79H165Zm0 0"/></clipPath><clipPath id="h"><path d="M128.684 117H153v17.223h-24.316Zm0 0"/></clipPath></defs><g fill="#fff" clip-path="url(#a)"><path d="M.266 0h224.347v179.48H.266Zm0 0"/><path d="M.266 0h224.347v172H.266Zm0 0"/><path d="M.266 0h224.347v172H.266Zm0 0"/></g><path fill="#c8a2c8" d="M80.82 14.625a3.212 3.212 0 0 0-.074-.422c-.203.227-.133.348.074.422Zm0 0"/><g clip-path="url(#b)"><path fill="#c8a2c8" d="m98.637 14.152.87.008c.083.016.134.024.169.027.011 0 .023-.003.035-.003.004-.059-1.668-.543-1.719-.032.016 0 .031 0 .047-.004.164.004.379.004.598.004Zm0 0"/></g><path fill="#c8a2c8" d="M90.281 14.5a3.048 3.048 0 0 0-.648-.188c.183.063.402.126.648.188ZM95.105 15.04a7.66 7.66 0 0 0-1.988-.298c-.32.012-.644.043-.976.102l.011.023c.461.063.938.117 1.418.145.516.047 1.032.05 1.535.027Zm0 0"/><g clip-path="url(#c)"><path fill="#c8a2c8" d="m88.117 14.598.645-.145s-.227-.316-.457-.629c-.23-.312-.465-.625-.465-.625-1.93.031-1.695.559-1.492 1.102.097.27.187.547 0 .77.12-.036.242-.067.359-.098l1.41-.375Zm0 0"/></g><path fill="#c8a2c8" d="M86.348 15.074v-.004c-.383.102-.75.207-1.035.309l-.633.2c.507-.052.875-.126 1.14-.216.266-.082.43-.175.528-.289ZM118.797 111.54c-.113.16-.281.343-.469.53.2-.062.39-.136.57-.246ZM118.531 110.82l.266.72c.23-.353.242-.622-.266-.72ZM111.973 114.094c-.524.539-1.082 1.027-1.082 1.027.484-.094 1.289-.336 1.836-.691.546-.356.828-.82.289-1.39l-1.043 1.054ZM128.117 96.031l-.472-.324c.027.207.14.352.472.324ZM47.375 45.336a1.15 1.15 0 0 0-.188-.332c0-.004.07.129.188.332ZM92.754 115.383l-.059-.082c-.004.035.016.058.059.082ZM120.063 24.07l.226-.226a.488.488 0 0 0-.227.226ZM141.156 77.703c-.031.004-.058.004-.09.008-.004.043-.004.09-.004.137.032-.047.06-.094.094-.145ZM140.527 82.078c.211-1.277.438-2.828.532-4.16 0-.023 0-.047.004-.07-.454.675-.657 1.242-.672 1.867-.016.672.09 1.398.136 2.363ZM136.684 92.516c.101.082.218.168.351.25-.015-.305-.152-.34-.351-.25ZM133.797 92.055s.355-.5.691-1.012l.649-1.043c.425.594.164 1.309-.157 1.941-.308.637-.613 1.223-.183 1.676.52.156 1.402-.87 1.887-1.101-.852-.692-.602-1.391-.438-1.954.184-.632.238-1.078-1.5-1.148a8.758 8.758 0 0 0-.226.469c-.258.578-.485 1.265-.723 2.172ZM136.523 84.578c-.09.93-.253 1.645-.457 2.246-.16.41-.336.766-.515 1.106.195-.11.398-.137.61-.168.538-.082 1.16-.168 1.593-1.817l-.613-.691c-.309-.336-.618-.676-.618-.676ZM134.7 89.414h.046c.191-.371.39-.703.57-1.047.079-.144.157-.289.235-.441a1.22 1.22 0 0 0-.176.125c-.25.21-.441.617-.676 1.363ZM127.906 101.129c.219-.234.426-.488.621-.762l-.027-.008c-.367.278-.742.579-1.105.899a10.94 10.94 0 0 0-1.102 1.066c.305-.172.605-.363.898-.582a8.03 8.03 0 0 0 .715-.613ZM130.086 99.293c.2-.082.398-.191.59-.324a8.87 8.87 0 0 0-.59.324Zm0 0"/><path fill="#c8a2c8" d="M129.133 99.438c-.418-.086-.606-.415-.38-1.094l.942-.024.953-.039s-.007-.234-.011-.586a21.722 21.722 0 0 0-.067-1.28 86.01 86.01 0 0 0-.152-1.833c.02.656-.215 1.203-.535 1.668-.317.469-.766.824-1.121 1.172-.715.691-1.2 1.246-.239 2.266l-.742.156c-.367.074-.734.144-.734.144a69.893 69.893 0 0 0 1.453.371 18.24 18.24 0 0 1 1.586-1.066c-.348.144-.688.203-.953.144ZM124.422 105.445l-.621.614c-.07.046-.114.078-.137.097-.008.008-.016.02-.023.031.039.04 1.562-.796 1.238-1.195l-.035.035c-.114.114-.27.266-.422.418ZM133.281 94.57c-.324.399-.531.707-.656.957-.129.25-.176.434-.164.578v.008c.2-.347.383-.68.516-.953.183-.351.304-.59.304-.59ZM133.008 96.656c-.262-.12-.52-.258-.547-.543-.059.106-.121.215-.184.32-.265.462-.53.919-.73 1.262l-.356.559a77.748 77.748 0 0 0 1.54.234c1.343-1.386.804-1.59.277-1.832ZM41.297 50.84a4.235 4.235 0 0 1-.043-.707c-.098.183-.18.37-.234.578ZM41.992 51.16l-.695-.32c.082.41.266.61.695.32Zm0 0"/><g clip-path="url(#d)"><path fill="#c8a2c8" d="M43.488 48.02c.664-.512.93-.961-.093-1.762l-.622 1.094c-.156.273-.308.55-.425.753-.118.208-.192.348-.192.348-.953-.492-1.426-.742-.605-2.117-.559.152-.645 1.707-.758 2.527l.34-.492c.148.45.113 1.156.12 1.762.524-1.004 1.556-1.613 2.235-2.113Zm0 0"/></g><path fill="#c8a2c8" d="m44.324 45.691-.008-1.48a21.76 21.76 0 0 1 .036-1.496c-.274.41-.672 1.148-.805 1.789-.137.637-.008 1.164.777 1.187ZM47.168 43.531c.273-.418.559-.789.55-1.273-.683.433-.667.16-.468-.309.203-.469.582-1.136.578-1.5-2.375 1.848-.07 1.516-.66 3.082ZM47.168 43.531a2.452 2.452 0 0 0-.313.633c.157-.246.243-.445.313-.633ZM56.996 29.707l.098.02c-.02-.028-.055-.036-.098-.02Zm0 0"/><g clip-path="url(#e)"><path fill="#c8a2c8" d="M143.54 62.43c-.22-.594-.47-1.293-.638-1.97-.164-.67-.199-1.335.098-1.882l-1.047.2a4.536 4.536 0 0 1-.02-.22c-.09-1.25-.148-2.042-.14-2.578-.012-.562.023-.84.074-1.093.051-.25.106-.473.117-.926.004-.23-.004-.516-.03-.895a25.707 25.707 0 0 0-.208-1.425s-.394-.227-.789-.457l-.324-.18c-.067-.258-.133-.516-.207-.77l.02-.02-.137-.382a43.874 43.874 0 0 0-2.66-6.863 5.166 5.166 0 0 0-.82-1.649l.019.086a43.537 43.537 0 0 0-1.715-2.918.893.893 0 0 0 .18-.21 8.267 8.267 0 0 0-1.368-1.548 44.325 44.325 0 0 0-13.89-12.644c0-.004.007-.008.007-.012-.003 0-.007.008-.011.012-.438-.254-.88-.5-1.328-.738.164-.184.347-.371.527-.559.941-.969 1.914-2.008.012-2.816.726.89.383 1.672-.262 2.132-.648.465-1.57.582-2.168.153a.412.412 0 0 1 .008.144c-.262-.125-.524-.25-.79-.367.634-.215.747-.613.516-1.023-.242-.438-.87-.89-1.609-1.035.305.14.55.308.738.496.188.191.317.398.39.597.138.36.09.696-.112.93a55.678 55.678 0 0 0-1.203-.516l-.258-.187c.129-.05.27-.145.433-.3.442-.74-.312-1.56-1.382-2.349-.543-.378-1.153-.77-1.723-1.148-.574-.355-1.102-.715-1.461-1.086-.77-.102-1.188.031-1.488.246-.301.223-.493.563-.82.985-.079-.5-.473-.93-.887-1.32-.41-.391-.836-.782-.95-1.29-.851.18-1.558.184-2.21.078-.649-.11-1.235-.336-1.833-.515-.597-.188-1.199-.38-1.855-.43-.203-.008-.41 0-.621.016 0 .004-.016.007-.04.004a4.86 4.86 0 0 0-1.503.386c-.137-.187-.188-.324-.18-.422l-.222.008.183.207c-.59.344-1.289.535-2.043.613-.262.028-.531.043-.805.06a6.2 6.2 0 0 1 .704.237c.16.067.308.145.46.22-.43.034-.968.108-1.511.171-.77.082-1.528.2-1.965.27-.07-.122-.164-.278-.258-.438-.168-.281-.336-.555-.383-.633a17.67 17.67 0 0 1-1.87-.367c.343.145.624.344.773.57.11.168.14.332.086.496-.118.008-.235.016-.352.02-.25.02-.5.027-.75.039-.059-.05-.113-.105-.172-.16-.351-.324-.703-.645-.703-.645l-.402.422a18.83 18.83 0 0 0-.426.453c-.856.032-1.703.09-2.531.121a29.82 29.82 0 0 0-3.067.352c-.797.164-1.535.36-2.199.625.29-.262.684-.426 1.078-.555.672-.23 1.301-.433 1.317-1.054-.258-.48-1.606-.375-2.114-.559.114 1.094-.554 1.41-1.074 1.691-.52.29-.855.543-.035 1.543-.055.172-.05.313.074.395-.32.098-.629.18-.93.273-.16.047-.316.094-.476.145a.85.85 0 0 0 .21.035c.302.027.688-.102 1.294-.406.207.066.582.047 1.242-.102-.777.766-1.785 1.028-2.887 1.043-.418.024-.851.016-1.281-.004.094-.05.188-.105.277-.148.403-.176.778-.305 1.145-.418-.215-.063-.379-.184-.55-.313-.438-.324-.938-.699-2.411.16 0 0-.016.301-.04.657-.14 0-.28-.008-.413-.004l.176-.3c.105-.18.25-.415.402-.645.3-.465.605-.93.605-.93-2.671.918-5.734 1.535-8.64 2.586-2.895 1.027-5.617 2.453-7.348 4.492l1.387.406c-.23.196-.465.383-.7.563-.234.187-.464.375-.699.554-.468.36-.945.696-1.421 1.016-.93.672-1.872 1.273-2.727 1.879-.844.625-1.656 1.187-2.29 1.8-.636.61-1.148 1.212-1.452 1.825 1.863-.563 1.613.07.894.945-.172.227-.37.469-.582.715a1.75 1.75 0 0 1-.215.082l.094.063c-.594.699-1.207 1.402-1.281 1.797.34-.27.684-.57 1.023-.891.215-.207.426-.426.633-.652l.414.285c-.906 1.047-1.46 1.691-1.867 2.09-.39.402-.61.574-.824.718-.211.14-.41.258-.738.575a8.51 8.51 0 0 0-.61.652c-.234.293-.52.664-.863 1.152l.234.883c.063.219.121.438.168.602.051.164.082.273.082.273.098.152.211-.914.489-1.945.261-1.04.78-1.989 1.464-1.594-.054.387-.128.773-.222 1.164-.09.398-.18.8-.29 1.207-.105.406-.222.816-.343 1.23-.121.415-.219.84-.328 1.262-.106.426-.207.852-.3 1.274-.087.43-.145.86-.2 1.289-.047.426-.082.851-.09 1.27-.008.417.031.84.086 1.245 0 0-.508-.75-.98-1.53a70.43 70.43 0 0 1-.731-1.243c.219.602-.285 1.137-.914 1.86-.379.421-.816.902-1.195 1.48a5.372 5.372 0 0 0-.75 2.05l.738-1.226c.187-.305.367-.605.516-.828.148-.223.25-.371.25-.371.417.699.566 1.504.515 2.37-.066.864-.246 1.813-.469 2.802-.058.246-.113.496-.171.746l-.141.761a23.52 23.52 0 0 0-.215 1.528c-.094 1.015-.02 2.012.273 2.894.083-.941.168-1.882.93-1.968.067.082.117.183.156.289 0 .351.024.422.102.375.059.379.035.828-.047 1.297-.125.8-.36 1.66-.601 2.3a1.092 1.092 0 0 1-.278-.086c-.101-.632-.058-1.254.38-2.113l-.763.125-.757.133c.011.148.023.289.039.434v-.004c-.293-.801-.336-1.813-.403-2.786-.09-1.941-.004-3.726-1.136-3.449a8.533 8.533 0 0 0-.024 3.02c.188.976.469 1.898.774 2.758.324.859.644 1.648.836 2.375.207.726.308 1.39.152 2.011 0 0-.406-.492-.813-.98-.199-.25-.402-.504-.554-.692-.157-.191-.246-.316-.246-.316s.023.121.078.309c.05.187.12.433.191.68.137.491.277.98.277.98l.098-.582c.652.406.617 1.023.516 1.746-.09.722-.282 1.555-.016 2.316 0 0-.418-.222-.832-.449-.418-.23-.832-.465-.832-.465s.008.188.027.465c.024.281.032.656.079 1.027.082.743.167 1.485.167 1.485l.38-.43c1.288 4.656 2.054 8.602 2.675 13.043 0 0-.02-.164-.047-.41-.027-.25-.074-.574-.093-.906-.047-.66-.09-1.32-.09-1.32.375.1.875 1.378 1.113 2.546.395-.344.203-1.203.113-2.012-.09-.671-.164-1.277.067-1.476.207 1.168.46 2.332.761 3.484.016.27.028.54.032.809.015.617.054 1.23.129 1.957.039.363.09.754.168 1.183.09.422.207.88.355 1.391.273.031.48-.426.738-.879.29.766.606 1.524.938 2.274-.254.175-.649.164-1.336-.23 1.156 1.038 1.195 1.648 1.27 2.171.078.52.214.938 1.523 1.48-.227-.19-.39-.597-.551-1a.727.727 0 0 1 .129-.253 45.632 45.632 0 0 0 1.777 3.148c.016.875.192 1.754.918 2.895 0 0 .223.195.563.488.34.289.812.648 1.277 1.015.356.29.715.563 1.024.793.242.286.488.567.734.848-.117.098-.277.125-.277.125.437.352.855.723 1.27 1.102.429.363.843.742 1.253 1.125.066.066.137.125.203.191l.293.281c.031.207.164.414.465.578.121.063.23.114.328.149.008.008.02.02.031.027.375.34.75.676 1.114 1.012a31.605 31.605 0 0 0 2.418 1.918c.289.187.57.363.855.531a45.502 45.502 0 0 0 3.523 2.195v.024c.102.05.207.094.305.14.512.282 1.024.551 1.543.81-.418.085-.77.16-.77.16 2.536 1.241 5.141 2.968 7.938 4.28 2.774 1.317 5.707 2.239 8.375 2.02l-.695-1.27c.3.028.597.06.894.098.297.031.59.059.883.102.586.078 1.16.176 1.723.285 1.133.183 2.226.426 3.261.601 1.036.153 2.008.329 2.891.344.879.02 1.668-.043 2.317-.265-1.715-.914-1.09-1.184.035-1.297 1.132-.16 2.812-.157 3.285-.477-.434-.05-.887-.078-1.356-.094a14.71 14.71 0 0 0-1.43.043c-.964.075-1.937.141-2.808.254-1.512.153-2.723.274-2.992.14l.105.145s-.394.043-.988.067c-.594.027-1.394.066-2.195.09l-2.207-.012c-.305 0-.559-.008-.735-.02-.175-.007-.277-.015-.277-.015l.203-.774a44.34 44.34 0 0 0 15.594-1.296c0 .003 0 .011.004.015v-.016c.488-.132.972-.269 1.457-.417.015.246.02.503.023.77.02 1.347.067 2.769 1.985 1.995-1.145-.113-1.453-.91-1.325-1.691.133-.79.7-1.524 1.426-1.64a.48.48 0 0 1-.11-.099c.274-.093.548-.195.821-.296-.297.593-.094.96.356 1.086.375.109.921.054 1.441-.168.606.164.406.332-.031.511-.477.188-1.215.39-1.473.649 2.578.324 1.547-.668 2.192-1.39.46.077 1.039.042 1.671-.056.649-.113 1.356-.27 2.028-.406.547-.129 1.07-.226 1.527-.254-.176.192-.246.54-.172 1.133 0 0 .606-.168 1.211-.332.305-.086.61-.172.836-.234.227-.063.379-.11.379-.11.328 1.024.488 1.535-1.066 1.926.5.285 1.66-.75 2.32-1.254l-.586.11c.21-.422.738-.899 1.16-1.332-1.078.343-2.242.042-3.074-.083a2.913 2.913 0 0 0-.504-.027c.438-.387.598-.723.648-1.031.055-.371-.05-.75-.117-1.277.41.296.992.32 1.559.304.57-.015 1.148-.039 1.586.242.476-.726.972-1.234 1.508-1.617.535-.383 1.113-.636 1.66-.933.554-.29 1.117-.579 1.617-1.008.148-.137.289-.29.43-.453-.004 0 .004-.012.023-.028.3-.363.574-.793.79-1.336.23.036.359.094.425.172l.152-.164-.277-.015c.172-.66.535-1.29 1.012-1.875.164-.207.343-.41.527-.614a6.22 6.22 0 0 1-.668.328c-1.117.45-2.238.707-3.348.829-.672.085-1.304.156-1.894.23.523-.473 1.039-.965 1.547-1.469.304.215.601.418.601.418a13.6 13.6 0 0 0 1.254-1.691c.352-.567.649-1.18.95-1.785a44.958 44.958 0 0 0 2.714-3.614l.196.137c-.024-.144.261-.52.726-1.11.234-.288.52-.624.848-1l1.047-1.277.035-.046a44.146 44.146 0 0 0 7.941-11.965c.012-.008.028-.02.043-.028.227-.16.45-.328.594-.293.144.036.21.278.055.926.02.375.234-.586.257-1.691.02-.387.016-.793-.015-1.164.129-.336.254-.672.375-1.012.219.465.664.727 1.515.664.051-1.242-.004-2.266-.34-2.652l.301.226s-.18-.59-.492-1.379c.195-.71.371-1.43.531-2.152.368.652.805 1.047 1.446.715l-.547-1.153a17.206 17.206 0 0 0-.395-.773l-.187-.348c1.293.782.941-2.207 1.91-1.648 0 0-.016-.098-.05-.27-.036-.168-.087-.414-.15-.703-.132-.586-.269-1.36-.48-2.125-.195-.73-.375-1.449-.539-2.004.012-.37.016-.742.016-1.113l.91-.246-.203.785-.14.54a13.54 13.54 0 0 1-.075.241c.766.356 1.11.36 1.211.11.11-.246-.035-.738-.254-1.328ZM53.854 43.879c.145-.418.286-.82.383-1.23.024-.09.043-.18.067-.274.351-.234.68-.129.949.7 0 0-.516.476-1.035.952-.274.274-.54.547-.73.739.14-.297.269-.59.366-.887Zm.72-2.719c.07-.289.136-.578.206-.855.055-.211.117-.418.18-.621.11.687-.066 1.136-.387 1.476Zm2.425.606c.2-.024.43.015.7.129-.25.289-.5.578-.747.87.004-.18.008-.363.02-.546.007-.153.015-.305.027-.453Zm-6.137 9.96c.07-.527.063-1.12.032-1.734-.02-.777-.09-1.59-.118-2.32-.004-.09 0-.176 0-.266.106-.238.223-.449.348-.597a1.816 1.816 0 0 0-.336.144c.023-.422.07-.793.168-1.066.078.238.426-.25.848-.793.418.148.847-.453 1.28-1.149.18.032.278.309.235.989l-.093.093c.03 0 .058-.004.086-.004-.004.04-.004.075-.008.114.02-.04.035-.078.058-.117.723-.04 1.192-.301 1.551-.649.387-.367.629-.851.852-1.312.203-.414.402-.793.672-1.036-.008.028-.02.055-.032.086-.12.356-.226.746-.343 1.13-.106.35-.208.699-.31 1.027-.183.242-.362.48-.542.726a.478.478 0 0 1-.129.028c-.004.054.004.093.012.136a43.725 43.725 0 0 0-4.02 6.754 1.58 1.58 0 0 1-.21-.183Zm90.328.739c.512.86.813 1.82.227 2.105a41.933 41.933 0 0 0-.55-2.633c.109.168.218.344.323.528Zm-26.71-31.098-.086-.035c.011-.004.023-.004.039-.008.015.016.03.028.046.043Zm-1.098-.91a4.314 4.314 0 0 1-.16-.121s.066.055.172.137c.035.05.07.101.105.156.11.176.223.351.348.488-.516-.199-1.04-.39-1.567-.57.5-.723.817-.492 1.102-.09Zm-20.746-4.492c-.137.023-.215.039-.215.039a.329.329 0 0 1-.067-.227c.098.067.196.133.282.188Zm-.973-.637s.117.078.285.184c-.101.008-.199.02-.3.027.007-.066.011-.137.015-.21Zm-23.648 6.016c-.098.082-.192.164-.29.242-.023-.023-.038-.043-.062-.066a2.95 2.95 0 0 1 .352-.176Zm-2.805 2.152c.281-.09.566-.164.836-.238-.25.328-.414.62-.43.855l-.055-.37s-.308.573-.656 1.39a12.353 12.353 0 0 0-.836 2.926c.23-.653.696-1.258 1.22-1.817.542-.539 1.144-1.031 1.624-1.504.766-.699 1.266-1.363.871-2.11.3-.218.375-.491.102-.855a3.2 3.2 0 0 0 1.133-.601c.5.039.906.281 1.175.594a8.52 8.52 0 0 0-.547.488c-.82.734-1.59 1.707-1.406 2.105.375-.074.723-.71 1.168-1.148.438-.445.93-.75 1.469-.215 1.187-.668.723-.738.176-.844.043-.027.078-.05.12-.082.391-.246.91-.578 1.43-.906.52-.34 1.06-.648 1.465-.875l.68-.383c.71.453.21 2.282-.34 2.34-.45.129-.926.395-1.426.688-.5.296-1.03.605-1.562.902-1.059.594-2.168.988-3.328.676-.48.761.035.992.304 1.261.274.282.29.563-1.054 1.493-1.942.3-3.762 1.172-5.422 2.254.058-.622.422-1.446.734-2.25.477-1.165.871-2.27-.133-2.586 0 0-.214.601-.43 1.199l-.116.344c-.5-1.418 1.418-2.23 3.234-2.73Zm-4.684 2.27c.215-.215.399-.387.532-.504l.207-.184.699 1.192a13.2 13.2 0 0 0-.14.44c-.067.227-.114.38-.114.38-.344-1.399-2.047.672-2.461-.063.469-.465.922-.91 1.277-1.261Zm-3.71 3.914s.25-.309.656-.746c.37-.407.855-.946 1.363-1.485-.059.086-.117.18-.188.285-.316.504-.77 1.149-1.16 1.84-.398.684-.8 1.36-1.082 1.875-.27.524-.453.871-.453.871l-.887-.508a94.2 94.2 0 0 0 .43-.523.343.343 0 0 0 .04-.023c.175-.102.347-.203.48-.278l.222-.125a5.032 5.032 0 0 0-.125-.308c.41-.477.723-.793.883-.848Zm-8.532 23.918c.797-2.426.594.87 1.531-.035a1.52 1.52 0 0 0 .532-.442c.011.11.02.223.02.34a43.017 43.017 0 0 0-.934 2.344c-.293.129-.559.023-.762-.262-.137-.195-.25-.473-.324-.809a4.421 4.421 0 0 1-.063-1.136Zm30.52 59.793c.203.054.41.113.617.171 0 .024-.004.043-.004.067a2.868 2.868 0 0 1-.613-.238Zm4.64 1.046c.965.165 1.93.293 2.899.391-.676.457-1.79.14-2.899-.39Zm24.813-1.433c-.125.023-.25.039-.367.039a1.793 1.793 0 0 1-.7-.148c-.351-.157-.554-.43-.578-.739a39.628 39.628 0 0 0 1.586-.644c-.086.133-.14.332-.148.625.078.312.281.515.578.636a1.278 1.278 0 0 0-.371.23Zm1.074-1.629c-.203-.043-.406-.09-.594-.098a37.753 37.753 0 0 0 1.512-.703c.18.985-.344.93-.918.801Zm0 0"/></g><path fill="#c8a2c8" d="M102.258 113.582v.32a.498.498 0 0 0 0-.32Zm0 0"/><g clip-path="url(#f)"><path fill="#fff" d="M98.3 37.719H64.685a5.287 5.287 0 0 0-4.368 2.32 5.1 5.1 0 0 0-.484.898 5.177 5.177 0 0 0-.402 1.996V63.79c0 .34.035.68.101 1.016a5.328 5.328 0 0 0 .785 1.879c.192.285.41.546.657.789.242.242.507.457.793.648.289.192.59.352.91.48.316.133.644.231.984.301.336.067.68.098 1.024.098h9.98l5.988 7.926c.098.133.223.234.371.308.145.075.305.11.47.11.163 0 .32-.035.468-.11.148-.074.273-.175.371-.308L88.32 69h9.98c.345 0 .684-.031 1.024-.098.34-.07.668-.168.985-.3.32-.13.62-.29.91-.48a5.271 5.271 0 0 0 1.933-2.34c.133-.317.23-.641.297-.977a4.95 4.95 0 0 0 .102-1.016V42.934c0-.344-.031-.684-.102-1.016a5.067 5.067 0 0 0-.785-1.879 5.271 5.271 0 0 0-1.445-1.441 5.62 5.62 0 0 0-.91-.48 5.317 5.317 0 0 0-2.008-.398Zm3.153 26.07a3.141 3.141 0 0 1-.926 2.211c-.297.293-.636.52-1.023.676-.383.16-.785.238-1.203.242H87.793c-.348 0-.629.137-.84.414l-5.46 7.23-5.466-7.23a.993.993 0 0 0-.84-.414H64.684A3.2 3.2 0 0 1 62.457 66a3.085 3.085 0 0 1-.684-1.016 3.07 3.07 0 0 1-.242-1.195V42.934a3.103 3.103 0 0 1 .926-2.211 3.11 3.11 0 0 1 1.02-.68c.386-.16.789-.238 1.207-.238H98.3a3.168 3.168 0 0 1 2.91 1.93c.16.386.238.785.242 1.199ZM86.746 49.187a5.215 5.215 0 0 1-2.148 4.208 4.515 4.515 0 0 0-1.457 1.554 4.445 4.445 0 0 0-.598 2.035v.547c0 .137-.027.27-.082.399a1.057 1.057 0 0 1-.566.566 1.085 1.085 0 0 1-.805 0 1.057 1.057 0 0 1-.57-.566 1.08 1.08 0 0 1-.079-.399v-.547A6.508 6.508 0 0 1 81.258 54a6.502 6.502 0 0 1 2.097-2.285c.215-.156.41-.34.579-.547a3.126 3.126 0 0 0 .664-1.438c.047-.261.058-.527.035-.792a2.996 2.996 0 0 0-.164-.782c-.09-.25-.211-.488-.36-.71a3.202 3.202 0 0 0-1.191-1.047 3.204 3.204 0 0 0-1.555-.337 3.178 3.178 0 0 0-1.52.461 3.15 3.15 0 0 0-1.402 1.875 3.192 3.192 0 0 0-.101.79c0 .14-.028.273-.078.402a1.096 1.096 0 0 1-.23.336.998.998 0 0 1-.34.226 1.012 1.012 0 0 1-.403.078c-.14 0-.273-.023-.402-.078a.998.998 0 0 1-.34-.226 1.02 1.02 0 0 1-.227-.336 1.015 1.015 0 0 1-.082-.403c0-.34.035-.68.102-1.015.066-.336.168-.66.3-.977.13-.316.294-.617.485-.902a5.265 5.265 0 0 1 2.355-1.922c.32-.129.649-.226.989-.297.336-.066.68-.097 1.023-.097.344 0 .688.03 1.024.097.34.07.668.168.984.297a5.348 5.348 0 0 1 1.707 1.133c.242.242.461.504.652.789a5.277 5.277 0 0 1 .786 1.879c.066.336.101.676.101 1.016Zm-4.203 13.56c0 .136-.027.269-.082.398-.05.128-.129.238-.227.34a.987.987 0 0 1-.34.222 1.015 1.015 0 0 1-.804 0 1.048 1.048 0 0 1-.57-.563 1.05 1.05 0 0 1 0-.797 1.057 1.057 0 0 1 .57-.566 1.085 1.085 0 0 1 .805 0 1.057 1.057 0 0 1 .566.567.983.983 0 0 1 .082.398Zm0 0"/></g><g clip-path="url(#g)"><path fill="#c8a2c8" d="M180.754 58.824c-.2-.09-.426-.105-.64-.12-.29-.005-.579-.013-.868.01-.61.079-1.2.247-1.785.423-1.649.511-3.234 1.191-4.813 1.89a98.54 98.54 0 0 0-5.726 2.828c-.469.254-.942.497-1.39.774 1.6-.734 3.21-1.445 4.827-2.145a113.01 113.01 0 0 1 4.024-1.66c1.332-.508 2.676-1.008 4.066-1.344.516-.109 1.047-.214 1.578-.171-.843.464-1.699.918-2.449 1.53-1.023.817-1.883 1.9-2.238 3.184a488.838 488.838 0 0 0-3.313 12.973c-.101.442-.21.883-.3 1.324 1.3-4.101 2.515-8.23 3.695-12.37.176-.61.344-1.22.523-1.829.328-1.066 1.043-1.969 1.89-2.668.638-.527 1.349-.96 2.075-1.355.278-.157.563-.297.824-.48.141-.098.274-.24.274-.423.004-.164-.113-.304-.254-.37Zm0 0"/></g><path fill="#c8a2c8" d="M170.45 63.406c.034-.027.038-.062.007-.11a113.715 113.715 0 0 0-7.77 5.665 69.281 69.281 0 0 0-3.265 2.781c-1.094 1-2.156 2.04-3.121 3.164-.461.551-.903 1.117-1.285 1.723-.34.555-.668 1.121-1.036 1.66-1.117 1.676-2.402 3.223-3.57 4.863-.887 1.243-1.7 2.547-2.367 3.926a18.935 18.935 0 0 0-1.926 7.973c.02.004.059.004.078.008.254-1.77.668-3.516 1.309-5.184a23.84 23.84 0 0 1 2.234-4.352c1.606-2.511 3.528-4.796 5.07-7.351.278-.453.524-.926.801-1.375.825-1.297 1.856-2.438 2.914-3.535a61.156 61.156 0 0 1 3.457-3.219c2.715-2.352 5.555-4.547 8.47-6.637ZM162.89 75.766c-.113-.086-.23-.164-.347-.25a453.362 453.362 0 0 0-8.27 12.53c-1.628 2.571-3.23 5.161-4.75 7.802a77.284 77.284 0 0 0-2.18 4.043 80.315 80.315 0 0 0-2.062 4.671c-1.222 2.981-2.336 6-3.46 9.02-.06.145-.016.316-.118.445-.144.16-.18.375-.262.567-.254.676-.507 1.347-.77 2.02-.526-.016-1.054-.028-1.581-.087.36-.785.691-1.582 1.05-2.367.067-.12.048-.27.11-.39.043-.09.133-.149.176-.235a469.99 469.99 0 0 1 3.3-7.117c.27-.563.528-1.129.829-1.672 2.937-5.531 5.875-11.062 8.808-16.598-.125-.066-.246-.136-.37-.199-3.04 5.719-6.075 11.438-9.11 17.153a504.632 504.632 0 0 0-3.082 6.585c-.324.692-.63 1.391-.953 2.083a21.843 21.843 0 0 0-3.07.34c-.66.136-1.321.288-1.93.578-.246.124-.489.277-.63.523.227-.328.602-.488.962-.621.699-.25 1.433-.375 2.164-.477a23.172 23.172 0 0 1 2.437-.18c-.386.848-.761 1.704-1.129 2.563-.968-.098-1.937-.238-2.87-.512-.329-.101-.657-.21-.954-.386-.101-.075-.23-.145-.266-.278-.113.008-.222.024-.335.04 0-.067 0-.133-.004-.2-.004.067-.004.133-.008.2a6.372 6.372 0 0 0-.383.042c.02.243.152.461.336.618.3.257.676.402 1.043.53 1.031.325 2.11.462 3.18.552-.286.722-.61 1.433-.809 2.187-.082.473-.14.95-.16 1.43.016.265.027.566.234.758.188.183.48.156.707.07.266-.106.547-.23.723-.469.246-.32.43-.683.605-1.043.45-.926.836-1.883 1.207-2.844 1.77-.046 3.559-.16 5.278-.625.418-.12.836-.261 1.215-.488.21-.133.425-.305.5-.558.07-.23-.043-.48-.215-.637-.281-.262-.653-.403-1.012-.528-.926-.296-1.898-.425-2.863-.523-.528-.039-1.059-.086-1.59-.094 1.223-3.261 2.422-6.531 3.762-9.742.597-1.422 1.21-2.832 1.898-4.21a84.375 84.375 0 0 1 2.324-4.247c1.7-2.922 3.489-5.785 5.309-8.633a458.124 458.124 0 0 1 7.387-11.14m-18.383 38.43c.746.124 1.496.269 2.203.542.277.114.566.239.766.473a.215.215 0 0 1 0 .289c-.141.172-.344.273-.543.363-.45.196-.926.309-1.403.407-.886.168-1.789.273-2.687.304l-.028.016c-.562.012-1.129.043-1.691.027.34-.883.672-1.765 1.004-2.652.797.031 1.594.117 2.379.23m-4.063 2.993c-.43 1.074-.847 2.156-1.398 3.175-.16.254-.305.559-.598.68-.156.066-.34.191-.515.117-.118-.207-.086-.457-.079-.683.028-.29.055-.579.102-.864.023-.277.125-.539.215-.797.187-.52.398-1.027.605-1.535.028-.054.036-.117.086-.152.528.047 1.055.047 1.582.058ZM171.54 78.102c-.083.003-.165 0-.243.02-1.719.366-3.418.855-5.04 1.534-.679.297-1.366.614-1.94 1.094-.215.191-.465.445-.403.766.066.285.367.414.625.472.664.137 1.348.094 2.016.051 1.43-.11 2.847-.34 4.242-.664-1.703.074-3.406.242-5.113.21-.414-.034-.856-.01-1.246-.194.234-.286.55-.485.863-.676a16.752 16.752 0 0 1 1.742-.86c1.367-.597 2.77-1.109 4.156-1.648.11-.047.223-.082.34-.105Zm0 0"/><path fill="#c8a2c8" d="M170.148 81.996c-.984 2.25-1.738 4.594-2.64 6.875-.262.64-.52 1.293-.903 1.875-.046.102-.171.074-.261.102-1.285.257-2.563.617-3.77 1.14-.508.23-1.02.48-1.433.856-.16.156-.328.351-.305.59.012.222.207.379.402.445.395.137.817.137 1.23.137.973-.02 1.934-.168 2.891-.336-.523.656-1.035 1.32-1.582 1.957a36.616 36.616 0 0 1-3.375 3.543c-.64.566-1.3 1.11-2 1.601-.699.477-1.433.903-2.191 1.281-1.504.778-3.074 1.415-4.664 2-1.164.43-2.348.82-3.535 1.196-.203.058-.407.137-.617.168.207.015.406-.043.609-.07a35.843 35.843 0 0 0 5.324-1.403c1.488-.531 2.953-1.148 4.328-1.941 1.399-.813 2.645-1.864 3.766-3.028a27.33 27.33 0 0 0 3.976-5.324c.243-.043.485-.105.727-.156-.512-.02-1.023.023-1.535.027-.8.012-1.602.04-2.403-.008-.257-.027-.523-.046-.769-.132-.012-.043 0-.079.035-.102.332-.32.75-.535 1.152-.75 1.204-.598 2.465-1.07 3.704-1.578.113-.047.238-.066.343-.137a5.917 5.917 0 0 0 1.07-1.34c.743-1.246 1.262-2.617 1.688-4 .305-1.015.555-2.054.707-3.105.02-.125.035-.254.031-.383ZM143.27 88.121c-.184-.062-.36.125-.364.305a41.375 41.375 0 0 0-.164 3.34c-.008 1.074-.012 2.152.051 3.226.055.988.144 1.98.344 2.953.11.47.218.961.5 1.364-.196-.446-.246-.934-.293-1.414-.094-1.036-.074-2.075-.074-3.11.011-.715.035-1.433.042-2.148l.016-.028c.008-.546.04-1.09.063-1.636.59 1.433 1.433 2.746 2.37 3.972.231.297.466.59.716.868-.872-1.45-1.73-2.918-2.372-4.493-.265-.675-.507-1.367-.57-2.093-.023-.286.008-.567-.008-.852a.446.446 0 0 0-.257-.254Zm0 0"/><path fill="#c8a2c8" d="M141.738 94.277a.539.539 0 0 0-.254-.222c-.152-.047-.293.086-.343.222a4.369 4.369 0 0 0-.051.555l-.016.023c-.117 1.95-.168 3.907-.07 5.856.047 1.02.133 2.039.324 3.043.074.351.156.7.285 1.035.067.16.137.324.254.457-.164-.316-.21-.676-.262-1.023-.14-1.176-.12-2.364-.113-3.547a78.26 78.26 0 0 1 .074-2.707c.012-.356.012-.715.051-1.07.098.312.254.601.395.894.375.758.824 1.48 1.3 2.176.434.617.88 1.222 1.383 1.777-.843-1.394-1.664-2.808-2.297-4.312-.324-.809-.636-1.645-.656-2.524-.015-.21.043-.426-.004-.633ZM139.16 101.305c-.07-.254-.472-.282-.566-.032-.106.325-.008.668.058.989.133 1.8.293 3.613.711 5.37.14.52.262 1.067.578 1.513-.136-.426-.187-.872-.238-1.313-.094-1.02-.16-2.043-.23-3.066-.028-.36-.055-.723-.07-1.082a10.59 10.59 0 0 0 1.617 1.828c-.625-.98-1.297-1.95-1.708-3.047-.07-.383-.054-.781-.152-1.16ZM152.543 106.14c.004-.14-.027-.3-.148-.382-.122-.043-.25.012-.348.086-.606.449-1.32.715-2.016.984-1.402.52-2.832.953-4.258 1.41-.296.082-.582.203-.882.262.414-.004.816-.113 1.222-.176 1.43-.27 2.844-.61 4.223-1.074-1.195.93-2.39 1.867-3.629 2.738-.219.157-.453.293-.668.457.8-.343 1.555-.777 2.293-1.238a42.191 42.191 0 0 0 3.566-2.52c.22-.18.45-.343.645-.546ZM150.52 109.055c-.157-.075-.313.035-.438.129-.625.445-1.355.707-2.062.976-1.387.508-2.797.938-4.204 1.387-.273.078-.543.187-.824.242.215.012.422-.043.633-.07a34.755 34.755 0 0 0 4.129-.957c.234-.059.457-.172.695-.207a2.79 2.79 0 0 0-.101.054c-1.164.918-2.34 1.829-3.555 2.684-.215.14-.418.305-.652.414.312-.07.586-.25.875-.387 1.386-.734 2.687-1.629 3.957-2.554.57-.43 1.156-.848 1.68-1.336.007-.137-.02-.285-.133-.375Zm0 0"/><g clip-path="url(#h)"><path fill="#c8a2c8" d="M136.734 117.309a67.05 67.05 0 0 0-2.62 3.394 63.495 63.495 0 0 0-2.65 3.934c-.648 1.05-1.26 2.12-1.78 3.246-.387.847-.739 1.722-.914 2.644-.063.32-.036.645-.04.97-.011.655.403 1.296 1 1.542.563.246 1.168.363 1.766.48 1.262.231 2.535.36 3.809.461 1.726.125 3.457.22 5.191.211 1.652-.007 3.309.032 4.961-.074a37.75 37.75 0 0 0 2.89-.234c.88-.113 1.762-.238 2.614-.504.394-.133.812-.277 1.098-.602.218-.25.214-.605.226-.918-.008-.863-.273-1.699-.562-2.504-.578-1.546-1.356-3.007-2.168-4.44a74.124 74.124 0 0 0-4.57-6.977c1.671 2.652 3.296 5.343 4.71 8.148.407.812.79 1.637 1.133 2.48.293.723.559 1.457.727 2.223.097.477.172.977.074 1.461-.024.133-.152.203-.258.27-.351.187-.746.285-1.133.375-1.054.226-2.136.328-3.215.41a67.673 67.673 0 0 1-5.035.168c-1.824.004-3.648-.051-5.468-.141a64.646 64.646 0 0 1-4.075-.363c-.726-.102-1.46-.211-2.164-.43-.215-.074-.449-.14-.605-.316a1.094 1.094 0 0 1-.324-.68c-.086-.656.082-1.313.265-1.938.371-1.19.922-2.316 1.496-3.421.735-1.403 1.555-2.754 2.399-4.09a113.772 113.772 0 0 1 3.222-4.785Zm0 0"/></g><path fill="#c8a2c8" d="M140.008 124.832c-.57.004-1.149-.078-1.719.02-.77.125-1.535.304-2.277.566-.348.137-.715.273-.996.535-.141.125-.145.32-.137.496.004.903 0 1.801 0 2.703 0 .243.05.489.168.7a1.31 1.31 0 0 0 1.16.68c3.262-.005 6.527 0 9.79 0 .655-.009 1.241-.595 1.253-1.259v-3.027c.012-.187-.152-.316-.29-.406-.35-.219-.75-.34-1.14-.457a15.46 15.46 0 0 0-2.449-.461c-1.121-.04-2.242-.063-3.363-.09Zm0 0"/><path fill="#fff" d="m79.042 85.582-1.906 6.421c-.031.106.016.157.14.157h3.579c.125 0 .172-.051.14-.157l-1.906-6.421c0-.008-.012-.016-.031-.016-.012 0-.016.008-.016.016Zm-2.64 8.921-.688 2.329c-.117.324-.309.59-.578.796a1.5 1.5 0 0 1-.906.297h-.657a.783.783 0 0 1-.671-.343.77.77 0 0 1-.11-.75l4.406-12.672c.102-.32.297-.582.579-.782a1.63 1.63 0 0 1 .968-.312h.735c.351 0 .672.105.953.312.281.2.476.461.594.782l4.39 12.672a.78.78 0 0 1-.11.75.747.747 0 0 1-.655.343h-.735c-.344 0-.652-.097-.922-.297a1.564 1.564 0 0 1-.562-.796l-.703-2.329c-.024-.101-.094-.156-.22-.156h-4.89c-.117 0-.187.055-.218.156ZM90.475 91.332v4.265c0 .117.055.184.172.203.477.075.926.11 1.344.11 1.133 0 1.96-.203 2.484-.61.52-.414.781-1.054.781-1.922 0-.757-.304-1.316-.906-1.671-.594-.364-1.59-.547-2.984-.547h-.719c-.117 0-.172.058-.172.172Zm0-5.954v3.485c0 .125.055.187.172.187h.578c1.258 0 2.172-.172 2.734-.515.563-.352.844-.868.844-1.547 0-.645-.23-1.125-.687-1.438-.45-.312-1.196-.468-2.235-.468-.398 0-.812.03-1.25.093-.105.032-.156.102-.156.203Zm7.516 8.266c0 1.5-.492 2.625-1.469 3.375-.98.742-2.508 1.11-4.578 1.11-1.024 0-2.063-.055-3.125-.157a1.248 1.248 0 0 1-.828-.422 1.308 1.308 0 0 1-.328-.89V84.332c0-.344.109-.641.328-.891.218-.25.492-.39.828-.422a29.23 29.23 0 0 1 2.922-.156c3.789 0 5.687 1.242 5.687 3.719 0 .835-.277 1.558-.828 2.171-.555.606-1.289.997-2.203 1.172-.012 0-.016.008-.016.016 0 .031.004.047.016.047 1.102.18 1.977.594 2.625 1.25.644.656.969 1.46.969 2.406ZM107.032 98.128c-2.325 0-4.188-.687-5.594-2.062-1.399-1.375-2.094-3.234-2.094-5.578 0-2.344.688-4.196 2.063-5.563 1.375-1.375 3.25-2.062 5.625-2.062 1.343 0 2.597.265 3.765.797.281.136.469.359.563.672.101.312.097.617-.016.906a.983.983 0 0 1-.594.562 1.046 1.046 0 0 1-.812-.047 6.204 6.204 0 0 0-2.656-.593c-1.532 0-2.75.48-3.657 1.437-.906.961-1.36 2.258-1.36 3.89 0 1.638.462 2.938 1.392 3.907.937.961 2.144 1.438 3.625 1.438.925 0 1.812-.196 2.656-.594.258-.125.531-.133.812-.031a.948.948 0 0 1 .594.546c.113.293.117.594.016.907-.094.312-.282.539-.563.672a8.983 8.983 0 0 1-3.765.796Zm0 0"/><path d="M23.797 155.663h-1.53c-.47 0-.891-.145-1.266-.438a1.855 1.855 0 0 1-.688-1.125l-4.047-17.562a1.144 1.144 0 0 1 .219-1.063c.258-.32.598-.484 1.016-.484h.828c.468 0 .875.152 1.218.453.352.305.579.68.672 1.125l2.844 14.906c0 .012.004.016.016.016.02 0 .031-.004.031-.016l2.75-14.906c.094-.445.312-.82.656-1.125.352-.3.77-.453 1.25-.453h1.688c.476 0 .89.152 1.234.453.352.305.578.68.672 1.125l2.75 14.906c0 .012.004.016.016.016.02 0 .03-.004.03-.016l2.845-14.906c.093-.445.312-.82.656-1.125.351-.3.765-.453 1.234-.453h.703c.414 0 .75.164 1 .484.258.313.344.668.25 1.063L36.797 154.1c-.093.461-.328.836-.703 1.125a1.944 1.944 0 0 1-1.25.438h-1.53c-.47 0-.884-.148-1.235-.453-.344-.3-.57-.68-.672-1.14l-2.828-14.891c0-.02-.012-.032-.032-.032-.011 0-.015.012-.015.032l-2.844 14.89c-.094.461-.32.84-.672 1.14-.344.306-.75.454-1.219.454ZM50.234 143.46c-1.125 0-2.011.414-2.656 1.234-.648.813-.969 2.016-.969 3.61 0 1.586.32 2.789.97 3.609.644.824 1.53 1.234 2.655 1.234 1.157 0 2.051-.41 2.688-1.234.645-.82.969-2.023.969-3.61 0-1.593-.324-2.796-.969-3.609-.637-.82-1.531-1.234-2.688-1.234Zm5.36 10.422c-1.324 1.375-3.11 2.062-5.36 2.062-2.242 0-4.015-.687-5.328-2.062-1.312-1.383-1.968-3.242-1.968-5.578 0-2.344.656-4.204 1.968-5.579 1.313-1.382 3.086-2.078 5.328-2.078 2.25 0 4.036.696 5.36 2.078 1.32 1.375 1.984 3.235 1.984 5.579 0 2.336-.664 4.195-1.984 5.578ZM64.224 149.225v4.829c0 .43-.164.804-.484 1.125a1.505 1.505 0 0 1-1.125.484h-.547c-.43 0-.805-.16-1.125-.484a1.53 1.53 0 0 1-.485-1.125v-11.5c0-.438.16-.817.485-1.141.32-.32.695-.484 1.125-.484h.312c.438 0 .813.164 1.125.484.313.324.477.703.5 1.14l.031 1.188c0 .024.004.031.016.031.02 0 .04-.007.063-.03 1.375-1.665 3.117-2.661 5.234-2.985.394-.051.742.062 1.047.343.3.282.453.633.453 1.047 0 .418-.152.778-.453 1.078a1.867 1.867 0 0 1-1.063.547c-1.648.243-2.914.84-3.797 1.797-.875.95-1.312 2.168-1.312 3.656ZM80.257 143.538c-1.074 0-1.914.398-2.516 1.187-.594.793-.89 1.985-.89 3.579 0 1.523.316 2.695.953 3.515.633.824 1.453 1.235 2.453 1.235 1 0 1.805-.399 2.422-1.204.613-.8.922-1.937.922-3.406v-.281c0-1.438-.309-2.566-.922-3.39-.617-.82-1.422-1.235-2.422-1.235Zm-1.047 12.406c-1.762 0-3.184-.664-4.266-2-1.086-1.332-1.625-3.21-1.625-5.64 0-2.5.52-4.399 1.563-5.704 1.05-1.3 2.492-1.953 4.328-1.953 1.75 0 3.18.711 4.297 2.125 0 .043.02.063.062.063.02 0 .032-.008.032-.031v-6.766c0-.438.156-.816.468-1.14.32-.32.703-.485 1.141-.485h.484c.438 0 .813.164 1.125.484.313.325.47.703.47 1.141v18.016c0 .43-.157.804-.47 1.125a1.505 1.505 0 0 1-1.125.484h-.25c-.46 0-.843-.156-1.156-.469a1.596 1.596 0 0 1-.484-1.14l-.032-.438c0-.008-.011-.016-.03-.016-.044 0-.063.008-.063.016-1.137 1.555-2.625 2.328-4.469 2.328ZM106.65 155.663h-1.532c-.469 0-.89-.145-1.266-.438a1.855 1.855 0 0 1-.687-1.125l-4.047-17.562a1.144 1.144 0 0 1 .219-1.063c.257-.32.597-.484 1.015-.484h.828c.47 0 .875.152 1.22.453.35.305.577.68.671 1.125l2.844 14.906c0 .012.004.016.015.016.02 0 .032-.004.032-.016l2.75-14.906c.093-.445.312-.82.656-1.125.351-.3.77-.453 1.25-.453h1.687c.477 0 .891.152 1.235.453.351.305.578.68.672 1.125l2.75 14.906c0 .012.004.016.015.016.02 0 .032-.004.032-.016l2.843-14.906c.094-.445.313-.82.657-1.125.351-.3.765-.453 1.234-.453h.703c.414 0 .75.164 1 .484.258.313.344.668.25 1.063l-4.047 17.562c-.094.461-.328.836-.703 1.125a1.944 1.944 0 0 1-1.25.438h-1.531c-.469 0-.883-.148-1.235-.453-.343-.3-.57-.68-.671-1.14l-2.829-14.891c0-.02-.011-.032-.03-.032-.013 0-.016.012-.016.032l-2.844 14.89c-.094.461-.32.84-.672 1.14-.344.306-.75.454-1.219.454ZM134.133 148.616c-1.492 0-2.633.25-3.422.75-.793.5-1.187 1.156-1.187 1.969 0 .605.175 1.078.53 1.422.364.336.86.5 1.485.5 1.07 0 1.973-.348 2.703-1.047.739-.695 1.11-1.578 1.11-2.64v-.704c0-.164-.074-.25-.219-.25Zm-3.531 7.328c-1.375 0-2.477-.379-3.297-1.14-.824-.77-1.234-1.832-1.234-3.188 0-1.644.69-2.96 2.078-3.953 1.382-.988 3.379-1.484 5.984-1.484h1c.145 0 .219-.079.219-.235-.012-.945-.219-1.61-.625-1.984-.399-.375-1.094-.563-2.094-.563a11.54 11.54 0 0 0-3.937.703 1.196 1.196 0 0 1-.97-.062 1.063 1.063 0 0 1-.577-.75 1.609 1.609 0 0 1 .156-1.125c.195-.363.484-.613.86-.75a14.035 14.035 0 0 1 4.562-.766c2.25 0 3.863.446 4.844 1.328.976.875 1.468 2.293 1.468 4.25v5.47c0 .78.055 1.57.172 2.359.05.418-.055.793-.312 1.125a1.245 1.245 0 0 1-1.016.484h-.281c-.48 0-.903-.148-1.266-.453-.355-.3-.547-.68-.578-1.14a3.128 3.128 0 0 1-.031-.532c0-.04-.012-.063-.031-.063-.032 0-.047.012-.047.032-.532.761-1.246 1.36-2.141 1.797a6.701 6.701 0 0 1-2.906.64ZM146.594 149.225v4.829c0 .43-.164.804-.484 1.125a1.505 1.505 0 0 1-1.125.484h-.547c-.43 0-.805-.16-1.125-.484a1.53 1.53 0 0 1-.484-1.125v-11.5c0-.438.16-.817.484-1.141.32-.32.695-.484 1.125-.484h.313c.437 0 .812.164 1.125.484.312.324.476.703.5 1.14l.03 1.188c0 .024.005.031.016.031.02 0 .04-.007.063-.03 1.375-1.665 3.117-2.661 5.234-2.985.395-.051.742.062 1.047.343.3.282.453.633.453 1.047 0 .418-.152.778-.453 1.078a1.867 1.867 0 0 1-1.062.547c-1.649.243-2.914.84-3.797 1.797-.875.95-1.313 2.168-1.313 3.656ZM160.158 147.257v6.797c0 .43-.156.804-.468 1.125a1.49 1.49 0 0 1-1.11.484h-.437c-.43 0-.805-.16-1.125-.484a1.53 1.53 0 0 1-.485-1.125v-11.5c0-.438.16-.817.485-1.141.32-.32.695-.484 1.125-.484h.172c.457 0 .843.156 1.156.468.32.313.492.7.516 1.157l.03.328c0 .023.009.031.032.031.04 0 .063-.008.063-.031 1.093-1.489 2.335-2.235 3.734-2.235.906 0 1.66.188 2.266.563.601.367 1.125.969 1.562 1.812 0 .024.016.032.047.032.02 0 .039-.008.062-.032 1.227-1.582 2.66-2.375 4.297-2.375 1.594 0 2.75.446 3.47 1.328.726.875 1.093 2.352 1.093 4.422v7.657c0 .43-.164.804-.485 1.125a1.505 1.505 0 0 1-1.125.484h-.343c-.43 0-.805-.16-1.125-.484a1.53 1.53 0 0 1-.485-1.125v-6.797c0-1.477-.156-2.473-.468-2.985-.313-.507-.868-.765-1.657-.765-.68 0-1.273.36-1.78 1.078-.513.719-.767 1.61-.767 2.672v6.797c0 .43-.164.804-.484 1.125a1.558 1.558 0 0 1-1.14.484h-.329c-.437 0-.82-.16-1.14-.484a1.53 1.53 0 0 1-.485-1.125v-6.797c0-1.477-.156-2.473-.468-2.985-.313-.507-.868-.765-1.657-.765-.68 0-1.273.36-1.78 1.078-.513.719-.767 1.61-.767 2.672ZM184.906 155.944c-1.605 0-2.789-.457-3.546-1.375-.75-.914-1.125-2.41-1.125-4.484v-7.531c0-.438.16-.817.484-1.141.32-.32.695-.484 1.125-.484h.406c.426 0 .801.164 1.125.484.32.324.485.703.485 1.14v7.157c0 1.273.171 2.14.515 2.61.352.46.957.687 1.813.687.832 0 1.593-.422 2.281-1.266.687-.844 1.031-1.832 1.031-2.969v-6.218c0-.438.156-.817.469-1.141.312-.32.68-.484 1.11-.484h.484c.437 0 .816.164 1.14.484.32.324.485.703.485 1.14v11.5c0 .43-.164.805-.485 1.126a1.558 1.558 0 0 1-1.14.484h-.219c-.461 0-.852-.156-1.172-.469a1.66 1.66 0 0 1-.5-1.14l-.031-.438c0-.008-.012-.016-.031-.016-.032 0-.047.008-.047.016a6.273 6.273 0 0 1-2.094 1.703 5.65 5.65 0 0 1-2.563.625ZM200.74 148.163v.281c0 1.469.305 2.606.923 3.406.613.805 1.421 1.204 2.421 1.204 1 0 1.813-.41 2.438-1.235.633-.82.953-1.992.953-3.515 0-1.594-.297-2.786-.89-3.579-.594-.789-1.43-1.187-2.5-1.187-1 0-1.81.414-2.422 1.234-.618.825-.922 1.953-.922 3.391Zm0 5.75v6.375c0 .426-.163.8-.484 1.125-.324.32-.703.484-1.14.484h-.453c-.43 0-.805-.164-1.125-.484-.325-.324-.485-.7-.485-1.125v-17.734c0-.438.16-.817.485-1.141.32-.32.695-.484 1.125-.484h.234c.445 0 .832.156 1.156.468.32.313.492.7.516 1.157v.421c0 .024.008.032.031.032.031 0 .047-.008.047-.032 1.156-1.55 2.648-2.328 4.484-2.328 1.832 0 3.27.653 4.313 1.953 1.05 1.305 1.578 3.204 1.578 5.704 0 2.43-.547 4.308-1.64 5.64-1.087 1.336-2.5 2-4.25 2-1.794 0-3.231-.676-4.313-2.031 0-.02-.016-.031-.047-.031-.024 0-.031.011-.031.031Zm0 0"/></svg>