<svg xmlns="http://www.w3.org/2000/svg" width="300" height="230" version="1.0" viewBox="0 0 224.88 172.5"><defs><clipPath id="a"><path d="M8 100h70.54v23.637H8Zm0 0"/></clipPath><clipPath id="b"><path d="M3.86 48.215H50v75.422H3.86Zm0 0"/></clipPath></defs><g clip-path="url(#a)"><path fill="#444" d="M76.18 102.07a11.716 11.716 0 0 0-4.227-1.394l-.05-.004-.02-.004-.028-.004-.093-.012c-.063-.007-.125-.011-.188-.02-.062-.007-.129-.01-.191-.019l-.094-.008c-.016 0-.031 0-.047-.003h-.047a51.345 51.345 0 0 1-.191-.012c-.035-.004-.067-.008-.098-.008l-.094-.004a3.01 3.01 0 0 1-.19-.008h-.192c-.258-.007-.516 0-.774.008l-.191.012-.098.004-.094.008-.195.011c-.031.004-.062.004-.098.008l-.093.012c-.067.004-.13.012-.196.015l-.191.024-.098.012-.047.004-.046.007c-.067.008-.133.02-.196.028l-.097.011-.094.016c-.067.012-.129.02-.195.031-.063.012-.125.024-.192.035l-.097.016c-.032.004-.063.012-.094.016-.516.097-1.028.218-1.535.359l-.094.023-.094.028c-.066.02-.129.035-.191.055-.063.019-.125.039-.192.058l-.187.059c-.125.039-.254.078-.38.12-.062.024-.124.044-.187.067l-.187.063c-.254.09-.504.183-.75.277-.063.027-.125.05-.188.074-.062.028-.125.051-.187.074-.063.028-.125.051-.184.079l-.187.078a30.86 30.86 0 0 0-2.914 1.422l-.09.046-.09.051-.18.098c-.058.035-.117.066-.18.101-.058.036-.117.067-.175.102l-.176.106c-.062.03-.121.066-.18.101l-.351.211c-.059.035-.117.07-.18.105-.058.036-.113.07-.176.106-.058.035-.117.074-.175.11-.059.034-.118.07-.176.105-.117.074-.235.144-.352.219-.117.074-.234.144-.351.218l-.086.055-.09.059c-.059.035-.113.07-.172.109l-.176.113c-.058.035-.117.074-.176.11-.117.078-.234.152-.351.226-.113.078-.23.153-.348.23-1.86 1.223-3.707 2.528-5.562 3.86-1.86 1.328-3.73 2.691-5.649 4.023-.48.332-.965.665-1.449.993-.488.328-.976.656-1.473.976-.12.082-.246.16-.37.242l-.376.239c-.125.078-.25.16-.375.238l-.375.234c-.504.313-1.011.621-1.523.922-.516.301-1.035.598-1.559.887a50.972 50.972 0 0 1-3.215 1.617 52.612 52.612 0 0 1-1.242.547c-.066.027-.136.055-.207.086-.07.027-.14.055-.21.086l-.184.07a2.57 2.57 0 0 1-.184.074c-.058.024-.121.047-.18.07l-.093.036-.09.035c-.246.094-.492.188-.738.273-.059.02-.122.043-.184.067l-.09.031-.094.031c-.125.043-.246.086-.37.125-.032.012-.063.024-.094.032l-.09.03-.188.06c-.062.019-.125.038-.183.062l-.047.012-.047.015-.094.028a13.678 13.678 0 0 1-.469.14l-.093.028a3.268 3.268 0 0 0-.184.054c-.063.016-.125.035-.188.051-.062.02-.125.035-.187.05-.125.036-.25.067-.375.102-.5.13-1 .239-1.496.297-.25.028-.5.043-.746.043a4.487 4.487 0 0 1-.817-.082l-.046-.011-.02-.004-.023-.004a2.649 2.649 0 0 1-.168-.043l-.164-.059c-.055-.023-.106-.043-.16-.07-.051-.024-.102-.051-.153-.078l-.016-.012-.02-.012-.034-.023-.07-.047c-.012-.008-.024-.016-.032-.023l-.035-.028-.031-.023-.016-.016c-.004-.004-.012-.008-.015-.012a1.076 1.076 0 0 1-.114-.117.94.94 0 0 1-.21-.39c-.012-.047-.016-.098-.02-.145a.86.86 0 0 1 .035-.297c.027-.101.07-.203.125-.305.05-.101.117-.199.183-.3.036-.051.075-.098.11-.149.02-.027.039-.05.055-.074l.058-.074c.078-.098.156-.192.235-.29.082-.093.168-.187.25-.277.171-.187.347-.367.523-.546.18-.18.36-.356.543-.532.363-.351.734-.703 1.098-1.058.359-.356.718-.72 1.062-1.098.172-.191.34-.383.5-.582l.121-.152.059-.075.058-.078c.04-.05.075-.101.114-.152.02-.027.039-.055.054-.078l.059-.082.055-.078c.015-.028.035-.055.05-.082a3 3 0 0 0 .106-.164c.066-.11.133-.22.195-.336.031-.055.063-.114.09-.172.016-.028.027-.059.043-.086l.023-.047.02-.043.078-.18.035-.093.02-.043c.004-.016.012-.032.015-.047l.032-.094c.007-.016.011-.031.015-.047l.032-.094.011-.047c.012-.03.02-.066.028-.097a3.24 3.24 0 0 0 .117-.79c0-.132-.004-.269-.02-.402-.031-.27-.11-.539-.23-.78a2.247 2.247 0 0 0-.215-.349 2.505 2.505 0 0 0-.27-.304 2.94 2.94 0 0 0-.636-.469 3.819 3.819 0 0 0-.715-.305 4.003 4.003 0 0 0-.371-.101c-.063-.016-.125-.028-.188-.04l-.09-.015c-.035-.008-.066-.012-.097-.016a6.143 6.143 0 0 0-.375-.046 6.142 6.142 0 0 0-.38-.016c-.124-.004-.25 0-.374.004-.13.008-.254.02-.38.035-.25.027-.495.074-.741.145l-.09.027c-.031.008-.059.02-.09.031l-.043.012-.047.016-.258.093a.76.76 0 0 1-.086.032l-.085.035c-.227.09-.454.183-.672.285-.223.101-.442.207-.657.32-.054.028-.105.055-.16.082a3.199 3.199 0 0 0-.16.086c-.05.027-.105.055-.16.086-.05.027-.102.059-.156.086-.211.117-.418.238-.621.36-.207.124-.41.25-.614.374-.402.25-.8.508-1.195.762-.2.129-.395.254-.594.379-.097.063-.195.125-.297.188-.097.062-.195.124-.297.187-.195.125-.394.246-.593.371l-.586.375a102.82 102.82 0 0 0-2.309 1.531c-.187.13-.375.258-.562.391-.094.062-.188.129-.282.191-.093.067-.187.13-.277.2-.187.129-.371.261-.555.39l-.55.399a88.42 88.42 0 0 0-4.203 3.246 98.335 98.335 0 0 1 9.875-6.781l.332-.204c.113-.066.222-.132.335-.203l.668-.41c.446-.277.895-.555 1.348-.828.45-.27.91-.535 1.379-.781.473-.246.953-.473 1.445-.672l.375-.14.094-.036c.031-.008.063-.02.094-.031l.14-.047c.016-.008.032-.012.047-.016a4.17 4.17 0 0 1 .766-.164c.262-.035.523-.047.789-.039.262.008.527.035.79.082.257.047.515.117.76.211.243.094.481.211.692.356.211.148.403.324.551.527.078.105.14.215.195.328.051.113.094.234.125.356.028.125.047.25.055.378.008.13.004.258-.008.387a3.254 3.254 0 0 1-.172.774 4.32 4.32 0 0 1-.148.37l-.043.094-.047.09-.047.09-.023.043-.024.047a8.364 8.364 0 0 1-.21.352c-.071.113-.15.226-.231.34-.32.445-.688.867-1.074 1.273-.387.41-.793.8-1.203 1.195-.415.395-.836.785-1.247 1.192-.105.101-.207.203-.308.308a11.87 11.87 0 0 0-.305.317c-.098.105-.2.214-.297.328-.093.113-.191.226-.281.343-.09.118-.18.243-.266.372a2.663 2.663 0 0 0-.226.418c-.031.078-.063.156-.082.238-.012.043-.02.086-.028.129a1.467 1.467 0 0 0-.02.129c0 .046-.003.09-.003.132a.424.424 0 0 1 .004.07l.008.067c.011.086.031.176.058.262l.012.031.012.031.023.063.031.058a1.617 1.617 0 0 0 .18.273c.05.067.113.126.172.184.063.055.129.11.195.157.067.047.137.09.207.133a2.758 2.758 0 0 0 .664.27c.04.01.079.019.118.03l.113.024c.039.004.078.011.117.02l.055.007.031.008h.027c.153.023.309.039.461.047.309.011.614 0 .918-.031.305-.032.602-.082.899-.141.144-.031.293-.063.437-.098.149-.035.293-.07.438-.11.144-.034.289-.073.43-.112.144-.04.288-.082.433-.121l.105-.032c.04-.011.075-.02.11-.031.07-.023.144-.043.215-.066l.215-.063c.07-.023.14-.047.214-.07.07-.024.141-.043.215-.067a17370.877 17370.877 0 0 0 .746-.25l.106-.039c.07-.023.14-.05.21-.074.145-.05.286-.101.427-.156.07-.028.14-.05.21-.078.036-.012.07-.028.106-.04l.105-.042.211-.082.106-.04.05-.023.051-.02c.141-.058.282-.113.422-.171l.051-.02.055-.023.101-.043c.07-.031.14-.059.211-.09l.106-.043.101-.047c.07-.027.14-.058.207-.09.07-.031.14-.062.207-.09l.055-.023.152-.07.207-.094.106-.047.101-.05.414-.192a52.8 52.8 0 0 0 2.036-1.031c.066-.036.132-.075.199-.11l.203-.11c.066-.034.133-.07.2-.109.066-.039.132-.074.198-.113l.403-.222.343-.2c.118-.066.23-.132.344-.199l.172-.098.172-.101c.113-.07.227-.137.34-.203.226-.137.453-.274.676-.414l.336-.207c.109-.07.222-.14.335-.211l.333-.211.164-.106.082-.054.086-.051c.109-.074.218-.145.328-.215.054-.035.109-.07.164-.11l.164-.105.656-.433c.11-.075.215-.149.324-.22.11-.073.215-.148.324-.222.106-.07.215-.144.325-.219.105-.074.21-.148.32-.222.215-.145.426-.293.64-.442.426-.296.848-.597 1.27-.894.84-.602 1.672-1.203 2.496-1.805 1.653-1.203 3.285-2.402 4.914-3.562a108.319 108.319 0 0 1 4.918-3.309c.102-.066.207-.129.309-.195.055-.031.105-.063.156-.094.05-.031.102-.066.156-.098.102-.062.207-.125.313-.187.101-.063.207-.125.308-.188.418-.246.836-.484 1.258-.715a31.27 31.27 0 0 1 2.578-1.25 23.7 23.7 0 0 1 2.653-.964c.894-.262 1.8-.465 2.715-.586.453-.059.91-.102 1.367-.121h.043l.043-.004h.082c.058-.004.117-.004.172-.004.058-.004.113 0 .171-.004h.168c.06.004.118.004.172.004l.086.004h.086c.055.004.114.004.168.008.059.003.113.003.168.007a12.35 12.35 0 0 1 2.656.453c.426.125.848.274 1.254.45.41.172.805.363 1.188.578.77.43 1.484.941 2.144 1.504a13.055 13.055 0 0 0-2.347-1.692"/></g><g clip-path="url(#b)"><path fill="#444" d="M27.988 81.969c-.07.047-.144.094-.218.136-.07.047-.145.09-.22.133-.148.082-.3.164-.452.239-.614.3-1.254.527-1.836.699-.575.176-1.094.293-1.469.363a11.62 11.62 0 0 1-.602.106c.493-.172.954-.336 1.375-.493.211-.078.414-.156.61-.226.195-.074.379-.145.558-.215.356-.137.676-.27.965-.39.145-.06.281-.118.41-.173a8.69 8.69 0 0 1 .36-.16c.453-.203.785-.36 1-.472.215-.11.316-.172.316-.172-.242.23-.512.441-.797.625ZM6.285 121.672a.276.276 0 1 1-.547-.071.276.276 0 0 1 .547.07Zm42.844-73.07a2.602 2.602 0 0 0-.121-.055c-.051-.02-.121-.047-.203-.074-.043-.016-.086-.032-.133-.047-.047-.016-.102-.028-.16-.043a4.22 4.22 0 0 0-.648-.113c-.024-.004-.044-.008-.067-.008-.024-.004-.043-.004-.067-.008l-.14-.012a9.052 9.052 0 0 0-1.406.016c-.551.047-1.192.144-1.918.316a19.29 19.29 0 0 0-2.438.766c-.894.347-1.875.797-2.93 1.367a34.03 34.03 0 0 0-3.37 2.102c-.102.07-.208.144-.313.214-.102.07-.211.141-.317.215-.218.137-.441.278-.656.418-.219.14-.437.285-.652.43-.11.07-.211.144-.317.219-.105.078-.207.152-.308.23-.102.078-.2.156-.297.235-.05.042-.098.082-.145.125-.05.039-.093.082-.14.12a6.45 6.45 0 0 0-.508.528 5.097 5.097 0 0 0-.223.285c-.066.098-.132.195-.191.297a3.892 3.892 0 0 0-.297.648l-.012.032s.043-.246.133-.692c.09-.445.25-1.086.473-1.87a55.267 55.267 0 0 0-3.41 2.628c-.297.25-.594.512-.887.777-.074.067-.14.133-.215.2-.07.07-.14.136-.21.207a14.615 14.615 0 0 0-1.188 1.281c-.243.293-.48.594-.688.902-.207.305-.398.617-.57.934-.024.039-.043.082-.063.121-.023.039-.043.078-.062.117-.04.082-.074.16-.113.242-.07.16-.137.325-.2.485a8.015 8.015 0 0 0-.16.492c-.023.082-.047.164-.066.246-.02.086-.035.168-.051.25a5.505 5.505 0 0 0-.098 1.008v.05s-.02-.093-.05-.273c-.028-.18-.067-.445-.11-.785-.02-.168-.043-.355-.058-.563a22.568 22.568 0 0 1-.106-1.832c0-.07-.004-.144-.004-.214v-.22c-.05.056-.105.106-.156.161-.05.055-.102.105-.152.16-.102.11-.203.215-.305.324-.207.215-.41.434-.617.657l-.153.164c-.046.058-.097.113-.148.168l-.305.34-.605.683c-.395.465-.793.938-1.188 1.418-.386.48-.777.973-1.164 1.469a10.2 10.2 0 0 0-.851 1.328c-.125.23-.235.465-.336.7a13.31 13.31 0 0 0-.27.714c-.078.238-.144.48-.203.719a7.362 7.362 0 0 0-.188 2.117l.005.035s-.063-.23-.149-.644a25.527 25.527 0 0 1-.309-1.774c-.078.113-.152.227-.23.344-.195.297-.383.601-.555.91-.043.074-.086.152-.129.23-.02.04-.039.079-.062.118l-.059.117c-.078.156-.152.316-.226.473a15.475 15.475 0 0 0-.477 1.203c-.015.039-.027.082-.043.12l-.035.122c-.05.164-.098.324-.14.488-.09.324-.16.649-.223.973-.028.164-.055.324-.078.484-.004.04-.008.082-.016.121l-.012.121a2.46 2.46 0 0 0-.023.239c-.055.64-.055 1.27.012 1.875l.004.043s-.094-.301-.227-.848a25.601 25.601 0 0 1-.223-.992c-.039-.192-.078-.399-.12-.617-.009-.055-.02-.11-.028-.168-.008-.055-.02-.114-.027-.168a9.682 9.682 0 0 1-.055-.356c-.047.082-.094.164-.14.25l-.071.125-.067.125c-.093.168-.183.336-.273.504l-.035.067c-.14.265-.277.535-.41.804-.067.137-.133.27-.196.406-.062.137-.125.274-.183.41a27.813 27.813 0 0 0-.73 1.86c-.024.07-.048.137-.067.207-.047.14-.09.277-.137.418-.082.277-.164.559-.242.836-.035.14-.074.277-.11.418-.034.14-.07.277-.097.418a22.708 22.708 0 0 0-.313 1.668l-.058.418-.024.207-.023.207c-.055.55-.09 1.097-.102 1.64a18.418 18.418 0 0 0 .036 1.602c.039.527.097 1.047.175 1.559.047.289.098.593.153.902 0 0-.012-.04-.04-.113-.027-.075-.07-.184-.117-.325-.097-.285-.23-.703-.374-1.23a28.54 28.54 0 0 1-.465-1.887 31.14 31.14 0 0 1-.391-2.418c-.078.2-.152.403-.23.602a9.73 9.73 0 0 0-.399 1.375 12.464 12.464 0 0 0-.219 2.164c-.004.246-.004.488.004.734.016.493.055.985.11 1.473.027.242.054.484.09.727.035.242.066.48.109.722a60.596 60.596 0 0 0 .543 2.75c.047.215.094.43.137.637.046.21.09.418.132.617l.012.059s-.148-.352-.367-.985a9.075 9.075 0 0 1-.082-.246c-.031-.09-.059-.18-.09-.273a27.98 27.98 0 0 1-.578-2.121c-.098.398-.188.797-.274 1.199-.043.2-.085.398-.125.598l-.03.148-.032.152-.055.301c-.074.402-.144.8-.215 1.203-.03.203-.062.403-.093.606l-.047.304a56.2 56.2 0 0 0-.32 2.742c-.012.102-.02.204-.028.305l-.023.309a43.059 43.059 0 0 0-.105 1.855c.062.305.124.621.198.946.07.324.149.66.235 1.007 0 0-.05-.105-.13-.296-.081-.196-.198-.477-.331-.84a59.21 59.21 0 0 0 .031 3.277c.008.16.016.317.027.477.032.632.079 1.273.133 1.918.012.16.028.32.043.484.016.16.032.32.051.484.035.325.07.653.113.977a302.951 302.951 0 0 1 4.641-10.66l.3-.66c.102-.22.208-.442.31-.66l.617-1.313.23-.496.078-.164.317-.653.628-1.308.079-.164.082-.164.16-.324.324-.653.32-.652.16-.324.082-.164.082-.16.657-1.294.328-.648 1.008-1.934c.11-.214.226-.425.34-.64l.687-1.281.168-.317.176-.32.699-1.27.176-.32.18-.316.355-.63.36-.632.175-.317.184-.312.726-1.254c.121-.21.246-.418.371-.625l.371-.621.372-.625.187-.309.191-.308.38-.617.19-.309c.063-.106.126-.207.192-.309l.77-1.226.195-.305.2-.305.394-.609a132.31 132.31 0 0 1 3.261-4.785 126.207 126.207 0 0 0-3.277 5.2l-.394.655-.391.664-.387.665-.383.664-.757 1.335-.743 1.348-.183.336c-.031.055-.063.11-.094.168l-.09.168-.363.68c-.238.449-.484.898-.719 1.355l-.707 1.363c-.234.454-.465.915-.695 1.368l-.348.687-.34.688-.675 1.379-.664 1.386-.332.692-.325.695-.648 1.395c-.055.117-.106.234-.156.347l-.16.352-.633 1.398c-.051.117-.106.235-.157.352l-.156.351-.617 1.407-.234.527-.075.176-.3.707-.606 1.41c-.05.117-.098.238-.148.355l-.149.356-.293.707-.297.71-.293.712a319.852 319.852 0 0 0-4.418 11.465l.02-.016c-.164.434-3.86 10.676-3.86 10.676-.07.199.153.37.325.254l2.66-1.762-.734-1.031s3.003-7.84 3.168-8.285l.164-.438.164-.434c.11-.285.215-.57.324-.851l.016.031s.011-.023.03-.074c3.325-2.906 6.141-5.809 8.634-8.82a29.484 29.484 0 0 1-3.247 1.113l.047-.024c.172-.086.348-.171.532-.257.09-.043.18-.09.27-.133.093-.043.187-.09.28-.137a51.394 51.394 0 0 0 2.32-1.187l.294-.165c.097-.054.195-.113.293-.167.199-.114.394-.227.586-.348a18.27 18.27 0 0 0 1.671-1.149l.133-.105c.043-.035.086-.066.13-.102.089-.07.175-.144.257-.214.34-.29.66-.59.957-.91.297-.32.566-.66.813-1.012a93.41 93.41 0 0 0 2.793-4.305c-.274.207-.543.402-.801.586-.258.187-.508.36-.742.523-.473.325-.899.606-1.258.829-.18.113-.336.214-.477.3l-.363.219-.309.18c.024-.02.047-.035.067-.055.199-.164.398-.328.593-.496a8.95 8.95 0 0 1 .29-.254c.097-.086.195-.172.292-.262.383-.343.758-.703 1.125-1.074.09-.094.184-.187.274-.281a25.095 25.095 0 0 0 .809-.855c.175-.196.347-.391.519-.59.082-.102.168-.2.254-.301l.254-.305c.336-.402.66-.82.973-1.246.082-.106.16-.211.238-.316.078-.11.156-.215.23-.325.157-.215.309-.433.457-.652.075-.11.145-.219.219-.332l.219-.336c.144-.223.285-.445.426-.672.14-.226.273-.457.406-.687l.101-.176.051-.086.047-.086c.066-.117.133-.23.2-.348.109-.203.218-.402.331-.601-.238.148-.465.289-.687.422l-.32.195c-.055.031-.106.062-.157.09a46.173 46.173 0 0 1-1.191.688c-.586.32-.942.488-.942.488.016-.012.032-.024.051-.032.317-.23.625-.472.93-.722l.445-.387c.149-.133.293-.27.438-.402.289-.27.57-.551.843-.84.137-.149.27-.293.403-.446a19.157 19.157 0 0 0 1.137-1.395l.09-.124.09-.121c.058-.082.116-.16.175-.242.117-.164.23-.332.34-.5.11-.168.219-.34.324-.512.055-.086.105-.172.16-.258.051-.086.102-.172.153-.262.207-.347.398-.703.582-1.066.109-.215.218-.434.328-.648.11-.215.218-.43.324-.645-.285.168-.563.328-.832.48-.27.149-.531.29-.774.422-.492.266-.93.493-1.3.676-.184.09-.348.172-.493.242-.148.07-.273.13-.375.176l-.316.145a27.303 27.303 0 0 0 .883-.621c.09-.067.18-.133.265-.204.356-.273.7-.562 1.036-.863.675-.597 1.3-1.254 1.89-1.937a20.86 20.86 0 0 0 2.953-4.559c.09-.184.176-.367.262-.55a59.243 59.243 0 0 1-2.371.98c-.098.035-.18.066-.25.09l-.207.078.04-.024.183-.105c.062-.04.12-.074.183-.113.121-.075.242-.153.364-.23.238-.161.468-.333.69-.517.056-.043.114-.09.169-.136a11.405 11.405 0 0 0 .488-.426c.106-.102.207-.203.309-.305l.152-.156c.047-.055.098-.105.149-.16a10.213 10.213 0 0 0 .824-1.008c.086-.117.172-.234.254-.355a11.784 11.784 0 0 0 .855-1.512c.031-.067.059-.13.086-.195.027-.063.055-.13.078-.196a5.985 5.985 0 0 0 .262-.816c.02-.07.039-.14.055-.211.015-.074.035-.145.05-.215.067-.285.121-.578.172-.871l.035-.227.02-.109.016-.11c.023-.148.046-.296.07-.44l.07-.442c.024-.149.047-.297.074-.438.051-.289.106-.57.168-.847.012-.07.028-.137.047-.207.016-.067.035-.133.051-.2.035-.129.074-.261.117-.386.04-.125.082-.25.133-.367.023-.063.047-.122.07-.18.028-.055.055-.113.082-.168l-.191.058-.188.059c-.124.04-.246.078-.367.113-.234.07-.465.137-.68.2a30.826 30.826 0 0 1-1.238.355c-.035.012-.074.02-.105.031-.07.02-.137.04-.2.055-.124.031-.23.062-.316.082-.168.047-.261.066-.261.066.015-.007.03-.011.046-.02.153-.066.301-.132.45-.206.074-.04.144-.074.218-.113l.22-.118a9.76 9.76 0 0 0 .847-.511c.277-.184.547-.38.804-.586.262-.203.512-.418.754-.649l.043-.043.047-.043.09-.082.176-.175c.117-.118.23-.239.34-.36a9.692 9.692 0 0 0 .636-.758c.102-.129.2-.261.297-.394.047-.067.094-.133.14-.203.044-.067.09-.137.138-.203.09-.137.175-.278.257-.418.043-.07.086-.145.125-.215l.122-.215a19.7 19.7 0 0 1 .265-.492c.086-.164.176-.32.262-.48.043-.079.09-.157.133-.235l.129-.23.254-.454c.085-.148.171-.293.253-.437.024-.035.043-.074.063-.11.012-.02.023-.035.031-.054a5.687 5.687 0 0 0 .277-.469c.043-.07.083-.137.125-.203a41.422 41.422 0 0 1 1.973-3.016c.258-.351.492-.664.703-.93a24.288 24.288 0 0 1 .66-.785c.016-.02.036-.039.051-.054l.012-.016.012-.012.027-.027c.031-.031.063-.063.09-.094.027-.023.05-.05.074-.074l.129-.129s-.012-.008-.04-.02"/></g><g fill="#444"><path d="M50.235 76.548v-.797c.238 0 .57.012 1 .032.437.011.82.023 1.156.03.344.013.66.017.953.017 1.79 0 2.992-.024 3.61-.079v.797c-1.43 0-2.141.25-2.141.75 0 .117.016.23.047.344l4.078 12.484 3.547-10.89-.563-1.781c-.136-.426-.351-.68-.64-.766-.282-.094-.828-.14-1.641-.14v-.798c.238 0 .57.012 1 .032.426.011.805.023 1.14.03.344.013.657.017.938.017 1.8 0 3.004-.024 3.61-.079v.797c-1.418 0-2.125.25-2.125.75 0 .055.023.184.078.39l4.062 12.438 3.797-11.734c.082-.258.129-.43.14-.516 0-.3-.18-.593-.53-.875-.356-.289-.919-.441-1.688-.453v-.797c1.32.055 2.332.079 3.031.079.77 0 1.535-.024 2.297-.079v.797c-1.336 0-2.18.563-2.531 1.688L68 93.142a1.49 1.49 0 0 1-.093.297.32.32 0 0 1-.125.156.503.503 0 0 1-.266.063c-.23 0-.39-.164-.484-.485l-4.22-12.922-4.187 12.891a1.49 1.49 0 0 1-.093.297.4.4 0 0 1-.157.156.503.503 0 0 1-.265.063c-.219 0-.383-.164-.485-.485l-5.078-15.562c-.148-.488-.336-.785-.562-.89-.23-.114-.813-.173-1.75-.173ZM78.23 91.72c-1.118-1.101-1.673-2.457-1.673-4.062 0-1.602.547-2.993 1.64-4.172 1.095-1.176 2.427-1.766 4-1.766 1.54 0 2.864.586 3.97 1.75 1.101 1.168 1.656 2.563 1.656 4.188 0 1.605-.559 2.96-1.672 4.062-1.117 1.106-2.437 1.656-3.969 1.656-1.511 0-2.828-.55-3.953-1.656Zm.437-4.265c0 1.648.21 2.84.64 3.578.664 1.136 1.63 1.703 2.89 1.703.634 0 1.212-.164 1.735-.5.52-.344.926-.801 1.22-1.375.374-.738.562-1.875.562-3.406 0-1.625-.227-2.797-.672-3.516-.668-1.102-1.621-1.656-2.86-1.656-.554 0-1.093.148-1.625.437-.53.281-.96.703-1.28 1.266-.407.742-.61 1.898-.61 3.469ZM89.253 93.095v-.781c.906 0 1.46-.05 1.672-.156.207-.114.312-.446.312-1V84.36c0-.633-.11-1.031-.328-1.188-.219-.156-.774-.234-1.656-.234v-.797l3.53-.266v2.782a5.308 5.308 0 0 1 1.126-1.922c.508-.57 1.176-.86 2-.86.55 0 1 .157 1.344.47.351.304.53.663.53 1.077 0 .375-.116.657-.343.844-.23.188-.48.281-.75.281-.305 0-.562-.097-.781-.297-.211-.195-.313-.46-.313-.796 0-.207.047-.391.141-.547.102-.164.191-.274.266-.328a.705.705 0 0 1 .187-.125 1.602 1.602 0 0 0-.281-.016c-.93 0-1.664.465-2.203 1.39-.531.93-.797 2.055-.797 3.376v3.906c0 .492.098.812.297.969.207.156.754.234 1.64.234h.532v.781c-.68-.05-1.75-.078-3.22-.078-.21 0-.476.008-.796.016-.324.011-.7.027-1.125.047a35.76 35.76 0 0 1-.984.015ZM99.343 87.642c0-1.613.554-2.977 1.672-4.094 1.125-1.113 2.445-1.672 3.968-1.672 1.29 0 2.36.528 3.204 1.579v-5.5c0-.625-.11-1.016-.329-1.172-.218-.157-.765-.235-1.64-.235v-.797l3.656-.28v15.421c0 .625.11 1.023.328 1.188.219.156.766.234 1.64.234v.781l-3.734.281V91.69c-.875 1.117-2.007 1.676-3.39 1.687-1.461 0-2.719-.554-3.781-1.671-1.063-1.114-1.594-2.47-1.594-4.063Zm2.094.016c0 1.574.242 2.75.734 3.53.676 1.087 1.566 1.626 2.672 1.626 1.25 0 2.25-.594 3-1.781.187-.282.273-.594.265-.938v-5.203c0-.344-.09-.656-.265-.937-.7-1.008-1.617-1.516-2.75-1.516-1.18 0-2.137.543-2.875 1.625-.524.805-.781 2-.781 3.594ZM121.448 76.548v-.797c.238 0 .57.012 1 .032.437.011.82.023 1.156.03.344.013.66.017.953.017 1.79 0 2.992-.024 3.61-.079v.797c-1.43 0-2.141.25-2.141.75 0 .117.015.23.047.344l4.078 12.484 3.547-10.89-.563-1.781c-.137-.426-.351-.68-.64-.766-.282-.094-.829-.14-1.641-.14v-.798c.238 0 .57.012 1 .032.426.011.805.023 1.14.03.344.013.657.017.938.017 1.8 0 3.004-.024 3.61-.079v.797c-1.419 0-2.126.25-2.126.75 0 .055.024.184.079.39l4.062 12.438 3.797-11.734c.082-.258.129-.43.14-.516 0-.3-.18-.593-.53-.875-.356-.289-.919-.441-1.688-.453v-.797c1.32.055 2.332.079 3.031.079.77 0 1.535-.024 2.297-.079v.797c-1.336 0-2.18.563-2.531 1.688l-4.86 14.906a1.49 1.49 0 0 1-.093.297.32.32 0 0 1-.125.156.503.503 0 0 1-.266.063c-.23 0-.39-.164-.484-.485l-4.22-12.922-4.187 12.891a1.49 1.49 0 0 1-.093.297.4.4 0 0 1-.157.156.503.503 0 0 1-.265.063c-.22 0-.383-.164-.485-.485l-5.078-15.562c-.148-.488-.336-.785-.562-.89-.23-.114-.813-.173-1.75-.173ZM148.13 90.673c0-1.437.847-2.535 2.547-3.297 1.007-.488 2.566-.789 4.671-.906v-.937c0-1.051-.277-1.852-.828-2.407-.554-.562-1.172-.843-1.86-.843-1.241 0-2.155.39-2.75 1.172.5.011.837.148 1.017.406.187.25.28.5.28.75 0 .344-.105.625-.312.844-.21.218-.496.328-.86.328-.335 0-.616-.102-.843-.313-.219-.219-.328-.508-.328-.875 0-.832.375-1.52 1.125-2.062.75-.54 1.656-.813 2.719-.813 1.383 0 2.539.465 3.469 1.39.289.294.507.626.656 1 .144.368.222.673.234.923.02.242.031.601.031 1.078v5.078c0 .094.016.226.047.39.032.169.125.36.282.579.156.21.359.312.609.312.613 0 .914-.539.906-1.625v-1.437h.64v1.437c0 .899-.241 1.524-.718 1.875-.469.356-.922.531-1.36.531-.562 0-1.023-.207-1.374-.625a2.555 2.555 0 0 1-.61-1.468 3.445 3.445 0 0 1-1.25 1.593c-.586.414-1.277.625-2.078.625a6.84 6.84 0 0 1-1.781-.234 3.677 3.677 0 0 1-1.578-.86c-.469-.425-.703-.96-.703-1.609Zm1.968-.015c0 .625.22 1.14.657 1.547.445.406.988.609 1.625.609.707 0 1.379-.274 2.015-.828.633-.551.953-1.367.953-2.453V87c-1.875.063-3.218.47-4.03 1.22-.813.75-1.22 1.562-1.22 2.437ZM160.466 93.095v-.781c.906 0 1.46-.05 1.671-.156.208-.114.313-.446.313-1V84.36c0-.633-.11-1.031-.328-1.188-.219-.156-.774-.234-1.656-.234v-.797l3.53-.266v2.782a5.308 5.308 0 0 1 1.126-1.922c.508-.57 1.176-.86 2-.86.55 0 1 .157 1.344.47.351.304.53.663.53 1.077 0 .375-.116.657-.343.844-.23.188-.48.281-.75.281-.305 0-.562-.097-.781-.297-.211-.195-.313-.46-.313-.796 0-.207.047-.391.141-.547.102-.164.191-.274.266-.328a.705.705 0 0 1 .187-.125 1.602 1.602 0 0 0-.281-.016c-.93 0-1.664.465-2.203 1.39-.532.93-.797 2.055-.797 3.376v3.906c0 .492.098.812.297.969.207.156.754.234 1.64.234h.532v.781c-.68-.05-1.75-.078-3.22-.078-.21 0-.476.008-.796.016-.324.011-.7.027-1.125.047a35.76 35.76 0 0 1-.984.015ZM170.493 93.095v-.781c.906 0 1.461-.05 1.672-.156.207-.114.313-.446.313-1V84.36c0-.633-.118-1.031-.344-1.188-.219-.156-.766-.234-1.64-.234v-.797l3.577-.266v2.672c.79-1.781 2.04-2.672 3.75-2.672 1.989 0 3.118.829 3.391 2.485.289-.645.738-1.219 1.344-1.719.601-.508 1.383-.766 2.343-.766 1.27 0 2.157.313 2.657.938.375.43.597.875.672 1.344.07.468.109 1.32.109 2.547v4.843c.02.356.164.575.437.657.27.074.786.109 1.547.109v.781c-1.73-.05-2.68-.078-2.843-.078-.125 0-1.086.027-2.875.078v-.781c.906 0 1.46-.05 1.671-.156.208-.114.313-.446.313-1V85.25c0-.863-.137-1.546-.406-2.046-.262-.508-.75-.766-1.469-.766-.875 0-1.668.371-2.375 1.11-.7.73-1.047 1.714-1.047 2.952v4.657c0 .554.102.886.313 1 .207.105.765.156 1.671.156v.781c-1.73-.05-2.683-.078-2.859-.078-.137 0-1.09.027-2.86.078v-.781c.895 0 1.446-.05 1.657-.156.219-.114.328-.446.328-1V85.25c0-.863-.137-1.546-.406-2.046-.262-.508-.758-.766-1.485-.766-.875 0-1.667.371-2.375 1.11-.699.73-1.046 1.714-1.046 2.952v4.657c0 .554.101.886.312 1 .219.105.77.156 1.656.156v.781c-1.718-.05-2.664-.078-2.828-.078-.136 0-1.094.027-2.875.078ZM191.631 82.939v-.797l3.735-.266v8.422c0 .407.015.73.047.969.039.242.129.496.265.766.133.273.36.468.672.593.32.125.738.188 1.25.188.914 0 1.656-.375 2.219-1.125.57-.758.86-1.695.86-2.813v-4.515c0-.633-.118-1.031-.344-1.188-.22-.156-.766-.234-1.641-.234v-.797l3.734-.266v9.016c0 .625.11 1.023.328 1.188.22.156.77.234 1.657.234v.781l-3.657.281V91.08c-.718 1.523-1.812 2.285-3.28 2.296-.743 0-1.368-.093-1.876-.28-.512-.188-.898-.395-1.156-.626-.25-.238-.445-.586-.578-1.047-.137-.457-.215-.828-.235-1.11a32.945 32.945 0 0 1-.015-1.233v-3.813c0-1.144-.086-1.816-.25-2.016-.168-.207-.746-.312-1.735-.312ZM205.606 97.236c.906 0 1.46-.059 1.672-.172.207-.106.312-.43.312-.969v-11.89c0-.563-.105-.91-.312-1.047-.211-.145-.766-.22-1.672-.22v-.796l3.656-.266v1.672c1.02-1.113 2.207-1.672 3.563-1.672 1.437 0 2.68.559 3.734 1.672 1.05 1.117 1.578 2.469 1.578 4.063 0 1.617-.562 2.98-1.687 4.094-1.117 1.117-2.446 1.671-3.985 1.671-.843 0-1.554-.214-2.125-.64-.562-.438-.898-.817-1-1.14v4.5c0 .538.102.862.313.968.219.113.773.172 1.672.172v.781a234.606 234.606 0 0 0-2.86-.078c-.168 0-1.12.023-2.859.078Zm3.734-7.031c0 .261.016.437.047.53.04.087.145.263.313.532.664 1.031 1.547 1.547 2.64 1.547h.032c.957 0 1.804-.492 2.546-1.484.739-.989 1.11-2.227 1.11-3.72 0-1.413-.34-2.616-1.016-3.609-.668-1-1.465-1.5-2.39-1.5-.657 0-1.278.184-1.86.547-.574.356-1.047.856-1.422 1.5Zm0 0"/></g></svg>